CooperHewitt-Heavy.ufo
<glyph name="exclam" format="1">
  <advance width="280"/>
  <unicode hex="0021"/>
  <outline>
    <contour>
      <point x="25" y="780" type="line"/>
      <point x="75" y="240" type="line"/>
      <point x="205" y="240" type="line"/>
      <point x="255" y="780" type="line"/>
    </contour>
    <contour>
      <point x="235" y="190" type="line"/>
      <point x="45" y="190" type="line"/>
      <point x="45" y="0" type="line"/>
      <point x="235" y="0" type="line"/>
    </contour>
  </outline>
</glyph>
<glyph name="quotedbl" format="1">
  <advance width="480"/>
  <unicode hex="0022"/>
  <outline>
    <contour>
      <point x="40" y="780" type="line"/>
      <point x="68" y="440" type="line"/>
      <point x="212" y="440" type="line"/>
      <point x="220" y="780" type="line"/>
    </contour>
    <contour>
      <point x="260" y="780" type="line"/>
      <point x="268" y="440" type="line"/>
      <point x="412" y="440" type="line"/>
      <point x="440" y="780" type="line"/>
    </contour>
  </outline>
</glyph>
<glyph name="numbersign" format="1">
  <advance width="600"/>
  <unicode hex="0023"/>
  <outline>
    <contour>
      <point x="60" y="440" type="line"/>
      <point x="118" y="440" type="line"/>
      <point x="101" y="340" type="line"/>
      <point x="20" y="340" type="line"/>
      <point x="20" y="180" type="line"/>
      <point x="74" y="180" type="line"/>
      <point x="44" y="0" type="line"/>
      <point x="204" y="0" type="line"/>
      <point x="234" y="180" type="line"/>
      <point x="294" y="180" type="line"/>
      <point x="264" y="0" type="line"/>
      <point x="424" y="0" type="line"/>
      <point x="454" y="180" type="line"/>
      <point x="540" y="180" type="line"/>
      <point x="540" y="340" type="line"/>
      <point x="481" y="340" type="line"/>
      <point x="498" y="440" type="line"/>
      <point x="580" y="440" type="line"/>
      <point x="580" y="600" type="line"/>
      <point x="525" y="600" type="line"/>
      <point x="556" y="780" type="line"/>
      <point x="396" y="780" type="line"/>
      <point x="365" y="600" type="line"/>
      <point x="305" y="600" type="line"/>
      <point x="336" y="780" type="line"/>
      <point x="176" y="780" type="line"/>
      <point x="145" y="600" type="line"/>
      <point x="60" y="600" type="line"/>
    </contour>
    <contour>
      <point x="278" y="440" type="line"/>
      <point x="338" y="440" type="line"/>
      <point x="321" y="340" type="line"/>
      <point x="261" y="340" type="line"/>
    </contour>
  </outline>
</glyph>
<glyph name="dollar" format="1">
  <advance width="600"/>
  <unicode hex="0024"/>
  <outline>
    <contour>
      <point x="301" y="200" type="line" smooth="yes"/>
      <point x="248" y="200"/>
      <point x="224" y="228"/>
      <point x="224" y="283" type="curve"/>
      <point x="37" y="283" type="line"/>
      <point x="37" y="278" type="line" smooth="yes"/>
      <point x="37" y="171"/>
      <point x="80" y="104"/>
      <point x="157" y="72" type="curve"/>
      <point x="126" y="-60" type="line"/>
      <point x="266" y="-60" type="line"/>
      <point x="292" y="49" type="line"/>
      <point x="300" y="49" type="line" smooth="yes"/>
      <point x="475" y="49"/>
      <point x="564" y="127"/>
      <point x="564" y="262" type="curve" smooth="yes"/>
      <point x="564" y="273" type="line" smooth="yes"/>
      <point x="564" y="399"/>
      <point x="488" y="438"/>
      <point x="348" y="459" type="curve" smooth="yes"/>
      <point x="253" y="473"/>
      <point x="229" y="480"/>
      <point x="229" y="525" type="curve" smooth="yes"/>
      <point x="229" y="555"/>
      <point x="246" y="581"/>
      <point x="294" y="581" type="curve" smooth="yes"/>
      <point x="299" y="581" type="line" smooth="yes"/>
      <point x="356" y="581"/>
      <point x="373" y="540"/>
      <point x="373" y="490" type="curve"/>
      <point x="558" y="490" type="line"/>
      <point x="558" y="503" type="line" smooth="yes"/>
      <point x="558" y="603"/>
      <point x="523" y="670"/>
      <point x="449" y="705" type="curve"/>
      <point x="481" y="840" type="line"/>
      <point x="341" y="840" type="line"/>
      <point x="315" y="732" type="line"/>
      <point x="300" y="732" type="line" smooth="yes"/>
      <point x="143" y="732"/>
      <point x="43" y="660"/>
      <point x="43" y="522" type="curve" smooth="yes"/>
      <point x="43" y="511" type="line" smooth="yes"/>
      <point x="43" y="386"/>
      <point x="117" y="348"/>
      <point x="252" y="325" type="curve" smooth="yes"/>
      <point x="351" y="308"/>
      <point x="376" y="297"/>
      <point x="376" y="251" type="curve" smooth="yes"/>
      <point x="376" y="228"/>
      <point x="354" y="200"/>
      <point x="306" y="200" type="curve" smooth="yes"/>
    </contour>
  </outline>
</glyph>
<glyph name="percent" format="1">
  <advance width="1000"/>
  <unicode hex="0025"/>
  <outline>
    <contour>
      <point x="417" y="0" type="line"/>
      <point x="709" y="700" type="line"/>
      <point x="709" y="784" type="line"/>
      <point x="676" y="773"/>
      <point x="584" y="752"/>
      <point x="490" y="752" type="curve" smooth="yes"/>
      <point x="400" y="752"/>
      <point x="360" y="758"/>
      <point x="303" y="780" type="curve" smooth="yes"/>
      <point x="278" y="789"/>
      <point x="250" y="794"/>
      <point x="220" y="794" type="curve" smooth="yes"/>
      <point x="105" y="794"/>
      <point x="24" y="725"/>
      <point x="24" y="600" type="curve" smooth="yes"/>
      <point x="24" y="588" type="line" smooth="yes"/>
      <point x="24" y="463"/>
      <point x="105" y="394"/>
      <point x="220" y="394" type="curve" smooth="yes"/>
      <point x="335" y="394"/>
      <point x="416" y="463"/>
      <point x="416" y="588" type="curve" smooth="yes"/>
      <point x="416" y="608" type="line"/>
      <point x="428" y="607"/>
      <point x="441" y="606"/>
      <point x="455" y="606" type="curve" smooth="yes"/>
      <point x="477" y="606"/>
      <point x="495" y="608"/>
      <point x="512" y="611" type="curve"/>
      <point x="257" y="0" type="line"/>
    </contour>
    <contour>
      <point x="584" y="192" type="curve" smooth="yes"/>
      <point x="584" y="180" type="line" smooth="yes"/>
      <point x="584" y="55"/>
      <point x="665" y="-14"/>
      <point x="780" y="-14" type="curve" smooth="yes"/>
      <point x="895" y="-14"/>
      <point x="976" y="55"/>
      <point x="976" y="180" type="curve" smooth="yes"/>
      <point x="976" y="192" type="line" smooth="yes"/>
      <point x="976" y="317"/>
      <point x="895" y="386"/>
      <point x="780" y="386" type="curve" smooth="yes"/>
      <point x="665" y="386"/>
      <point x="584" y="317"/>
    </contour>
    <contour>
      <point x="719" y="180" type="curve" smooth="yes"/>
      <point x="719" y="192" type="line" smooth="yes"/>
      <point x="719" y="225"/>
      <point x="740" y="250"/>
      <point x="777" y="250" type="curve" smooth="yes"/>
      <point x="783" y="250" type="line" smooth="yes"/>
      <point x="820" y="250"/>
      <point x="841" y="225"/>
      <point x="841" y="192" type="curve" smooth="yes"/>
      <point x="841" y="180" type="line" smooth="yes"/>
      <point x="841" y="147"/>
      <point x="820" y="122"/>
      <point x="783" y="122" type="curve" smooth="yes"/>
      <point x="777" y="122" type="line" smooth="yes"/>
      <point x="740" y="122"/>
      <point x="719" y="147"/>
    </contour>
    <contour>
      <point x="281" y="600" type="curve" smooth="yes"/>
      <point x="281" y="588" type="line" smooth="yes"/>
      <point x="281" y="555"/>
      <point x="260" y="530"/>
      <point x="223" y="530" type="curve" smooth="yes"/>
      <point x="217" y="530" type="line" smooth="yes"/>
      <point x="180" y="530"/>
      <point x="159" y="555"/>
      <point x="159" y="588" type="curve" smooth="yes"/>
      <point x="159" y="600" type="line" smooth="yes"/>
      <point x="159" y="633"/>
      <point x="180" y="658"/>
      <point x="217" y="658" type="curve" smooth="yes"/>
      <point x="223" y="658" type="line" smooth="yes"/>
      <point x="260" y="658"/>
      <point x="281" y="633"/>
    </contour>
  </outline>
</glyph>
<glyph name="ampersand" format="1">
  <advance width="700"/>
  <unicode hex="0026"/>
  <outline>
    <contour>
      <point x="246" y="-14" type="curve" smooth="yes"/>
      <point x="323" y="-14"/>
      <point x="388" y="2"/>
      <point x="444" y="28" type="curve"/>
      <point x="467" y="0" type="line"/>
      <point x="688" y="0" type="line"/>
      <point x="580" y="132" type="line"/>
      <point x="649" y="214"/>
      <point x="681" y="313"/>
      <point x="681" y="390" type="curve" smooth="yes"/>
      <point x="681" y="395" type="line"/>
      <point x="486" y="395" type="line"/>
      <point x="486" y="393" type="line" smooth="yes"/>
      <point x="486" y="356"/>
      <point x="478" y="314"/>
      <point x="462" y="276" type="curve"/>
      <point x="366" y="394" type="line"/>
      <point x="441" y="434"/>
      <point x="514" y="485"/>
      <point x="514" y="598" type="curve" smooth="yes"/>
      <point x="514" y="609" type="line" smooth="yes"/>
      <point x="514" y="707"/>
      <point x="452" y="794"/>
      <point x="289" y="794" type="curve" smooth="yes"/>
      <point x="126" y="794"/>
      <point x="64" y="707"/>
      <point x="64" y="609" type="curve" smooth="yes"/>
      <point x="64" y="598" type="line" smooth="yes"/>
      <point x="64" y="524"/>
      <point x="83" y="479"/>
      <point x="118" y="430" type="curve"/>
      <point x="60" y="388"/>
      <point x="12" y="327"/>
      <point x="12" y="224" type="curve" smooth="yes"/>
      <point x="12" y="213" type="line" smooth="yes"/>
      <point x="12" y="79"/>
      <point x="96" y="-14"/>
    </contour>
    <contour>
      <point x="278" y="144" type="line" smooth="yes"/>
      <point x="228" y="144"/>
      <point x="201" y="175"/>
      <point x="201" y="231" type="curve" smooth="yes"/>
      <point x="201" y="236" type="line" smooth="yes"/>
      <point x="201" y="262"/>
      <point x="209" y="282"/>
      <point x="222" y="300" type="curve"/>
      <point x="342" y="153" type="line"/>
      <point x="324" y="147"/>
      <point x="304" y="144"/>
      <point x="283" y="144" type="curve" smooth="yes"/>
    </contour>
    <contour>
      <point x="250" y="602" type="line" smooth="yes"/>
      <point x="250" y="627"/>
      <point x="264" y="643"/>
      <point x="286" y="643" type="curve" smooth="yes"/>
      <point x="292" y="643" type="line" smooth="yes"/>
      <point x="314" y="643"/>
      <point x="328" y="627"/>
      <point x="328" y="602" type="curve" smooth="yes"/>
      <point x="328" y="597" type="line" smooth="yes"/>
      <point x="328" y="563"/>
      <point x="305" y="540"/>
      <point x="271" y="518" type="curve"/>
      <point x="258" y="543"/>
      <point x="250" y="570"/>
      <point x="250" y="597" type="curve" smooth="yes"/>
    </contour>
  </outline>
</glyph>
<glyph name="quotesingle" format="1">
  <advance width="280"/>
  <unicode hex="0027"/>
  <outline>
    <contour>
      <point x="40" y="780" type="line"/>
      <point x="68" y="440" type="line"/>
      <point x="212" y="440" type="line"/>
      <point x="240" y="780" type="line"/>
    </contour>
  </outline>
</glyph>
<glyph name="parenleft" format="1">
  <advance width="380"/>
  <unicode hex="0028"/>
  <outline>
    <contour>
      <point x="35" y="350" type="line" smooth="yes"/>
      <point x="35" y="120"/>
      <point x="95" y="-5"/>
      <point x="175" y="-120" type="curve"/>
      <point x="366" y="-120" type="line"/>
      <point x="285" y="5"/>
      <point x="220" y="150"/>
      <point x="220" y="350" type="curve" smooth="yes"/>
      <point x="220" y="370" type="line" smooth="yes"/>
      <point x="220" y="570"/>
      <point x="285" y="715"/>
      <point x="366" y="840" type="curve"/>
      <point x="175" y="840" type="line"/>
      <point x="95" y="725"/>
      <point x="35" y="600"/>
      <point x="35" y="370" type="curve" smooth="yes"/>
    </contour>
  </outline>
</glyph>
<glyph name="parenright" format="1">
  <advance width="380"/>
  <unicode hex="0029"/>
  <outline>
    <contour>
      <point x="345" y="370" type="line" smooth="yes"/>
      <point x="345" y="600"/>
      <point x="285" y="725"/>
      <point x="205" y="840" type="curve"/>
      <point x="14" y="840" type="line"/>
      <point x="95" y="715"/>
      <point x="160" y="570"/>
      <point x="160" y="370" type="curve" smooth="yes"/>
      <point x="160" y="350" type="line" smooth="yes"/>
      <point x="160" y="150"/>
      <point x="95" y="5"/>
      <point x="14" y="-120" type="curve"/>
      <point x="205" y="-120" type="line"/>
      <point x="285" y="-5"/>
      <point x="345" y="120"/>
      <point x="345" y="350" type="curve" smooth="yes"/>
    </contour>
  </outline>
</glyph>
<glyph name="asterisk" format="1">
  <advance width="420"/>
  <unicode hex="002A"/>
  <outline>
    <contour>
      <point x="160" y="800" type="line"/>
      <point x="165" y="670" type="line"/>
      <point x="255" y="670" type="line"/>
      <point x="260" y="800" type="line"/>
    </contour>
    <contour>
      <point x="3" y="613" type="line"/>
      <point x="128" y="577" type="line"/>
      <point x="156" y="663" type="line"/>
      <point x="34" y="708" type="line"/>
    </contour>
    <contour>
      <point x="132" y="404" type="line"/>
      <point x="205" y="512" type="line"/>
      <point x="132" y="565" type="line"/>
      <point x="51" y="463" type="line"/>
    </contour>
    <contour>
      <point x="386" y="708" type="line"/>
      <point x="264" y="663" type="line"/>
      <point x="292" y="577" type="line"/>
      <point x="417" y="613" type="line"/>
    </contour>
    <contour>
      <point x="369" y="463" type="line"/>
      <point x="288" y="565" type="line"/>
      <point x="215" y="512" type="line"/>
      <point x="288" y="404" type="line"/>
    </contour>
  </outline>
</glyph>
<glyph name="plus" format="1">
  <advance width="600"/>
  <unicode hex="002B"/>
  <outline>
    <contour>
      <point x="218" y="650" type="line"/>
      <point x="218" y="472" type="line"/>
      <point x="40" y="472" type="line"/>
      <point x="40" y="308" type="line"/>
      <point x="218" y="308" type="line"/>
      <point x="218" y="130" type="line"/>
      <point x="382" y="130" type="line"/>
      <point x="382" y="308" type="line"/>
      <point x="560" y="308" type="line"/>
      <point x="560" y="472" type="line"/>
      <point x="382" y="472" type="line"/>
      <point x="382" y="650" type="line"/>
    </contour>
  </outline>
</glyph>
<glyph name="slash" format="1">
  <advance width="440"/>
  <unicode hex="002F"/>
  <outline>
    <contour>
      <point x="425" y="840" type="line"/>
      <point x="245" y="840" type="line"/>
      <point x="15" y="-120" type="line"/>
      <point x="195" y="-120" type="line"/>
    </contour>
  </outline>
</glyph>
<glyph name="zero" format="1">
  <advance width="600"/>
  <unicode hex="0030"/>
  <outline>
    <contour>
      <point x="560" y="220" type="curve" smooth="yes"/>
      <point x="560" y="560" type="line" smooth="yes"/>
      <point x="560" y="695"/>
      <point x="470" y="794"/>
      <point x="300" y="794" type="curve" smooth="yes"/>
      <point x="130" y="794"/>
      <point x="40" y="695"/>
      <point x="40" y="560" type="curve" smooth="yes"/>
      <point x="40" y="220" type="line" smooth="yes"/>
      <point x="40" y="85"/>
      <point x="130" y="-14"/>
      <point x="300" y="-14" type="curve" smooth="yes"/>
      <point x="470" y="-14"/>
      <point x="560" y="85"/>
    </contour>
    <contour>
      <point x="374" y="560" type="curve" smooth="yes"/>
      <point x="374" y="220" type="line" smooth="yes"/>
      <point x="374" y="178"/>
      <point x="349" y="148"/>
      <point x="302" y="148" type="curve" smooth="yes"/>
      <point x="298" y="148" type="line" smooth="yes"/>
      <point x="251" y="148"/>
      <point x="226" y="178"/>
      <point x="226" y="220" type="curve" smooth="yes"/>
      <point x="226" y="560" type="line" smooth="yes"/>
      <point x="226" y="602"/>
      <point x="251" y="632"/>
      <point x="298" y="632" type="curve" smooth="yes"/>
      <point x="302" y="632" type="line" smooth="yes"/>
      <point x="349" y="632"/>
      <point x="374" y="602"/>
    </contour>
  </outline>
</glyph>
<glyph name="one" format="1">
  <advance width="600"/>
  <unicode hex="0031"/>
  <outline>
    <contour>
      <point x="565" y="0" type="line"/>
      <point x="565" y="162" type="line"/>
      <point x="403" y="162" type="line"/>
      <point x="403" y="780" type="line"/>
      <point x="263" y="780" type="line"/>
      <point x="20" y="615" type="line"/>
      <point x="111" y="481" type="line"/>
      <point x="217" y="552" type="line"/>
      <point x="217" y="162" type="line"/>
      <point x="55" y="162" type="line"/>
      <point x="55" y="0" type="line"/>
    </contour>
  </outline>
</glyph>
<glyph name="two" format="1">
  <advance width="600"/>
  <unicode hex="0032"/>
  <outline>
    <contour>
      <point x="370" y="162" type="line"/>
      <point x="300" y="161" type="line"/>
      <point x="473" y="353" type="line" smooth="yes"/>
      <point x="528" y="414"/>
      <point x="560" y="460"/>
      <point x="560" y="555" type="curve" smooth="yes"/>
      <point x="560" y="575" type="line" smooth="yes"/>
      <point x="560" y="671"/>
      <point x="499" y="794"/>
      <point x="300" y="794" type="curve" smooth="yes"/>
      <point x="124" y="794"/>
      <point x="40" y="710"/>
      <point x="40" y="539" type="curve" smooth="yes"/>
      <point x="40" y="520" type="line"/>
      <point x="226" y="520" type="line"/>
      <point x="226" y="605"/>
      <point x="256" y="632"/>
      <point x="295" y="632" type="curve" smooth="yes"/>
      <point x="305" y="632" type="line" smooth="yes"/>
      <point x="344" y="632"/>
      <point x="374" y="604"/>
      <point x="374" y="540" type="curve" smooth="yes"/>
      <point x="374" y="530" type="line" smooth="yes"/>
      <point x="374" y="491"/>
      <point x="358" y="470"/>
      <point x="330" y="440" type="curve" smooth="yes"/>
      <point x="40" y="117" type="line"/>
      <point x="40" y="0" type="line"/>
      <point x="560" y="0" type="line"/>
      <point x="560" y="162" type="line"/>
    </contour>
  </outline>
</glyph>
<glyph name="three" format="1">
  <advance width="600"/>
  <unicode hex="0033"/>
  <outline>
    <contour>
      <point x="221" y="250" type="curve"/>
      <point x="35" y="250" type="line"/>
      <point x="35" y="236" type="line" smooth="yes"/>
      <point x="35" y="75"/>
      <point x="124" y="-14"/>
      <point x="300" y="-14" type="curve" smooth="yes"/>
      <point x="499" y="-14"/>
      <point x="565" y="120"/>
      <point x="565" y="211" type="curve" smooth="yes"/>
      <point x="565" y="231" type="line" smooth="yes"/>
      <point x="565" y="314"/>
      <point x="525" y="368"/>
      <point x="476" y="399" type="curve"/>
      <point x="523" y="431"/>
      <point x="560" y="484"/>
      <point x="560" y="565" type="curve" smooth="yes"/>
      <point x="560" y="585" type="line" smooth="yes"/>
      <point x="560" y="671"/>
      <point x="499" y="794"/>
      <point x="300" y="794" type="curve" smooth="yes"/>
      <point x="124" y="794"/>
      <point x="40" y="710"/>
      <point x="40" y="539" type="curve" smooth="yes"/>
      <point x="40" y="520" type="line"/>
      <point x="226" y="520" type="line"/>
      <point x="226" y="605"/>
      <point x="256" y="632"/>
      <point x="295" y="632" type="curve" smooth="yes"/>
      <point x="305" y="632" type="line" smooth="yes"/>
      <point x="344" y="632"/>
      <point x="374" y="604"/>
      <point x="374" y="563" type="curve" smooth="yes"/>
      <point x="374" y="553" type="line" smooth="yes"/>
      <point x="374" y="504"/>
      <point x="350" y="479"/>
      <point x="302" y="479" type="curve" smooth="yes"/>
      <point x="200" y="479" type="line"/>
      <point x="200" y="317" type="line"/>
      <point x="305" y="317" type="line" smooth="yes"/>
      <point x="353" y="317"/>
      <point x="379" y="292"/>
      <point x="379" y="243" type="curve" smooth="yes"/>
      <point x="379" y="233" type="line" smooth="yes"/>
      <point x="379" y="173"/>
      <point x="344" y="148"/>
      <point x="305" y="148" type="curve" smooth="yes"/>
      <point x="295" y="148" type="line" smooth="yes"/>
      <point x="256" y="148"/>
      <point x="221" y="170"/>
    </contour>
  </outline>
</glyph>
<glyph name="four" format="1">
  <advance width="600"/>
  <unicode hex="0034"/>
  <outline>
    <contour>
      <point x="503" y="0" type="line"/>
      <point x="503" y="159" type="line"/>
      <point x="575" y="159" type="line"/>
      <point x="575" y="321" type="line"/>
      <point x="503" y="321" type="line"/>
      <point x="503" y="780" type="line"/>
      <point x="328" y="780" type="line"/>
      <point x="25" y="290" type="line"/>
      <point x="25" y="159" type="line"/>
      <point x="317" y="159" type="line"/>
      <point x="317" y="0" type="line"/>
    </contour>
    <contour>
      <point x="319" y="486" type="line"/>
      <point x="317" y="442" type="line"/>
      <point x="317" y="321" type="line"/>
      <point x="256" y="321" type="line"/>
      <point x="215" y="319" type="line"/>
    </contour>
  </outline>
</glyph>
<glyph name="five" format="1">
  <advance width="600"/>
  <unicode hex="0035"/>
  <outline>
    <contour>
      <point x="35" y="250" type="line"/>
      <point x="35" y="236" type="line" smooth="yes"/>
      <point x="35" y="75"/>
      <point x="124" y="-14"/>
      <point x="300" y="-14" type="curve" smooth="yes"/>
      <point x="479" y="-14"/>
      <point x="565" y="87"/>
      <point x="565" y="238" type="curve" smooth="yes"/>
      <point x="565" y="258" type="line" smooth="yes"/>
      <point x="565" y="409"/>
      <point x="479" y="510"/>
      <point x="310" y="510" type="curve" smooth="yes"/>
      <point x="274" y="510"/>
      <point x="239" y="503"/>
      <point x="209" y="492" type="curve"/>
      <point x="214" y="618" type="line"/>
      <point x="555" y="618" type="line"/>
      <point x="555" y="780" type="line"/>
      <point x="59" y="780" type="line"/>
      <point x="41" y="355" type="line"/>
      <point x="201" y="300" type="line"/>
      <point x="219" y="333"/>
      <point x="258" y="348"/>
      <point x="290" y="348" type="curve" smooth="yes"/>
      <point x="295" y="348" type="line" smooth="yes"/>
      <point x="344" y="348"/>
      <point x="379" y="323"/>
      <point x="379" y="253" type="curve" smooth="yes"/>
      <point x="379" y="243" type="line" smooth="yes"/>
      <point x="379" y="173"/>
      <point x="344" y="148"/>
      <point x="305" y="148" type="curve" smooth="yes"/>
      <point x="295" y="148" type="line" smooth="yes"/>
      <point x="256" y="148"/>
      <point x="221" y="170"/>
      <point x="221" y="250" type="curve"/>
    </contour>
  </outline>
</glyph>
<glyph name="six" format="1">
  <advance width="600"/>
  <unicode hex="0036"/>
  <outline>
    <contour>
      <point x="525" y="794" type="line"/>
      <point x="358" y="794"/>
      <point x="231" y="765"/>
      <point x="145" y="650" type="curve" smooth="yes"/>
      <point x="62" y="539"/>
      <point x="35" y="414"/>
      <point x="35" y="290" type="curve" smooth="yes"/>
      <point x="35" y="276" type="line" smooth="yes"/>
      <point x="35" y="105"/>
      <point x="124" y="-14"/>
      <point x="300" y="-14" type="curve" smooth="yes"/>
      <point x="479" y="-14"/>
      <point x="565" y="85"/>
      <point x="565" y="236" type="curve" smooth="yes"/>
      <point x="565" y="246" type="line" smooth="yes"/>
      <point x="565" y="397"/>
      <point x="481" y="492"/>
      <point x="351" y="492" type="curve" smooth="yes"/>
      <point x="308" y="492"/>
      <point x="273" y="481"/>
      <point x="244" y="464" type="curve"/>
      <point x="254" y="497"/>
      <point x="269" y="524"/>
      <point x="288" y="547" type="curve" smooth="yes"/>
      <point x="337" y="605"/>
      <point x="406" y="629"/>
      <point x="525" y="630" type="curve"/>
    </contour>
    <contour>
      <point x="302" y="331" type="curve" smooth="yes"/>
      <point x="307" y="331" type="line" smooth="yes"/>
      <point x="347" y="331"/>
      <point x="379" y="310"/>
      <point x="379" y="251" type="curve" smooth="yes"/>
      <point x="379" y="231" type="line" smooth="yes"/>
      <point x="379" y="177"/>
      <point x="342" y="148"/>
      <point x="303" y="148" type="curve" smooth="yes"/>
      <point x="297" y="148" type="line" smooth="yes"/>
      <point x="255" y="148"/>
      <point x="221" y="185"/>
      <point x="221" y="260" type="curve" smooth="yes"/>
      <point x="221" y="286" type="line"/>
      <point x="241" y="318"/>
      <point x="275" y="331"/>
    </contour>
  </outline>
</glyph>
<glyph name="seven" format="1">
  <advance width="600"/>
  <unicode hex="0037"/>
  <outline>
    <contour>
      <point x="30" y="500" type="line"/>
      <point x="192" y="500" type="line"/>
      <point x="192" y="618" type="line"/>
      <point x="273" y="618" type="line"/>
      <point x="363" y="620" type="line"/>
      <point x="101" y="0" type="line"/>
      <point x="300" y="0" type="line"/>
      <point x="570" y="665" type="line"/>
      <point x="570" y="780" type="line"/>
      <point x="30" y="780" type="line"/>
    </contour>
  </outline>
</glyph>
<glyph name="nine" format="1">
  <advance width="600"/>
  <unicode hex="0039"/>
  <outline>
    <contour>
      <point x="75" y="-14" type="line"/>
      <point x="242" y="-14"/>
      <point x="369" y="15"/>
      <point x="455" y="130" type="curve" smooth="yes"/>
      <point x="538" y="241"/>
      <point x="565" y="366"/>
      <point x="565" y="490" type="curve" smooth="yes"/>
      <point x="565" y="504" type="line" smooth="yes"/>
      <point x="565" y="675"/>
      <point x="476" y="794"/>
      <point x="300" y="794" type="curve" smooth="yes"/>
      <point x="121" y="794"/>
      <point x="35" y="695"/>
      <point x="35" y="544" type="curve" smooth="yes"/>
      <point x="35" y="534" type="line" smooth="yes"/>
      <point x="35" y="383"/>
      <point x="119" y="288"/>
      <point x="249" y="288" type="curve" smooth="yes"/>
      <point x="291" y="288"/>
      <point x="326" y="298"/>
      <point x="356" y="315" type="curve"/>
      <point x="345" y="283"/>
      <point x="331" y="255"/>
      <point x="312" y="233" type="curve" smooth="yes"/>
      <point x="263" y="175"/>
      <point x="194" y="151"/>
      <point x="75" y="150" type="curve"/>
    </contour>
    <contour>
      <point x="298" y="449" type="curve" smooth="yes"/>
      <point x="293" y="449" type="line" smooth="yes"/>
      <point x="253" y="449"/>
      <point x="221" y="470"/>
      <point x="221" y="529" type="curve" smooth="yes"/>
      <point x="221" y="549" type="line" smooth="yes"/>
      <point x="221" y="603"/>
      <point x="258" y="632"/>
      <point x="297" y="632" type="curve" smooth="yes"/>
      <point x="303" y="632" type="line" smooth="yes"/>
      <point x="345" y="632"/>
      <point x="379" y="595"/>
      <point x="379" y="520" type="curve" smooth="yes"/>
      <point x="379" y="493" type="line"/>
      <point x="359" y="462"/>
      <point x="325" y="449"/>
    </contour>
  </outline>
</glyph>
<glyph name="colon" format="1">
  <advance width="280"/>
  <unicode hex="003A"/>
  <outline>
    <contour>
      <point x="235" y="190" type="line"/>
      <point x="45" y="190" type="line"/>
      <point x="45" y="0" type="line"/>
      <point x="235" y="0" type="line"/>
    </contour>
    <contour>
      <point x="235" y="485" type="line"/>
      <point x="45" y="485" type="line"/>
      <point x="45" y="295" type="line"/>
      <point x="235" y="295" type="line"/>
    </contour>
  </outline>
</glyph>
<glyph name="less" format="1">
  <advance width="600"/>
  <unicode hex="003C"/>
  <outline>
    <contour>
      <point x="40" y="480" type="line"/>
      <point x="40" y="300" type="line"/>
      <point x="560" y="104" type="line"/>
      <point x="560" y="286" type="line"/>
      <point x="261" y="390" type="line"/>
      <point x="560" y="494" type="line"/>
      <point x="560" y="676" type="line"/>
    </contour>
  </outline>
</glyph>
<glyph name="equal" format="1">
  <advance width="600"/>
  <unicode hex="003D"/>
  <outline>
    <contour>
      <point x="40" y="418" type="line"/>
      <point x="560" y="418" type="line"/>
      <point x="560" y="582" type="line"/>
      <point x="40" y="582" type="line"/>
    </contour>
    <contour>
      <point x="40" y="198" type="line"/>
      <point x="560" y="198" type="line"/>
      <point x="560" y="362" type="line"/>
      <point x="40" y="362" type="line"/>
    </contour>
  </outline>
</glyph>
<glyph name="greater" format="1">
  <advance width="600"/>
  <unicode hex="003E"/>
  <outline>
    <contour>
      <point x="560" y="480" type="line"/>
      <point x="40" y="676" type="line"/>
      <point x="40" y="494" type="line"/>
      <point x="339" y="390" type="line"/>
      <point x="40" y="286" type="line"/>
      <point x="40" y="104" type="line"/>
      <point x="560" y="300" type="line"/>
    </contour>
  </outline>
</glyph>
<glyph name="question" format="1">
  <advance width="510"/>
  <unicode hex="003F"/>
  <outline>
    <contour>
      <point x="260" y="632" type="curve" smooth="yes"/>
      <point x="296" y="632"/>
      <point x="309" y="612"/>
      <point x="309" y="580" type="curve" smooth="yes"/>
      <point x="309" y="507"/>
      <point x="168" y="426"/>
      <point x="185" y="240" type="curve"/>
      <point x="315" y="240" type="line"/>
      <point x="332" y="425"/>
      <point x="495" y="393"/>
      <point x="495" y="595" type="curve" smooth="yes"/>
      <point x="495" y="687"/>
      <point x="447" y="794"/>
      <point x="260" y="794" type="curve" smooth="yes"/>
      <point x="84" y="794"/>
      <point x="20" y="710"/>
      <point x="20" y="539" type="curve" smooth="yes"/>
      <point x="20" y="520" type="line"/>
      <point x="206" y="520" type="line"/>
      <point x="206" y="605"/>
      <point x="221" y="632"/>
    </contour>
    <contour>
      <point x="345" y="190" type="line"/>
      <point x="155" y="190" type="line"/>
      <point x="155" y="0" type="line"/>
      <point x="345" y="0" type="line"/>
    </contour>
  </outline>
</glyph>
<glyph name="at" format="1">
  <advance width="1000"/>
  <unicode hex="0040"/>
  <outline>
    <contour>
      <point x="517" y="-96" type="line" smooth="yes"/>
      <point x="298" y="-96"/>
      <point x="145" y="22"/>
      <point x="145" y="270" type="curve" smooth="yes"/>
      <point x="145" y="310" type="line" smooth="yes"/>
      <point x="145" y="558"/>
      <point x="300" y="676"/>
      <point x="512" y="676" type="curve" smooth="yes"/>
      <point x="518" y="676" type="line" smooth="yes"/>
      <point x="680" y="676"/>
      <point x="853" y="629"/>
      <point x="853" y="401" type="curve" smooth="yes"/>
      <point x="853" y="371" type="line" smooth="yes"/>
      <point x="853" y="233"/>
      <point x="823" y="185"/>
      <point x="712" y="178" type="curve"/>
      <point x="712" y="396" type="line"/>
      <point x="722" y="530" type="line"/>
      <point x="577" y="530" type="line"/>
      <point x="566" y="474" type="line"/>
      <point x="539" y="515"/>
      <point x="497" y="544"/>
      <point x="432" y="544" type="curve" smooth="yes"/>
      <point x="313" y="544"/>
      <point x="250" y="451"/>
      <point x="250" y="313" type="curve" smooth="yes"/>
      <point x="250" y="277" type="line" smooth="yes"/>
      <point x="250" y="139"/>
      <point x="313" y="46"/>
      <point x="432" y="46" type="curve" smooth="yes"/>
      <point x="497" y="46"/>
      <point x="539" y="74"/>
      <point x="566" y="115" type="curve"/>
      <point x="577" y="60" type="line"/>
      <point x="700" y="60" type="line" smooth="yes"/>
      <point x="855" y="60"/>
      <point x="975" y="131"/>
      <point x="975" y="371" type="curve" smooth="yes"/>
      <point x="975" y="401" type="line" smooth="yes"/>
      <point x="975" y="686"/>
      <point x="760" y="794"/>
      <point x="515" y="794" type="curve" smooth="yes"/>
      <point x="235" y="794"/>
      <point x="25" y="625"/>
      <point x="25" y="310" type="curve" smooth="yes"/>
      <point x="25" y="270" type="line" smooth="yes"/>
      <point x="25" y="-45"/>
      <point x="233" y="-214"/>
      <point x="520" y="-214" type="curve" smooth="yes"/>
      <point x="637" y="-214"/>
      <point x="776" y="-192"/>
      <point x="921" y="-77" type="curve"/>
      <point x="853" y="15" type="line"/>
      <point x="755" y="-57"/>
      <point x="644" y="-96"/>
      <point x="523" y="-96" type="curve" smooth="yes"/>
    </contour>
    <contour>
      <point x="483" y="187" type="curve" smooth="yes"/>
      <point x="438" y="187"/>
      <point x="418" y="219"/>
      <point x="418" y="277" type="curve" smooth="yes"/>
      <point x="418" y="313" type="line" smooth="yes"/>
      <point x="418" y="371"/>
      <point x="438" y="403"/>
      <point x="483" y="403" type="curve" smooth="yes"/>
      <point x="519" y="403"/>
      <point x="543" y="380"/>
      <point x="552" y="366" type="curve"/>
      <point x="552" y="224" type="line"/>
      <point x="543" y="210"/>
      <point x="519" y="187"/>
    </contour>
  </outline>
</glyph>
<glyph name="A" format="1">
  <advance width="650"/>
  <unicode hex="0041"/>
  <outline>
    <contour>
      <point x="195" y="780" type="line"/>
      <point x="9" y="0" type="line"/>
      <point x="213" y="0" type="line"/>
      <point x="244" y="158" type="line"/>
      <point x="406" y="158" type="line"/>
      <point x="438" y="0" type="line"/>
      <point x="641" y="0" type="line"/>
      <point x="455" y="780" type="line"/>
    </contour>
    <contour>
      <point x="325" y="560" type="line"/>
      <point x="373" y="322" type="line"/>
      <point x="277" y="322" type="line"/>
    </contour>
  </outline>
</glyph>
<glyph name="B" format="1">
  <advance width="645"/>
  <unicode hex="0042"/>
  <outline>
    <contour>
      <point x="50" y="780" type="line"/>
      <point x="50" y="0" type="line"/>
      <point x="330" y="0" type="line" smooth="yes"/>
      <point x="454" y="0"/>
      <point x="600" y="27"/>
      <point x="600" y="230" type="curve" smooth="yes"/>
      <point x="600" y="250" type="line" smooth="yes"/>
      <point x="600" y="329"/>
      <point x="565" y="376"/>
      <point x="515" y="403" type="curve"/>
      <point x="554" y="430"/>
      <point x="580" y="472"/>
      <point x="580" y="538" type="curve" smooth="yes"/>
      <point x="580" y="558" type="line" smooth="yes"/>
      <point x="580" y="754"/>
      <point x="444" y="780"/>
      <point x="325" y="780" type="curve" smooth="yes"/>
    </contour>
    <contour>
      <point x="335" y="316" type="line" smooth="yes"/>
      <point x="366" y="316"/>
      <point x="408" y="305"/>
      <point x="408" y="244" type="curve" smooth="yes"/>
      <point x="408" y="236" type="line" smooth="yes"/>
      <point x="408" y="175"/>
      <point x="366" y="164"/>
      <point x="335" y="164" type="curve" smooth="yes"/>
      <point x="240" y="164" type="line"/>
      <point x="240" y="316" type="line"/>
    </contour>
    <contour>
      <point x="322" y="616" type="line" smooth="yes"/>
      <point x="350" y="616"/>
      <point x="388" y="608"/>
      <point x="388" y="554" type="curve" smooth="yes"/>
      <point x="388" y="542" type="line" smooth="yes"/>
      <point x="388" y="488"/>
      <point x="350" y="480"/>
      <point x="322" y="480" type="curve" smooth="yes"/>
      <point x="240" y="480" type="line"/>
      <point x="240" y="616" type="line"/>
    </contour>
  </outline>
</glyph>
<glyph name="F" format="1">
  <advance width="560"/>
  <unicode hex="0046"/>
  <outline>
    <contour>
      <point x="50" y="780" type="line"/>
      <point x="50" y="0" type="line"/>
      <point x="240" y="0" type="line"/>
      <point x="240" y="316" type="line"/>
      <point x="490" y="316" type="line"/>
      <point x="490" y="480" type="line"/>
      <point x="240" y="480" type="line"/>
      <point x="240" y="616" type="line"/>
      <point x="540" y="616" type="line"/>
      <point x="540" y="780" type="line"/>
    </contour>
  </outline>
</glyph>
<glyph name="H" format="1">
  <advance width="670"/>
  <unicode hex="0048"/>
  <outline>
    <contour>
      <point x="430" y="780" type="line"/>
      <point x="430" y="480" type="line"/>
      <point x="240" y="480" type="line"/>
      <point x="240" y="780" type="line"/>
      <point x="50" y="780" type="line"/>
      <point x="50" y="0" type="line"/>
      <point x="240" y="0" type="line"/>
      <point x="240" y="316" type="line"/>
      <point x="430" y="316" type="line"/>
      <point x="430" y="0" type="line"/>
      <point x="620" y="0" type="line"/>
      <point x="620" y="780" type="line"/>
    </contour>
  </outline>
</glyph>
<glyph name="I" format="1">
  <advance width="300"/>
  <unicode hex="0049"/>
  <outline>
    <contour>
      <point x="245" y="780" type="line"/>
      <point x="55" y="780" type="line"/>
      <point x="55" y="0" type="line"/>
      <point x="245" y="0" type="line"/>
    </contour>
  </outline>
</glyph>
<glyph name="J" format="1">
  <advance width="550"/>
  <unicode hex="004A"/>
  <outline>
    <contour>
      <point x="315" y="780" type="line"/>
      <point x="315" y="260" type="line" smooth="yes"/>
      <point x="315" y="192"/>
      <point x="305" y="150"/>
      <point x="258" y="150" type="curve" smooth="yes"/>
      <point x="211" y="150"/>
      <point x="201" y="192"/>
      <point x="201" y="270" type="curve"/>
      <point x="21" y="270" type="line"/>
      <point x="21" y="240" type="line" smooth="yes"/>
      <point x="21" y="78"/>
      <point x="83" y="-14"/>
      <point x="263" y="-14" type="curve" smooth="yes"/>
      <point x="433" y="-14"/>
      <point x="505" y="78"/>
      <point x="505" y="238" type="curve" smooth="yes"/>
      <point x="505" y="780" type="line"/>
    </contour>
  </outline>
</glyph>
<glyph name="K" format="1">
  <advance width="645"/>
  <unicode hex="004B"/>
  <outline>
    <contour>
      <point x="240" y="780" type="line"/>
      <point x="50" y="780" type="line"/>
      <point x="50" y="0" type="line"/>
      <point x="240" y="0" type="line"/>
      <point x="240" y="220" type="line"/>
      <point x="293" y="297" type="line"/>
      <point x="420" y="0" type="line"/>
      <point x="630" y="0" type="line"/>
      <point x="416" y="473" type="line"/>
      <point x="630" y="780" type="line"/>
      <point x="400" y="780" type="line"/>
      <point x="240" y="512" type="line"/>
    </contour>
  </outline>
</glyph>
<glyph name="L" format="1">
  <advance width="530"/>
  <unicode hex="004C"/>
  <outline>
    <contour>
      <point x="515" y="0" type="line"/>
      <point x="515" y="164" type="line"/>
      <point x="240" y="164" type="line"/>
      <point x="240" y="780" type="line"/>
      <point x="50" y="780" type="line"/>
      <point x="50" y="0" type="line"/>
    </contour>
  </outline>
</glyph>
<glyph name="N" format="1">
  <advance width="690"/>
  <unicode hex="004E"/>
  <outline>
    <contour>
      <point x="640" y="780" type="line"/>
      <point x="460" y="780" type="line"/>
      <point x="460" y="500" type="line"/>
      <point x="465" y="350" type="line"/>
      <point x="250" y="780" type="line"/>
      <point x="50" y="780" type="line"/>
      <point x="50" y="0" type="line"/>
      <point x="230" y="0" type="line"/>
      <point x="230" y="280" type="line"/>
      <point x="225" y="430" type="line"/>
      <point x="440" y="0" type="line"/>
      <point x="640" y="0" type="line"/>
    </contour>
  </outline>
</glyph>
<glyph name="O" format="1">
  <advance width="680"/>
  <unicode hex="004F"/>
  <outline>
    <contour>
      <point x="340" y="-14" type="curve" smooth="yes"/>
      <point x="550" y="-14"/>
      <point x="647" y="100"/>
      <point x="647" y="370" type="curve" smooth="yes"/>
      <point x="647" y="410" type="line" smooth="yes"/>
      <point x="647" y="680"/>
      <point x="550" y="794"/>
      <point x="340" y="794" type="curve" smooth="yes"/>
      <point x="130" y="794"/>
      <point x="33" y="680"/>
      <point x="33" y="410" type="curve" smooth="yes"/>
      <point x="33" y="370" type="line" smooth="yes"/>
      <point x="33" y="100"/>
      <point x="130" y="-14"/>
    </contour>
    <contour>
      <point x="335" y="150" type="line" smooth="yes"/>
      <point x="245" y="150"/>
      <point x="226" y="235"/>
      <point x="226" y="370" type="curve" smooth="yes"/>
      <point x="226" y="410" type="line" smooth="yes"/>
      <point x="226" y="545"/>
      <point x="245" y="630"/>
      <point x="335" y="630" type="curve" smooth="yes"/>
      <point x="345" y="630" type="line" smooth="yes"/>
      <point x="435" y="630"/>
      <point x="454" y="545"/>
      <point x="454" y="410" type="curve" smooth="yes"/>
      <point x="454" y="370" type="line" smooth="yes"/>
      <point x="454" y="235"/>
      <point x="435" y="150"/>
      <point x="345" y="150" type="curve" smooth="yes"/>
    </contour>
  </outline>
</glyph>
<glyph name="P" format="1">
  <advance width="620"/>
  <unicode hex="0050"/>
  <outline>
    <contour>
      <point x="240" y="268" type="line"/>
      <point x="319" y="268" type="line" smooth="yes"/>
      <point x="451" y="268"/>
      <point x="600" y="298"/>
      <point x="600" y="514" type="curve" smooth="yes"/>
      <point x="600" y="534" type="line" smooth="yes"/>
      <point x="600" y="750"/>
      <point x="451" y="780"/>
      <point x="319" y="780" type="curve" smooth="yes"/>
      <point x="50" y="780" type="line"/>
      <point x="50" y="0" type="line"/>
      <point x="240" y="0" type="line"/>
    </contour>
    <contour>
      <point x="240" y="432" type="line"/>
      <point x="240" y="616" type="line"/>
      <point x="327" y="616" type="line" smooth="yes"/>
      <point x="364" y="616"/>
      <point x="408" y="602"/>
      <point x="408" y="528" type="curve" smooth="yes"/>
      <point x="408" y="520" type="line" smooth="yes"/>
      <point x="408" y="446"/>
      <point x="364" y="432"/>
      <point x="327" y="432" type="curve" smooth="yes"/>
    </contour>
  </outline>
</glyph>
<glyph name="Q" format="1">
  <advance width="680"/>
  <unicode hex="0051"/>
  <outline>
    <contour>
      <point x="340" y="-14" type="curve" smooth="yes"/>
      <point x="350" y="-14"/>
      <point x="361" y="-13"/>
      <point x="371" y="-13" type="curve"/>
      <point x="405" y="-100" type="line"/>
      <point x="550" y="-100" type="line"/>
      <point x="502" y="19" type="line"/>
      <point x="600" y="71"/>
      <point x="647" y="183"/>
      <point x="647" y="370" type="curve" smooth="yes"/>
      <point x="647" y="410" type="line" smooth="yes"/>
      <point x="647" y="680"/>
      <point x="550" y="794"/>
      <point x="340" y="794" type="curve" smooth="yes"/>
      <point x="130" y="794"/>
      <point x="33" y="680"/>
      <point x="33" y="410" type="curve" smooth="yes"/>
      <point x="33" y="370" type="line" smooth="yes"/>
      <point x="33" y="100"/>
      <point x="130" y="-14"/>
    </contour>
    <contour>
      <point x="400" y="273" type="line"/>
      <point x="260" y="273" type="line"/>
      <point x="306" y="153" type="line"/>
      <point x="241" y="170"/>
      <point x="226" y="250"/>
      <point x="226" y="370" type="curve" smooth="yes"/>
      <point x="226" y="410" type="line" smooth="yes"/>
      <point x="226" y="545"/>
      <point x="245" y="630"/>
      <point x="335" y="630" type="curve" smooth="yes"/>
      <point x="345" y="630" type="line" smooth="yes"/>
      <point x="435" y="630"/>
      <point x="454" y="545"/>
      <point x="454" y="410" type="curve" smooth="yes"/>
      <point x="454" y="370" type="line" smooth="yes"/>
      <point x="454" y="297"/>
      <point x="448" y="238"/>
      <point x="429" y="200" type="curve"/>
    </contour>
  </outline>
</glyph>
<glyph name="S" format="1">
  <advance width="640"/>
  <unicode hex="0053"/>
  <outline>
    <contour>
      <point x="291" y="313" type="curve" smooth="yes"/>
      <point x="396" y="299"/>
      <point x="417" y="272"/>
      <point x="417" y="227" type="curve" smooth="yes"/>
      <point x="417" y="223" type="line" smooth="yes"/>
      <point x="417" y="185"/>
      <point x="390" y="150"/>
      <point x="325" y="150" type="curve" smooth="yes"/>
      <point x="315" y="150" type="line" smooth="yes"/>
      <point x="250" y="150"/>
      <point x="220" y="184"/>
      <point x="220" y="270" type="curve"/>
      <point x="30" y="270" type="line"/>
      <point x="30" y="261" type="line" smooth="yes"/>
      <point x="30" y="65"/>
      <point x="130" y="-14"/>
      <point x="320" y="-14" type="curve" smooth="yes"/>
      <point x="511" y="-14"/>
      <point x="610" y="75"/>
      <point x="610" y="228" type="curve" smooth="yes"/>
      <point x="610" y="239" type="line" smooth="yes"/>
      <point x="610" y="392"/>
      <point x="519" y="446"/>
      <point x="349" y="469" type="curve" smooth="yes"/>
      <point x="244" y="483"/>
      <point x="228" y="507"/>
      <point x="228" y="555" type="curve" smooth="yes"/>
      <point x="228" y="559" type="line" smooth="yes"/>
      <point x="228" y="599"/>
      <point x="255" y="630"/>
      <point x="310" y="630" type="curve" smooth="yes"/>
      <point x="320" y="630" type="line" smooth="yes"/>
      <point x="390" y="630"/>
      <point x="415" y="588"/>
      <point x="415" y="500" type="curve"/>
      <point x="605" y="500" type="line"/>
      <point x="605" y="521" type="line" smooth="yes"/>
      <point x="605" y="710"/>
      <point x="517" y="794"/>
      <point x="320" y="794" type="curve" smooth="yes"/>
      <point x="132" y="794"/>
      <point x="35" y="699"/>
      <point x="35" y="554" type="curve" smooth="yes"/>
      <point x="35" y="543" type="line" smooth="yes"/>
      <point x="35" y="390"/>
      <point x="121" y="336"/>
    </contour>
  </outline>
</glyph>
<glyph name="T" format="1">
  <advance width="570"/>
  <unicode hex="0054"/>
  <outline>
    <contour>
      <point x="380" y="616" type="line"/>
      <point x="555" y="616" type="line"/>
      <point x="555" y="780" type="line"/>
      <point x="15" y="780" type="line"/>
      <point x="15" y="616" type="line"/>
      <point x="190" y="616" type="line"/>
      <point x="190" y="0" type="line"/>
      <point x="380" y="0" type="line"/>
    </contour>
  </outline>
</glyph>
<glyph name="U" format="1">
  <advance width="670"/>
  <unicode hex="0055"/>
  <outline>
    <contour>
      <point x="335" y="-14" type="curve" smooth="yes"/>
      <point x="561" y="-14"/>
      <point x="625" y="84"/>
      <point x="625" y="248" type="curve" smooth="yes"/>
      <point x="625" y="780" type="line"/>
      <point x="435" y="780" type="line"/>
      <point x="435" y="253" type="line" smooth="yes"/>
      <point x="435" y="191"/>
      <point x="418" y="150"/>
      <point x="335" y="150" type="curve" smooth="yes"/>
      <point x="252" y="150"/>
      <point x="235" y="191"/>
      <point x="235" y="253" type="curve" smooth="yes"/>
      <point x="235" y="780" type="line"/>
      <point x="45" y="780" type="line"/>
      <point x="45" y="248" type="line" smooth="yes"/>
      <point x="45" y="84"/>
      <point x="109" y="-14"/>
    </contour>
  </outline>
</glyph>
<glyph name="V" format="1">
  <advance width="650"/>
  <unicode hex="0056"/>
  <outline>
    <contour>
      <point x="455" y="0" type="line"/>
      <point x="641" y="780" type="line"/>
      <point x="437" y="780" type="line"/>
      <point x="325" y="220" type="line"/>
      <point x="212" y="780" type="line"/>
      <point x="9" y="780" type="line"/>
      <point x="195" y="0" type="line"/>
    </contour>
  </outline>
</glyph>
<glyph name="X" format="1">
  <advance width="660"/>
  <unicode hex="0058"/>
  <outline>
    <contour>
      <point x="15" y="0" type="line"/>
      <point x="225" y="0" type="line"/>
      <point x="330" y="265" type="line"/>
      <point x="435" y="0" type="line"/>
      <point x="645" y="0" type="line"/>
      <point x="464" y="413" type="line"/>
      <point x="645" y="780" type="line"/>
      <point x="425" y="780" type="line"/>
      <point x="330" y="542" type="line"/>
      <point x="235" y="780" type="line"/>
      <point x="15" y="780" type="line"/>
      <point x="195" y="413" type="line"/>
    </contour>
  </outline>
</glyph>
<glyph name="Y" format="1">
  <advance width="640"/>
  <unicode hex="0059"/>
  <outline>
    <contour>
      <point x="415" y="240" type="line"/>
      <point x="636" y="780" type="line"/>
      <point x="428" y="780" type="line"/>
      <point x="320" y="474" type="line"/>
      <point x="212" y="780" type="line"/>
      <point x="4" y="780" type="line"/>
      <point x="225" y="240" type="line"/>
      <point x="225" y="0" type="line"/>
      <point x="415" y="0" type="line"/>
    </contour>
  </outline>
</glyph>
<glyph name="Z" format="1">
  <advance width="610"/>
  <unicode hex="005A"/>
  <outline>
    <contour>
      <point x="40" y="130" type="line"/>
      <point x="40" y="0" type="line"/>
      <point x="570" y="0" type="line"/>
      <point x="570" y="164" type="line"/>
      <point x="420" y="164" type="line"/>
      <point x="272" y="160" type="line"/>
      <point x="560" y="650" type="line"/>
      <point x="560" y="780" type="line"/>
      <point x="50" y="780" type="line"/>
      <point x="50" y="616" type="line"/>
      <point x="180" y="616" type="line"/>
      <point x="328" y="620" type="line"/>
    </contour>
  </outline>
</glyph>
<glyph name="bracketleft" format="1">
  <advance width="380"/>
  <unicode hex="005B"/>
  <outline>
    <contour>
      <point x="55" y="840" type="line"/>
      <point x="55" y="-120" type="line"/>
      <point x="350" y="-120" type="line"/>
      <point x="350" y="40" type="line"/>
      <point x="239" y="40" type="line"/>
      <point x="239" y="680" type="line"/>
      <point x="350" y="680" type="line"/>
      <point x="350" y="840" type="line"/>
    </contour>
  </outline>
</glyph>
<glyph name="bracketright" format="1">
  <advance width="380"/>
  <unicode hex="005D"/>
  <outline>
    <contour>
      <point x="325" y="-120" type="line"/>
      <point x="325" y="840" type="line"/>
      <point x="30" y="840" type="line"/>
      <point x="30" y="680" type="line"/>
      <point x="141" y="680" type="line"/>
      <point x="141" y="40" type="line"/>
      <point x="30" y="40" type="line"/>
      <point x="30" y="-120" type="line"/>
    </contour>
  </outline>
</glyph>
<glyph name="asciicircum" format="1">
  <advance width="600"/>
  <unicode hex="005E"/>
  <outline>
    <contour>
      <point x="390" y="780" type="line"/>
      <point x="210" y="780" type="line"/>
      <point x="14" y="260" type="line"/>
      <point x="196" y="260" type="line"/>
      <point x="300" y="559" type="line"/>
      <point x="404" y="260" type="line"/>
      <point x="586" y="260" type="line"/>
    </contour>
  </outline>
</glyph>
<glyph name="underscore" format="1">
  <advance width="320"/>
  <unicode hex="005F"/>
  <outline>
    <contour>
      <point x="40" y="-200" type="line"/>
      <point x="280" y="-200" type="line"/>
      <point x="280" y="-40" type="line"/>
      <point x="40" y="-40" type="line"/>
    </contour>
  </outline>
</glyph>
<glyph name="grave" format="1">
  <advance width="500"/>
  <unicode hex="0060"/>
  <outline>
    <contour>
      <point x="48" y="780" type="line"/>
      <point x="159" y="590" type="line"/>
      <point x="341" y="590" type="line"/>
      <point x="250" y="780" type="line"/>
    </contour>
  </outline>
</glyph>
<glyph name="b" format="1">
  <advance width="585"/>
  <unicode hex="0062"/>
  <outline>
    <contour>
      <point x="233" y="800" type="line"/>
      <point x="49" y="800" type="line"/>
      <point x="49" y="150" type="line"/>
      <point x="39" y="0" type="line"/>
      <point x="205" y="0" type="line"/>
      <point x="216" y="61" type="line"/>
      <point x="246" y="17"/>
      <point x="293" y="-14"/>
      <point x="365" y="-14" type="curve" smooth="yes"/>
      <point x="510" y="-14"/>
      <point x="560" y="90"/>
      <point x="560" y="245" type="curve" smooth="yes"/>
      <point x="560" y="285" type="line" smooth="yes"/>
      <point x="560" y="440"/>
      <point x="510" y="544"/>
      <point x="365" y="544" type="curve" smooth="yes"/>
      <point x="305" y="544"/>
      <point x="263" y="522"/>
      <point x="233" y="490" type="curve"/>
    </contour>
    <contour>
      <point x="233" y="345" type="line"/>
      <point x="243" y="360"/>
      <point x="270" y="386"/>
      <point x="310" y="386" type="curve" smooth="yes"/>
      <point x="360" y="386"/>
      <point x="377" y="350"/>
      <point x="377" y="285" type="curve" smooth="yes"/>
      <point x="377" y="245" type="line" smooth="yes"/>
      <point x="377" y="180"/>
      <point x="360" y="144"/>
      <point x="310" y="144" type="curve" smooth="yes"/>
      <point x="270" y="144"/>
      <point x="243" y="170"/>
      <point x="233" y="185" type="curve"/>
    </contour>
  </outline>
</glyph>
<glyph name="d" format="1">
  <advance width="595"/>
  <unicode hex="0064"/>
  <outline>
    <contour>
      <point x="229" y="544" type="curve" smooth="yes"/>
      <point x="84" y="544"/>
      <point x="34" y="440"/>
      <point x="34" y="285" type="curve" smooth="yes"/>
      <point x="34" y="245" type="line" smooth="yes"/>
      <point x="34" y="90"/>
      <point x="84" y="-14"/>
      <point x="229" y="-14" type="curve" smooth="yes"/>
      <point x="301" y="-14"/>
      <point x="347" y="17"/>
      <point x="377" y="61" type="curve"/>
      <point x="389" y="0" type="line"/>
      <point x="555" y="0" type="line"/>
      <point x="545" y="150" type="line"/>
      <point x="545" y="800" type="line"/>
      <point x="361" y="800" type="line"/>
      <point x="361" y="490" type="line"/>
      <point x="331" y="522"/>
      <point x="288" y="544"/>
    </contour>
    <contour>
      <point x="361" y="185" type="line"/>
      <point x="351" y="170"/>
      <point x="324" y="144"/>
      <point x="284" y="144" type="curve" smooth="yes"/>
      <point x="234" y="144"/>
      <point x="217" y="180"/>
      <point x="217" y="245" type="curve" smooth="yes"/>
      <point x="217" y="285" type="line" smooth="yes"/>
      <point x="217" y="350"/>
      <point x="234" y="386"/>
      <point x="284" y="386" type="curve" smooth="yes"/>
      <point x="324" y="386"/>
      <point x="351" y="360"/>
      <point x="361" y="345" type="curve"/>
    </contour>
  </outline>
</glyph>
<glyph name="f" format="1">
  <advance width="420"/>
  <unicode hex="0066"/>
  <outline>
    <contour>
      <point x="279" y="585" type="line" smooth="yes"/>
      <point x="279" y="645"/>
      <point x="308" y="656"/>
      <point x="350" y="656" type="curve" smooth="yes"/>
      <point x="366" y="656"/>
      <point x="391" y="652"/>
      <point x="396" y="650" type="curve"/>
      <point x="396" y="800" type="line"/>
      <point x="387" y="805"/>
      <point x="357" y="814"/>
      <point x="307" y="814" type="curve" smooth="yes"/>
      <point x="180" y="814"/>
      <point x="95" y="760"/>
      <point x="95" y="605" type="curve" smooth="yes"/>
      <point x="95" y="530" type="line"/>
      <point x="15" y="530" type="line"/>
      <point x="15" y="370" type="line"/>
      <point x="95" y="370" type="line"/>
      <point x="95" y="0" type="line"/>
      <point x="279" y="0" type="line"/>
      <point x="279" y="370" type="line"/>
      <point x="386" y="370" type="line"/>
      <point x="386" y="530" type="line"/>
      <point x="279" y="530" type="line"/>
    </contour>
  </outline>
</glyph>
<glyph name="h" format="1">
  <advance width="595"/>
  <unicode hex="0068"/>
  <outline>
    <contour>
      <point x="234" y="800" type="line"/>
      <point x="50" y="800" type="line"/>
      <point x="50" y="0" type="line"/>
      <point x="234" y="0" type="line"/>
      <point x="234" y="345" type="line"/>
      <point x="244" y="360"/>
      <point x="271" y="386"/>
      <point x="311" y="386" type="curve" smooth="yes"/>
      <point x="361" y="386"/>
      <point x="367" y="350"/>
      <point x="367" y="325" type="curve" smooth="yes"/>
      <point x="367" y="0" type="line"/>
      <point x="551" y="0" type="line"/>
      <point x="551" y="355" type="line" smooth="yes"/>
      <point x="551" y="450"/>
      <point x="511" y="544"/>
      <point x="386" y="544" type="curve" smooth="yes"/>
      <point x="318" y="544"/>
      <point x="268" y="520"/>
      <point x="234" y="483" type="curve"/>
    </contour>
  </outline>
</glyph>
<glyph name="l" format="1">
  <advance width="280"/>
  <unicode hex="006C"/>
  <outline>
    <contour>
      <point x="48" y="0" type="line"/>
      <point x="232" y="0" type="line"/>
      <point x="232" y="800" type="line"/>
      <point x="48" y="800" type="line"/>
    </contour>
  </outline>
</glyph>
<glyph name="m" format="1">
  <advance width="880"/>
  <unicode hex="006D"/>
  <outline>
    <contour>
      <point x="836" y="0" type="line"/>
      <point x="836" y="360" type="line" smooth="yes"/>
      <point x="836" y="460"/>
      <point x="791" y="544"/>
      <point x="676" y="544" type="curve" smooth="yes"/>
      <point x="599" y="544"/>
      <point x="546" y="511"/>
      <point x="514" y="463" type="curve"/>
      <point x="490" y="511"/>
      <point x="446" y="544"/>
      <point x="375" y="544" type="curve" smooth="yes"/>
      <point x="301" y="544"/>
      <point x="250" y="514"/>
      <point x="217" y="469" type="curve"/>
      <point x="206" y="530" type="line"/>
      <point x="40" y="530" type="line"/>
      <point x="50" y="380" type="line"/>
      <point x="50" y="0" type="line"/>
      <point x="234" y="0" type="line"/>
      <point x="234" y="350" type="line"/>
      <point x="244" y="365"/>
      <point x="265" y="386"/>
      <point x="300" y="386" type="curve" smooth="yes"/>
      <point x="340" y="386"/>
      <point x="351" y="360"/>
      <point x="351" y="330" type="curve" smooth="yes"/>
      <point x="351" y="0" type="line"/>
      <point x="535" y="0" type="line"/>
      <point x="535" y="350" type="line"/>
      <point x="545" y="365"/>
      <point x="566" y="386"/>
      <point x="601" y="386" type="curve" smooth="yes"/>
      <point x="641" y="386"/>
      <point x="652" y="360"/>
      <point x="652" y="330" type="curve" smooth="yes"/>
      <point x="652" y="0" type="line"/>
    </contour>
  </outline>
</glyph>
<glyph name="o" format="1">
  <advance width="560"/>
  <unicode hex="006F"/>
  <outline>
    <contour>
      <point x="280" y="-14" type="curve" smooth="yes"/>
      <point x="455" y="-14"/>
      <point x="535" y="90"/>
      <point x="535" y="245" type="curve" smooth="yes"/>
      <point x="535" y="285" type="line" smooth="yes"/>
      <point x="535" y="440"/>
      <point x="455" y="544"/>
      <point x="280" y="544" type="curve" smooth="yes"/>
      <point x="105" y="544"/>
      <point x="25" y="440"/>
      <point x="25" y="285" type="curve" smooth="yes"/>
      <point x="25" y="245" type="line" smooth="yes"/>
      <point x="25" y="90"/>
      <point x="105" y="-14"/>
    </contour>
    <contour>
      <point x="280" y="144" type="curve" smooth="yes"/>
      <point x="230" y="144"/>
      <point x="208" y="180"/>
      <point x="208" y="245" type="curve" smooth="yes"/>
      <point x="208" y="285" type="line" smooth="yes"/>
      <point x="208" y="350"/>
      <point x="230" y="386"/>
      <point x="280" y="386" type="curve" smooth="yes"/>
      <point x="330" y="386"/>
      <point x="352" y="350"/>
      <point x="352" y="285" type="curve" smooth="yes"/>
      <point x="352" y="245" type="line" smooth="yes"/>
      <point x="352" y="180"/>
      <point x="330" y="144"/>
    </contour>
  </outline>
</glyph>
<glyph name="q" format="1">
  <advance width="593"/>
  <unicode hex="0071"/>
  <outline>
    <contour>
      <point x="355" y="-200" type="line"/>
      <point x="539" y="-200" type="line"/>
      <point x="539" y="380" type="line"/>
      <point x="549" y="530" type="line"/>
      <point x="383" y="530" type="line"/>
      <point x="371" y="468" type="line"/>
      <point x="341" y="513"/>
      <point x="295" y="544"/>
      <point x="223" y="544" type="curve" smooth="yes"/>
      <point x="78" y="544"/>
      <point x="28" y="440"/>
      <point x="28" y="285" type="curve" smooth="yes"/>
      <point x="28" y="245" type="line" smooth="yes"/>
      <point x="28" y="90"/>
      <point x="78" y="-14"/>
      <point x="223" y="-14" type="curve" smooth="yes"/>
      <point x="282" y="-14"/>
      <point x="325" y="7"/>
      <point x="355" y="40" type="curve"/>
    </contour>
    <contour>
      <point x="278" y="144" type="curve" smooth="yes"/>
      <point x="228" y="144"/>
      <point x="211" y="180"/>
      <point x="211" y="245" type="curve" smooth="yes"/>
      <point x="211" y="285" type="line" smooth="yes"/>
      <point x="211" y="350"/>
      <point x="228" y="386"/>
      <point x="278" y="386" type="curve" smooth="yes"/>
      <point x="318" y="386"/>
      <point x="345" y="360"/>
      <point x="355" y="345" type="curve"/>
      <point x="355" y="185" type="line"/>
      <point x="345" y="170"/>
      <point x="318" y="144"/>
    </contour>
  </outline>
</glyph>
<glyph name="r" format="1">
  <advance width="400"/>
  <unicode hex="0072"/>
  <outline>
    <contour>
      <point x="356" y="544" type="curve" smooth="yes"/>
      <point x="296" y="544"/>
      <point x="249" y="515"/>
      <point x="217" y="471" type="curve"/>
      <point x="206" y="530" type="line"/>
      <point x="40" y="530" type="line"/>
      <point x="50" y="380" type="line"/>
      <point x="50" y="0" type="line"/>
      <point x="234" y="0" type="line"/>
      <point x="234" y="320" type="line"/>
      <point x="246" y="335"/>
      <point x="281" y="355"/>
      <point x="341" y="355" type="curve" smooth="yes"/>
      <point x="371" y="355" type="line"/>
      <point x="371" y="543" type="line"/>
      <point x="366" y="544"/>
      <point x="361" y="544"/>
    </contour>
  </outline>
</glyph>
<glyph name="t" format="1">
  <advance width="440"/>
  <unicode hex="0074"/>
  <outline>
    <contour>
      <point x="279" y="530" type="line"/>
      <point x="279" y="680" type="line"/>
      <point x="95" y="680" type="line"/>
      <point x="95" y="530" type="line"/>
      <point x="15" y="530" type="line"/>
      <point x="15" y="370" type="line"/>
      <point x="95" y="370" type="line"/>
      <point x="95" y="195" type="line" smooth="yes"/>
      <point x="95" y="40"/>
      <point x="180" y="-14"/>
      <point x="307" y="-14" type="curve" smooth="yes"/>
      <point x="357" y="-14"/>
      <point x="387" y="-5"/>
      <point x="396" y="0" type="curve"/>
      <point x="396" y="150" type="line"/>
      <point x="391" y="148"/>
      <point x="366" y="144"/>
      <point x="350" y="144" type="curve" smooth="yes"/>
      <point x="308" y="144"/>
      <point x="279" y="155"/>
      <point x="279" y="215" type="curve" smooth="yes"/>
      <point x="279" y="370" type="line"/>
      <point x="406" y="370" type="line"/>
      <point x="406" y="530" type="line"/>
    </contour>
  </outline>
</glyph>
<glyph name="v" format="1">
  <advance width="560"/>
  <unicode hex="0076"/>
  <outline>
    <contour>
      <point x="150" y="0" type="line"/>
      <point x="410" y="0" type="line"/>
      <point x="555" y="530" type="line"/>
      <point x="365" y="530" type="line"/>
      <point x="280" y="145" type="line"/>
      <point x="195" y="530" type="line"/>
      <point x="5" y="530" type="line"/>
    </contour>
  </outline>
</glyph>
<glyph name="w" format="1">
  <advance width="780"/>
  <unicode hex="0077"/>
  <outline>
    <contour>
      <point x="390" y="340" type="line"/>
      <point x="450" y="0" type="line"/>
      <point x="680" y="0" type="line"/>
      <point x="765" y="530" type="line"/>
      <point x="585" y="530" type="line"/>
      <point x="560" y="200" type="line"/>
      <point x="500" y="530" type="line"/>
      <point x="280" y="530" type="line"/>
      <point x="220" y="200" type="line"/>
      <point x="195" y="530" type="line"/>
      <point x="15" y="530" type="line"/>
      <point x="100" y="0" type="line"/>
      <point x="330" y="0" type="line"/>
    </contour>
  </outline>
</glyph>
<glyph name="x" format="1">
  <advance width="580"/>
  <unicode hex="0078"/>
  <outline>
    <contour>
      <point x="15" y="530" type="line"/>
      <point x="143" y="275" type="line"/>
      <point x="15" y="0" type="line"/>
      <point x="221" y="0" type="line"/>
      <point x="290" y="172" type="line"/>
      <point x="359" y="0" type="line"/>
      <point x="565" y="0" type="line"/>
      <point x="436" y="275" type="line"/>
      <point x="565" y="530" type="line"/>
      <point x="353" y="530" type="line"/>
      <point x="290" y="362" type="line"/>
      <point x="227" y="530" type="line"/>
    </contour>
  </outline>
</glyph>
<glyph name="y" format="1">
  <advance width="570"/>
  <unicode hex="0079"/>
  <outline>
    <contour>
      <point x="285" y="220" type="line"/>
      <point x="200" y="530" type="line"/>
      <point x="0" y="530" type="line"/>
      <point x="185" y="30" type="line"/>
      <point x="99" y="-200" type="line"/>
      <point x="319" y="-200" type="line"/>
      <point x="385" y="30" type="line"/>
      <point x="570" y="530" type="line"/>
      <point x="370" y="530" type="line"/>
    </contour>
  </outline>
</glyph>
<glyph name="braceleft" format="1">
  <advance width="380"/>
  <unicode hex="007B"/>
  <outline>
    <contour>
      <point x="350" y="840" type="line"/>
      <point x="320" y="840" type="line" smooth="yes"/>
      <point x="180" y="840"/>
      <point x="95" y="790"/>
      <point x="95" y="650" type="curve" smooth="yes"/>
      <point x="95" y="520" type="line" smooth="yes"/>
      <point x="95" y="465"/>
      <point x="73" y="440"/>
      <point x="24" y="440" type="curve"/>
      <point x="24" y="280" type="line"/>
      <point x="73" y="280"/>
      <point x="95" y="255"/>
      <point x="95" y="200" type="curve" smooth="yes"/>
      <point x="95" y="70" type="line" smooth="yes"/>
      <point x="95" y="-70"/>
      <point x="180" y="-120"/>
      <point x="320" y="-120" type="curve" smooth="yes"/>
      <point x="350" y="-120" type="line"/>
      <point x="350" y="40" type="line"/>
      <point x="301" y="40"/>
      <point x="279" y="65"/>
      <point x="279" y="120" type="curve" smooth="yes"/>
      <point x="279" y="240" type="line" smooth="yes"/>
      <point x="279" y="298"/>
      <point x="258" y="336"/>
      <point x="217" y="360" type="curve"/>
      <point x="258" y="383"/>
      <point x="279" y="422"/>
      <point x="279" y="480" type="curve" smooth="yes"/>
      <point x="279" y="600" type="line" smooth="yes"/>
      <point x="279" y="655"/>
      <point x="301" y="680"/>
      <point x="350" y="680" type="curve"/>
    </contour>
  </outline>
</glyph>
<glyph name="bar" format="1">
  <advance width="280"/>
  <unicode hex="007C"/>
  <outline>
    <contour>
      <point x="50" y="-120" type="line"/>
      <point x="230" y="-120" type="line"/>
      <point x="230" y="840" type="line"/>
      <point x="50" y="840" type="line"/>
    </contour>
  </outline>
</glyph>
<glyph name="braceright" format="1">
  <advance width="380"/>
  <unicode hex="007D"/>
  <outline>
    <contour>
      <point x="30" y="-120" type="line"/>
      <point x="60" y="-120" type="line" smooth="yes"/>
      <point x="200" y="-120"/>
      <point x="285" y="-70"/>
      <point x="285" y="70" type="curve" smooth="yes"/>
      <point x="285" y="208" type="line" smooth="yes"/>
      <point x="287" y="257"/>
      <point x="309" y="280"/>
      <point x="356" y="280" type="curve"/>
      <point x="356" y="440" type="line"/>
      <point x="307" y="440"/>
      <point x="285" y="465"/>
      <point x="285" y="520" type="curve" smooth="yes"/>
      <point x="285" y="650" type="line" smooth="yes"/>
      <point x="285" y="790"/>
      <point x="200" y="840"/>
      <point x="60" y="840" type="curve" smooth="yes"/>
      <point x="30" y="840" type="line"/>
      <point x="30" y="680" type="line"/>
      <point x="79" y="680"/>
      <point x="101" y="655"/>
      <point x="101" y="600" type="curve" smooth="yes"/>
      <point x="101" y="480" type="line" smooth="yes"/>
      <point x="101" y="422"/>
      <point x="122" y="383"/>
      <point x="162" y="360" type="curve"/>
      <point x="122" y="336"/>
      <point x="101" y="298"/>
      <point x="101" y="240" type="curve" smooth="yes"/>
      <point x="101" y="120" type="line" smooth="yes"/>
      <point x="101" y="65"/>
      <point x="79" y="40"/>
      <point x="30" y="40" type="curve"/>
    </contour>
  </outline>
</glyph>
<glyph name="asciitilde" format="1">
  <advance width="600"/>
  <unicode hex="007E"/>
  <outline>
    <contour>
      <point x="186" y="492" type="curve" smooth="yes"/>
      <point x="115" y="492"/>
      <point x="60" y="447"/>
      <point x="25" y="391" type="curve"/>
      <point x="110" y="306" type="line"/>
      <point x="125" y="324"/>
      <point x="155" y="352"/>
      <point x="195" y="352" type="curve" smooth="yes"/>
      <point x="262" y="352"/>
      <point x="311" y="288"/>
      <point x="414" y="288" type="curve" smooth="yes"/>
      <point x="485" y="288"/>
      <point x="540" y="333"/>
      <point x="575" y="389" type="curve"/>
      <point x="490" y="474" type="line"/>
      <point x="475" y="456"/>
      <point x="445" y="428"/>
      <point x="405" y="428" type="curve" smooth="yes"/>
      <point x="338" y="428"/>
      <point x="289" y="492"/>
    </contour>
  </outline>
</glyph>
<glyph name="exclamdown" format="1">
  <advance width="280"/>
  <unicode hex="00A1"/>
  <outline>
    <contour>
      <point x="255" y="-200" type="line"/>
      <point x="205" y="290" type="line"/>
      <point x="75" y="290" type="line"/>
      <point x="25" y="-200" type="line"/>
    </contour>
    <contour>
      <point x="45" y="340" type="line"/>
      <point x="235" y="340" type="line"/>
      <point x="235" y="530" type="line"/>
      <point x="45" y="530" type="line"/>
    </contour>
  </outline>
</glyph>
<glyph name="cent" format="1">
  <advance width="600"/>
  <unicode hex="00A2"/>
  <outline>
    <contour>
      <point x="568" y="463" type="line"/>
      <point x="568" y="494" type="line" smooth="yes"/>
      <point x="568" y="612"/>
      <point x="525" y="677"/>
      <point x="442" y="710" type="curve"/>
      <point x="473" y="840" type="line"/>
      <point x="333" y="840" type="line"/>
      <point x="307" y="732" type="line"/>
      <point x="305" y="732" type="line" smooth="yes"/>
      <point x="115" y="732"/>
      <point x="32" y="623"/>
      <point x="32" y="410" type="curve" smooth="yes"/>
      <point x="32" y="370" type="line" smooth="yes"/>
      <point x="32" y="227"/>
      <point x="70" y="131"/>
      <point x="152" y="84" type="curve"/>
      <point x="118" y="-60" type="line"/>
      <point x="258" y="-60" type="line"/>
      <point x="284" y="49" type="line"/>
      <point x="305" y="49" type="line" smooth="yes"/>
      <point x="478" y="49"/>
      <point x="568" y="123"/>
      <point x="568" y="281" type="curve" smooth="yes"/>
      <point x="568" y="298" type="line"/>
      <point x="385" y="298" type="line"/>
      <point x="384" y="246"/>
      <point x="359" y="209"/>
      <point x="312" y="209" type="curve" smooth="yes"/>
      <point x="304" y="209" type="line" smooth="yes"/>
      <point x="238" y="209"/>
      <point x="219" y="278"/>
      <point x="219" y="371" type="curve" smooth="yes"/>
      <point x="219" y="409" type="line" smooth="yes"/>
      <point x="219" y="502"/>
      <point x="238" y="571"/>
      <point x="304" y="571" type="curve" smooth="yes"/>
      <point x="312" y="571" type="line" smooth="yes"/>
      <point x="361" y="571"/>
      <point x="387" y="536"/>
      <point x="386" y="463" type="curve"/>
    </contour>
  </outline>
</glyph>
<glyph name="sterling" format="1">
  <advance width="600"/>
  <unicode hex="00A3"/>
  <outline>
    <contour>
      <point x="320" y="632" type="curve" smooth="yes"/>
      <point x="359" y="632"/>
      <point x="374" y="585"/>
      <point x="374" y="500" type="curve"/>
      <point x="560" y="500" type="line"/>
      <point x="560" y="519" type="line" smooth="yes"/>
      <point x="560" y="710"/>
      <point x="496" y="794"/>
      <point x="320" y="794" type="curve" smooth="yes"/>
      <point x="133" y="794"/>
      <point x="85" y="681"/>
      <point x="85" y="585" type="curve" smooth="yes"/>
      <point x="85" y="530"/>
      <point x="93" y="483"/>
      <point x="105" y="440" type="curve"/>
      <point x="40" y="440" type="line"/>
      <point x="40" y="280" type="line"/>
      <point x="159" y="280" type="line"/>
      <point x="171" y="243"/>
      <point x="182" y="205"/>
      <point x="189" y="162" type="curve"/>
      <point x="40" y="162" type="line"/>
      <point x="40" y="0" type="line"/>
      <point x="560" y="0" type="line"/>
      <point x="560" y="162" type="line"/>
      <point x="351" y="162" type="line"/>
      <point x="348" y="204"/>
      <point x="341" y="244"/>
      <point x="334" y="280" type="curve"/>
      <point x="461" y="280" type="line"/>
      <point x="461" y="440" type="line"/>
      <point x="293" y="440" type="line"/>
      <point x="280" y="487"/>
      <point x="271" y="529"/>
      <point x="271" y="570" type="curve" smooth="yes"/>
      <point x="271" y="608"/>
      <point x="284" y="632"/>
    </contour>
  </outline>
</glyph>
<glyph name="yen" format="1">
  <advance width="600"/>
  <unicode hex="00A5"/>
  <outline>
    <contour>
      <point x="40" y="320" type="line"/>
      <point x="189" y="320" type="line"/>
      <point x="205" y="280" type="line"/>
      <point x="40" y="280" type="line"/>
      <point x="40" y="120" type="line"/>
      <point x="205" y="120" type="line"/>
      <point x="205" y="0" type="line"/>
      <point x="395" y="0" type="line"/>
      <point x="395" y="120" type="line"/>
      <point x="560" y="120" type="line"/>
      <point x="560" y="280" type="line"/>
      <point x="395" y="280" type="line"/>
      <point x="411" y="320" type="line"/>
      <point x="560" y="320" type="line"/>
      <point x="560" y="480" type="line"/>
      <point x="475" y="480" type="line"/>
      <point x="596" y="780" type="line"/>
      <point x="388" y="780" type="line"/>
      <point x="300" y="480" type="line"/>
      <point x="212" y="780" type="line"/>
      <point x="4" y="780" type="line"/>
      <point x="124" y="480" type="line"/>
      <point x="40" y="480" type="line"/>
    </contour>
  </outline>
</glyph>
<glyph name="brokenbar" format="1">
  <advance width="280"/>
  <unicode hex="00A6"/>
  <outline>
    <contour>
      <point x="50" y="380" type="line"/>
      <point x="230" y="380" type="line"/>
      <point x="230" y="840" type="line"/>
      <point x="50" y="840" type="line"/>
    </contour>
    <contour>
      <point x="50" y="-120" type="line"/>
      <point x="230" y="-120" type="line"/>
      <point x="230" y="340" type="line"/>
      <point x="50" y="340" type="line"/>
    </contour>
  </outline>
</glyph>
<glyph name="section" format="1">
  <advance width="560"/>
  <unicode hex="00A7"/>
  <outline>
    <contour>
      <point x="532" y="394" type="curve" smooth="yes"/>
      <point x="532" y="404" type="line" smooth="yes"/>
      <point x="532" y="530"/>
      <point x="436" y="561"/>
      <point x="303" y="572" type="curve" smooth="yes"/>
      <point x="258" y="576"/>
      <point x="245" y="595"/>
      <point x="245" y="620" type="curve" smooth="yes"/>
      <point x="245" y="641"/>
      <point x="262" y="656"/>
      <point x="295" y="656" type="curve" smooth="yes"/>
      <point x="328" y="656"/>
      <point x="345" y="637"/>
      <point x="345" y="605" type="curve"/>
      <point x="525" y="605" type="line"/>
      <point x="525" y="610" type="line" smooth="yes"/>
      <point x="525" y="727"/>
      <point x="454" y="794"/>
      <point x="295" y="794" type="curve" smooth="yes"/>
      <point x="169" y="794"/>
      <point x="65" y="745"/>
      <point x="65" y="614" type="curve" smooth="yes"/>
      <point x="65" y="604" type="line" smooth="yes"/>
      <point x="65" y="566"/>
      <point x="75" y="536"/>
      <point x="93" y="511" type="curve"/>
      <point x="50" y="485"/>
      <point x="28" y="444"/>
      <point x="28" y="386" type="curve" smooth="yes"/>
      <point x="28" y="376" type="line" smooth="yes"/>
      <point x="28" y="250"/>
      <point x="124" y="219"/>
      <point x="257" y="208" type="curve" smooth="yes"/>
      <point x="302" y="204"/>
      <point x="315" y="185"/>
      <point x="315" y="160" type="curve" smooth="yes"/>
      <point x="315" y="139"/>
      <point x="298" y="124"/>
      <point x="265" y="124" type="curve" smooth="yes"/>
      <point x="232" y="124"/>
      <point x="215" y="143"/>
      <point x="215" y="175" type="curve"/>
      <point x="35" y="175" type="line"/>
      <point x="35" y="170" type="line" smooth="yes"/>
      <point x="35" y="53"/>
      <point x="106" y="-14"/>
      <point x="265" y="-14" type="curve" smooth="yes"/>
      <point x="391" y="-14"/>
      <point x="495" y="35"/>
      <point x="495" y="166" type="curve" smooth="yes"/>
      <point x="495" y="176" type="line" smooth="yes"/>
      <point x="495" y="213"/>
      <point x="485" y="244"/>
      <point x="466" y="268" type="curve"/>
      <point x="509" y="294"/>
      <point x="532" y="335"/>
    </contour>
    <contour>
      <point x="280" y="444" type="line" smooth="yes"/>
      <point x="330" y="444"/>
      <point x="348" y="420"/>
      <point x="348" y="390" type="curve" smooth="yes"/>
      <point x="348" y="360"/>
      <point x="330" y="336"/>
      <point x="280" y="336" type="curve" smooth="yes"/>
      <point x="272" y="336" type="line" smooth="yes"/>
      <point x="228" y="338"/>
      <point x="212" y="361"/>
      <point x="212" y="390" type="curve" smooth="yes"/>
      <point x="212" y="418"/>
      <point x="228" y="442"/>
      <point x="272" y="444" type="curve" smooth="yes"/>
    </contour>
  </outline>
</glyph>
<glyph name="dieresis" format="1">
  <advance width="500"/>
  <unicode hex="00A8"/>
  <outline>
    <contour>
      <point x="230" y="780" type="line"/>
      <point x="40" y="780" type="line"/>
      <point x="40" y="590" type="line"/>
      <point x="230" y="590" type="line"/>
    </contour>
    <contour>
      <point x="460" y="780" type="line"/>
      <point x="270" y="780" type="line"/>
      <point x="270" y="590" type="line"/>
      <point x="460" y="590" type="line"/>
    </contour>
  </outline>
</glyph>
<glyph name="copyright" format="1">
  <advance width="920"/>
  <unicode hex="00A9"/>
  <outline>
    <contour>
      <point x="56" y="390" type="curve" smooth="yes"/>
      <point x="56" y="167"/>
      <point x="237" y="-14"/>
      <point x="460" y="-14" type="curve" smooth="yes"/>
      <point x="683" y="-14"/>
      <point x="864" y="167"/>
      <point x="864" y="390" type="curve" smooth="yes"/>
      <point x="864" y="613"/>
      <point x="683" y="794"/>
      <point x="460" y="794" type="curve" smooth="yes"/>
      <point x="237" y="794"/>
      <point x="56" y="613"/>
    </contour>
    <contour>
      <point x="116" y="390" type="curve" smooth="yes"/>
      <point x="116" y="580"/>
      <point x="270" y="734"/>
      <point x="460" y="734" type="curve" smooth="yes"/>
      <point x="650" y="734"/>
      <point x="804" y="580"/>
      <point x="804" y="390" type="curve" smooth="yes"/>
      <point x="804" y="200"/>
      <point x="650" y="46"/>
      <point x="460" y="46" type="curve" smooth="yes"/>
      <point x="270" y="46"/>
      <point x="116" y="200"/>
    </contour>
    <contour>
      <point x="464" y="282" type="curve" smooth="yes"/>
      <point x="420" y="282"/>
      <point x="405" y="314"/>
      <point x="405" y="372" type="curve" smooth="yes"/>
      <point x="405" y="408" type="line" smooth="yes"/>
      <point x="405" y="466"/>
      <point x="420" y="498"/>
      <point x="464" y="498" type="curve" smooth="yes"/>
      <point x="496" y="498"/>
      <point x="516" y="481"/>
      <point x="516" y="439" type="curve"/>
      <point x="671" y="439" type="line"/>
      <point x="671" y="461" type="line" smooth="yes"/>
      <point x="671" y="574"/>
      <point x="598" y="640"/>
      <point x="460" y="640" type="curve" smooth="yes"/>
      <point x="307" y="640"/>
      <point x="241" y="547"/>
      <point x="241" y="408" type="curve" smooth="yes"/>
      <point x="241" y="372" type="line" smooth="yes"/>
      <point x="241" y="233"/>
      <point x="307" y="140"/>
      <point x="460" y="140" type="curve" smooth="yes"/>
      <point x="598" y="140"/>
      <point x="671" y="206"/>
      <point x="671" y="310" type="curve" smooth="yes"/>
      <point x="671" y="332" type="line"/>
      <point x="516" y="332" type="line"/>
      <point x="516" y="300"/>
      <point x="496" y="282"/>
    </contour>
  </outline>
</glyph>
<glyph name="ordfeminine" format="1">
  <advance width="440"/>
  <unicode hex="00AA"/>
  <outline>
    <contour>
      <point x="273" y="387" type="line"/>
      <point x="418" y="387" type="line"/>
      <point x="410" y="499" type="line"/>
      <point x="410" y="640" type="line" smooth="yes"/>
      <point x="410" y="741"/>
      <point x="366" y="794"/>
      <point x="224" y="794" type="curve" smooth="yes"/>
      <point x="85" y="794"/>
      <point x="40" y="734"/>
      <point x="40" y="659" type="curve" smooth="yes"/>
      <point x="40" y="652" type="line"/>
      <point x="190" y="652" type="line"/>
      <point x="190" y="663"/>
      <point x="197" y="676"/>
      <point x="220" y="676" type="curve" smooth="yes"/>
      <point x="239" y="676"/>
      <point x="247" y="668"/>
      <point x="249" y="652" type="curve"/>
      <point x="175" y="640" type="line" smooth="yes"/>
      <point x="80" y="626"/>
      <point x="25" y="595"/>
      <point x="25" y="509" type="curve" smooth="yes"/>
      <point x="25" y="502" type="line" smooth="yes"/>
      <point x="25" y="438"/>
      <point x="52" y="376"/>
      <point x="151" y="376" type="curve" smooth="yes"/>
      <point x="201" y="376"/>
      <point x="239" y="393"/>
      <point x="266" y="421" type="curve"/>
    </contour>
    <contour>
      <point x="37" y="172" type="line"/>
      <point x="415" y="172" type="line"/>
      <point x="415" y="309" type="line"/>
      <point x="37" y="309" type="line"/>
    </contour>
    <contour>
      <point x="212" y="503" type="curve" smooth="yes"/>
      <point x="190" y="503"/>
      <point x="184" y="515"/>
      <point x="184" y="527" type="curve" smooth="yes"/>
      <point x="184" y="530" type="line" smooth="yes"/>
      <point x="184" y="542"/>
      <point x="190" y="554"/>
      <point x="211" y="557" type="curve" smooth="yes"/>
      <point x="250" y="563" type="line"/>
      <point x="250" y="516" type="line"/>
      <point x="240" y="509"/>
      <point x="225" y="503"/>
    </contour>
  </outline>
</glyph>
<glyph name="guillemotleft" format="1">
  <advance width="580"/>
  <unicode hex="00AB"/>
  <outline>
    <contour>
      <point x="270" y="575" type="line"/>
      <point x="50" y="430" type="line"/>
      <point x="50" y="250" type="line"/>
      <point x="270" y="105" type="line"/>
      <point x="270" y="265" type="line"/>
      <point x="173" y="340" type="line"/>
      <point x="270" y="415" type="line"/>
    </contour>
    <contour>
      <point x="530" y="575" type="line"/>
      <point x="310" y="430" type="line"/>
      <point x="310" y="250" type="line"/>
      <point x="530" y="105" type="line"/>
      <point x="530" y="265" type="line"/>
      <point x="433" y="340" type="line"/>
      <point x="530" y="415" type="line"/>
    </contour>
  </outline>
</glyph>
<glyph name="logicalnot" format="1">
  <advance width="600"/>
  <unicode hex="00AC"/>
  <outline>
    <contour>
      <point x="40" y="418" type="line"/>
      <point x="396" y="418" type="line"/>
      <point x="396" y="188" type="line"/>
      <point x="560" y="188" type="line"/>
      <point x="560" y="582" type="line"/>
      <point x="40" y="582" type="line"/>
    </contour>
  </outline>
</glyph>
<glyph name="macron" format="1">
  <advance width="500"/>
  <unicode hex="00AF"/>
  <outline>
    <contour>
      <point x="90" y="605" type="line"/>
      <point x="410" y="605" type="line"/>
      <point x="410" y="765" type="line"/>
      <point x="90" y="765" type="line"/>
    </contour>
  </outline>
</glyph>
<glyph name="degree" format="1">
  <advance width="400"/>
  <unicode hex="00B0"/>
  <outline>
    <contour>
      <point x="256" y="625" type="line" smooth="yes"/>
      <point x="256" y="592"/>
      <point x="232" y="571"/>
      <point x="202" y="571" type="curve" smooth="yes"/>
      <point x="198" y="571" type="line" smooth="yes"/>
      <point x="168" y="571"/>
      <point x="144" y="592"/>
      <point x="144" y="625" type="curve" smooth="yes"/>
      <point x="144" y="630" type="line" smooth="yes"/>
      <point x="144" y="663"/>
      <point x="168" y="684"/>
      <point x="198" y="684" type="curve" smooth="yes"/>
      <point x="202" y="684" type="line" smooth="yes"/>
      <point x="232" y="684"/>
      <point x="256" y="663"/>
      <point x="256" y="630" type="curve" smooth="yes"/>
    </contour>
    <contour>
      <point x="365" y="630" type="line" smooth="yes"/>
      <point x="365" y="731"/>
      <point x="294" y="794"/>
      <point x="200" y="794" type="curve" smooth="yes"/>
      <point x="106" y="794"/>
      <point x="35" y="731"/>
      <point x="35" y="630" type="curve" smooth="yes"/>
      <point x="35" y="625" type="line" smooth="yes"/>
      <point x="35" y="524"/>
      <point x="106" y="461"/>
      <point x="200" y="461" type="curve" smooth="yes"/>
      <point x="294" y="461"/>
      <point x="365" y="524"/>
      <point x="365" y="625" type="curve" smooth="yes"/>
    </contour>
  </outline>
</glyph>
<glyph name="plusminus" format="1">
  <advance width="600"/>
  <unicode hex="00B1"/>
  <outline>
    <contour>
      <point x="218" y="680" type="line"/>
      <point x="218" y="582" type="line"/>
      <point x="40" y="582" type="line"/>
      <point x="40" y="418" type="line"/>
      <point x="218" y="418" type="line"/>
      <point x="218" y="320" type="line"/>
      <point x="382" y="320" type="line"/>
      <point x="382" y="418" type="line"/>
      <point x="560" y="418" type="line"/>
      <point x="560" y="582" type="line"/>
      <point x="382" y="582" type="line"/>
      <point x="382" y="680" type="line"/>
    </contour>
    <contour>
      <point x="40" y="128" type="line"/>
      <point x="560" y="128" type="line"/>
      <point x="560" y="292" type="line"/>
      <point x="40" y="292" type="line"/>
    </contour>
  </outline>
</glyph>
<glyph name="twosuperior" format="1">
  <advance width="300"/>
  <unicode hex="00B2"/>
  <outline>
    <contour>
      <point x="285" y="503" type="line"/>
      <point x="193" y="503" type="line"/>
      <point x="243" y="560" type="line" smooth="yes"/>
      <point x="272" y="593"/>
      <point x="285" y="618"/>
      <point x="285" y="662" type="curve" smooth="yes"/>
      <point x="285" y="674" type="line" smooth="yes"/>
      <point x="285" y="714"/>
      <point x="264" y="788"/>
      <point x="150" y="788" type="curve" smooth="yes"/>
      <point x="60" y="788"/>
      <point x="15" y="748"/>
      <point x="15" y="658" type="curve" smooth="yes"/>
      <point x="15" y="650" type="line"/>
      <point x="140" y="650" type="line"/>
      <point x="140" y="674" type="line" smooth="yes"/>
      <point x="140" y="683"/>
      <point x="154" y="683"/>
      <point x="154" y="674" type="curve" smooth="yes"/>
      <point x="154" y="646" type="line" smooth="yes"/>
      <point x="154" y="635"/>
      <point x="150" y="630"/>
      <point x="144" y="623" type="curve" smooth="yes"/>
      <point x="15" y="473" type="line"/>
      <point x="15" y="390" type="line"/>
      <point x="285" y="390" type="line"/>
    </contour>
  </outline>
</glyph>
<glyph name="threesuperior" format="1">
  <advance width="300"/>
  <unicode hex="00B3"/>
  <outline>
    <contour>
      <point x="144" y="515" type="line"/>
      <point x="12" y="515" type="line"/>
      <point x="12" y="506" type="line" smooth="yes"/>
      <point x="12" y="424"/>
      <point x="60" y="381"/>
      <point x="150" y="381" type="curve" smooth="yes"/>
      <point x="267" y="381"/>
      <point x="287" y="460"/>
      <point x="287" y="494" type="curve" smooth="yes"/>
      <point x="287" y="505" type="line" smooth="yes"/>
      <point x="287" y="547"/>
      <point x="268" y="577"/>
      <point x="243" y="590" type="curve"/>
      <point x="269" y="603"/>
      <point x="285" y="634"/>
      <point x="285" y="673" type="curve" smooth="yes"/>
      <point x="285" y="684" type="line" smooth="yes"/>
      <point x="285" y="716"/>
      <point x="264" y="788"/>
      <point x="150" y="788" type="curve" smooth="yes"/>
      <point x="60" y="788"/>
      <point x="15" y="748"/>
      <point x="15" y="658" type="curve" smooth="yes"/>
      <point x="15" y="650" type="line"/>
      <point x="140" y="650" type="line"/>
      <point x="140" y="674" type="line" smooth="yes"/>
      <point x="140" y="683"/>
      <point x="154" y="683"/>
      <point x="154" y="674" type="curve" smooth="yes"/>
      <point x="154" y="648" type="line" smooth="yes"/>
      <point x="154" y="641"/>
      <point x="149" y="638"/>
      <point x="142" y="638" type="curve" smooth="yes"/>
      <point x="100" y="638" type="line"/>
      <point x="100" y="532" type="line"/>
      <point x="145" y="532" type="line" smooth="yes"/>
      <point x="153" y="532"/>
      <point x="158" y="529"/>
      <point x="158" y="518" type="curve" smooth="yes"/>
      <point x="158" y="496" type="line" smooth="yes"/>
      <point x="158" y="487"/>
      <point x="144" y="487"/>
      <point x="144" y="496" type="curve" smooth="yes"/>
    </contour>
  </outline>
</glyph>
<glyph name="acute" format="1">
  <advance width="500"/>
  <unicode hex="00B4"/>
  <outline>
    <contour>
      <point x="250" y="780" type="line"/>
      <point x="159" y="590" type="line"/>
      <point x="341" y="590" type="line"/>
      <point x="452" y="780" type="line"/>
    </contour>
  </outline>
</glyph>
<glyph name="paragraph" format="1">
  <advance width="560"/>
  <unicode hex="00B6"/>
  <outline>
    <contour>
      <point x="320" y="0" type="line"/>
      <point x="510" y="0" type="line"/>
      <point x="510" y="780" type="line"/>
      <point x="301" y="780" type="line" smooth="yes"/>
      <point x="169" y="780"/>
      <point x="20" y="750"/>
      <point x="20" y="534" type="curve" smooth="yes"/>
      <point x="20" y="514" type="line" smooth="yes"/>
      <point x="20" y="298"/>
      <point x="169" y="268"/>
      <point x="301" y="268" type="curve" smooth="yes"/>
      <point x="320" y="268" type="line"/>
    </contour>
  </outline>
</glyph>
<glyph name="periodcentered" format="1">
  <advance width="280"/>
  <unicode hex="00B7"/>
  <outline>
    <contour>
      <point x="235" y="445" type="line"/>
      <point x="45" y="445" type="line"/>
      <point x="45" y="255" type="line"/>
      <point x="235" y="255" type="line"/>
    </contour>
  </outline>
</glyph>
<glyph name="cedilla" format="1">
  <advance width="602"/>
  <unicode hex="00B8"/>
  <outline>
    <contour>
      <point x="141" y="-190" type="line"/>
      <point x="159" y="-202"/>
      <point x="200" y="-216"/>
      <point x="252" y="-216" type="curve" smooth="yes"/>
      <point x="337" y="-216"/>
      <point x="377" y="-183"/>
      <point x="377" y="-125" type="curve" smooth="yes"/>
      <point x="377" y="-69"/>
      <point x="334" y="-42"/>
      <point x="277" y="-37" type="curve"/>
      <point x="292" y="0" type="line"/>
      <point x="212" y="0" type="line"/>
      <point x="184" y="-70" type="line"/>
      <point x="198" y="-99" type="line"/>
      <point x="198" y="-99"/>
      <point x="219" y="-94"/>
      <point x="238" y="-94" type="curve" smooth="yes"/>
      <point x="272" y="-94"/>
      <point x="282" y="-102"/>
      <point x="282" y="-116" type="curve" smooth="yes"/>
      <point x="282" y="-129"/>
      <point x="272" y="-138"/>
      <point x="238" y="-138" type="curve" smooth="yes"/>
      <point x="212" y="-138"/>
      <point x="184" y="-131"/>
      <point x="168" y="-121" type="curve"/>
    </contour>
  </outline>
</glyph>
<glyph name="onesuperior" format="1">
  <advance width="300"/>
  <unicode hex="00B9"/>
  <outline>
    <contour>
      <point x="287" y="390" type="line"/>
      <point x="287" y="503" type="line"/>
      <point x="221" y="503" type="line"/>
      <point x="221" y="778" type="line"/>
      <point x="118" y="778" type="line"/>
      <point x="-2" y="696" type="line"/>
      <point x="62" y="603" type="line"/>
      <point x="89" y="621" type="line"/>
      <point x="89" y="503" type="line"/>
      <point x="22" y="503" type="line"/>
      <point x="22" y="390" type="line"/>
    </contour>
  </outline>
</glyph>
<glyph name="ordmasculine" format="1">
  <advance width="450"/>
  <unicode hex="00BA"/>
  <outline>
    <contour>
      <point x="225" y="376" type="curve" smooth="yes"/>
      <point x="359" y="376"/>
      <point x="422" y="452"/>
      <point x="422" y="569" type="curve" smooth="yes"/>
      <point x="422" y="602" type="line" smooth="yes"/>
      <point x="422" y="719"/>
      <point x="359" y="795"/>
      <point x="225" y="795" type="curve" smooth="yes"/>
      <point x="90" y="795"/>
      <point x="28" y="719"/>
      <point x="28" y="602" type="curve" smooth="yes"/>
      <point x="28" y="569" type="line" smooth="yes"/>
      <point x="28" y="452"/>
      <point x="90" y="376"/>
    </contour>
    <contour>
      <point x="38" y="172" type="line"/>
      <point x="412" y="172" type="line"/>
      <point x="412" y="309" type="line"/>
      <point x="38" y="309" type="line"/>
    </contour>
    <contour>
      <point x="225" y="513" type="curve" smooth="yes"/>
      <point x="198" y="513"/>
      <point x="187" y="531"/>
      <point x="187" y="569" type="curve" smooth="yes"/>
      <point x="187" y="602" type="line" smooth="yes"/>
      <point x="187" y="640"/>
      <point x="198" y="658"/>
      <point x="225" y="658" type="curve" smooth="yes"/>
      <point x="252" y="658"/>
      <point x="263" y="640"/>
      <point x="263" y="602" type="curve" smooth="yes"/>
      <point x="263" y="569" type="line" smooth="yes"/>
      <point x="263" y="531"/>
      <point x="252" y="513"/>
    </contour>
  </outline>
</glyph>
<glyph name="guillemotright" format="1">
  <advance width="580"/>
  <unicode hex="00BB"/>
  <outline>
    <contour>
      <point x="310" y="415" type="line"/>
      <point x="407" y="340" type="line"/>
      <point x="310" y="265" type="line"/>
      <point x="310" y="105" type="line"/>
      <point x="530" y="250" type="line"/>
      <point x="530" y="430" type="line"/>
      <point x="310" y="575" type="line"/>
    </contour>
    <contour>
      <point x="50" y="415" type="line"/>
      <point x="147" y="340" type="line"/>
      <point x="50" y="265" type="line"/>
      <point x="50" y="105" type="line"/>
      <point x="270" y="250" type="line"/>
      <point x="270" y="430" type="line"/>
      <point x="50" y="575" type="line"/>
    </contour>
  </outline>
</glyph>
<glyph name="onequarter" format="1">
  <advance width="800"/>
  <unicode hex="00BC"/>
  <outline>
    <contour>
      <point x="287" y="390" type="line"/>
      <point x="287" y="503" type="line"/>
      <point x="221" y="503" type="line"/>
      <point x="221" y="778" type="line"/>
      <point x="118" y="778" type="line"/>
      <point x="-2" y="696" type="line"/>
      <point x="62" y="603" type="line"/>
      <point x="89" y="621" type="line"/>
      <point x="89" y="503" type="line"/>
      <point x="22" y="503" type="line"/>
      <point x="22" y="390" type="line"/>
    </contour>
    <contour>
      <point x="187" y="0" type="line"/>
      <point x="763" y="780" type="line"/>
      <point x="613" y="780" type="line"/>
      <point x="37" y="0" type="line"/>
    </contour>
    <contour>
      <point x="774" y="0" type="line"/>
      <point x="774" y="63" type="line"/>
      <point x="790" y="63" type="line"/>
      <point x="790" y="177" type="line"/>
      <point x="774" y="177" type="line"/>
      <point x="774" y="390" type="line"/>
      <point x="649" y="390" type="line"/>
      <point x="510" y="156" type="line"/>
      <point x="510" y="63" type="line"/>
      <point x="642" y="63" type="line"/>
      <point x="642" y="0" type="line"/>
    </contour>
    <contour>
      <point x="620" y="175" type="line"/>
      <point x="644" y="215" type="line"/>
      <point x="642" y="175" type="line"/>
    </contour>
  </outline>
</glyph>
<glyph name="onehalf" format="1">
  <advance width="800"/>
  <unicode hex="00BD"/>
  <outline>
    <contour>
      <point x="287" y="390" type="line"/>
      <point x="287" y="503" type="line"/>
      <point x="221" y="503" type="line"/>
      <point x="221" y="778" type="line"/>
      <point x="118" y="778" type="line"/>
      <point x="-2" y="696" type="line"/>
      <point x="62" y="603" type="line"/>
      <point x="89" y="621" type="line"/>
      <point x="89" y="503" type="line"/>
      <point x="22" y="503" type="line"/>
      <point x="22" y="390" type="line"/>
    </contour>
    <contour>
      <point x="187" y="0" type="line"/>
      <point x="763" y="780" type="line"/>
      <point x="613" y="780" type="line"/>
      <point x="37" y="0" type="line"/>
    </contour>
    <contour>
      <point x="785" y="113" type="line"/>
      <point x="693" y="113" type="line"/>
      <point x="743" y="170" type="line" smooth="yes"/>
      <point x="772" y="203"/>
      <point x="785" y="228"/>
      <point x="785" y="272" type="curve" smooth="yes"/>
      <point x="785" y="284" type="line" smooth="yes"/>
      <point x="785" y="324"/>
      <point x="764" y="398"/>
      <point x="650" y="398" type="curve" smooth="yes"/>
      <point x="560" y="398"/>
      <point x="515" y="358"/>
      <point x="515" y="268" type="curve" smooth="yes"/>
      <point x="515" y="260" type="line"/>
      <point x="640" y="260" type="line"/>
      <point x="640" y="284" type="line" smooth="yes"/>
      <point x="640" y="293"/>
      <point x="654" y="293"/>
      <point x="654" y="284" type="curve" smooth="yes"/>
      <point x="654" y="256" type="line" smooth="yes"/>
      <point x="654" y="245"/>
      <point x="650" y="240"/>
      <point x="644" y="233" type="curve" smooth="yes"/>
      <point x="515" y="83" type="line"/>
      <point x="515" y="0" type="line"/>
      <point x="785" y="0" type="line"/>
    </contour>
  </outline>
</glyph>
<glyph name="threequarters" format="1">
  <advance width="800"/>
  <unicode hex="00BE"/>
  <outline>
    <contour>
      <point x="144" y="515" type="line"/>
      <point x="12" y="515" type="line"/>
      <point x="12" y="506" type="line" smooth="yes"/>
      <point x="12" y="424"/>
      <point x="60" y="381"/>
      <point x="150" y="381" type="curve" smooth="yes"/>
      <point x="267" y="381"/>
      <point x="287" y="460"/>
      <point x="287" y="494" type="curve" smooth="yes"/>
      <point x="287" y="505" type="line" smooth="yes"/>
      <point x="287" y="547"/>
      <point x="268" y="577"/>
      <point x="243" y="590" type="curve"/>
      <point x="269" y="603"/>
      <point x="285" y="634"/>
      <point x="285" y="673" type="curve" smooth="yes"/>
      <point x="285" y="684" type="line" smooth="yes"/>
      <point x="285" y="716"/>
      <point x="264" y="788"/>
      <point x="150" y="788" type="curve" smooth="yes"/>
      <point x="60" y="788"/>
      <point x="15" y="748"/>
      <point x="15" y="658" type="curve" smooth="yes"/>
      <point x="15" y="650" type="line"/>
      <point x="140" y="650" type="line"/>
      <point x="140" y="674" type="line" smooth="yes"/>
      <point x="140" y="683"/>
      <point x="154" y="683"/>
      <point x="154" y="674" type="curve" smooth="yes"/>
      <point x="154" y="648" type="line" smooth="yes"/>
      <point x="154" y="641"/>
      <point x="149" y="638"/>
      <point x="142" y="638" type="curve" smooth="yes"/>
      <point x="100" y="638" type="line"/>
      <point x="100" y="532" type="line"/>
      <point x="145" y="532" type="line" smooth="yes"/>
      <point x="153" y="532"/>
      <point x="158" y="529"/>
      <point x="158" y="518" type="curve" smooth="yes"/>
      <point x="158" y="496" type="line" smooth="yes"/>
      <point x="158" y="487"/>
      <point x="144" y="487"/>
      <point x="144" y="496" type="curve" smooth="yes"/>
    </contour>
    <contour>
      <point x="187" y="0" type="line"/>
      <point x="763" y="780" type="line"/>
      <point x="613" y="780" type="line"/>
      <point x="37" y="0" type="line"/>
    </contour>
    <contour>
      <point x="774" y="0" type="line"/>
      <point x="774" y="63" type="line"/>
      <point x="790" y="63" type="line"/>
      <point x="790" y="177" type="line"/>
      <point x="774" y="177" type="line"/>
      <point x="774" y="390" type="line"/>
      <point x="649" y="390" type="line"/>
      <point x="510" y="156" type="line"/>
      <point x="510" y="63" type="line"/>
      <point x="642" y="63" type="line"/>
      <point x="642" y="0" type="line"/>
    </contour>
    <contour>
      <point x="620" y="175" type="line"/>
      <point x="644" y="215" type="line"/>
      <point x="642" y="175" type="line"/>
    </contour>
  </outline>
</glyph>
<glyph name="questiondown" format="1">
  <advance width="510"/>
  <unicode hex="00BF"/>
  <outline>
    <contour>
      <point x="250" y="-52" type="curve" smooth="yes"/>
      <point x="214" y="-52"/>
      <point x="201" y="-37"/>
      <point x="201" y="-10" type="curve" smooth="yes"/>
      <point x="201" y="53"/>
      <point x="340" y="145"/>
      <point x="325" y="290" type="curve"/>
      <point x="195" y="290" type="line"/>
      <point x="180" y="145"/>
      <point x="15" y="167"/>
      <point x="15" y="-25" type="curve" smooth="yes"/>
      <point x="15" y="-112"/>
      <point x="63" y="-214"/>
      <point x="250" y="-214" type="curve" smooth="yes"/>
      <point x="426" y="-214"/>
      <point x="490" y="-130"/>
      <point x="490" y="41" type="curve" smooth="yes"/>
      <point x="490" y="60" type="line"/>
      <point x="304" y="60" type="line"/>
      <point x="304" y="-25"/>
      <point x="289" y="-52"/>
    </contour>
    <contour>
      <point x="165" y="340" type="line"/>
      <point x="355" y="340" type="line"/>
      <point x="355" y="530" type="line"/>
      <point x="165" y="530" type="line"/>
    </contour>
  </outline>
</glyph>
<glyph name="Aacute" format="1">
  <advance width="650"/>
  <unicode hex="00C1"/>
  <outline>
    <contour>
      <point x="195" y="780" type="line"/>
      <point x="9" y="0" type="line"/>
      <point x="213" y="0" type="line"/>
      <point x="244" y="158" type="line"/>
      <point x="406" y="158" type="line"/>
      <point x="438" y="0" type="line"/>
      <point x="641" y="0" type="line"/>
      <point x="455" y="780" type="line"/>
    </contour>
    <contour>
      <point x="287" y="950" type="line"/>
      <point x="234" y="840" type="line"/>
      <point x="416" y="840" type="line"/>
      <point x="480" y="950" type="line"/>
    </contour>
    <contour>
      <point x="325" y="560" type="line"/>
      <point x="373" y="322" type="line"/>
      <point x="277" y="322" type="line"/>
    </contour>
  </outline>
</glyph>
<glyph name="Atilde" format="1">
  <advance width="650"/>
  <unicode hex="00C3"/>
  <outline>
    <contour>
      <point x="195" y="780" type="line"/>
      <point x="9" y="0" type="line"/>
      <point x="213" y="0" type="line"/>
      <point x="244" y="158" type="line"/>
      <point x="406" y="158" type="line"/>
      <point x="438" y="0" type="line"/>
      <point x="641" y="0" type="line"/>
      <point x="455" y="780" type="line"/>
    </contour>
    <contour>
      <point x="425" y="950" type="line"/>
      <point x="425" y="927"/>
      <point x="410" y="920"/>
      <point x="392" y="920" type="curve" smooth="yes"/>
      <point x="355" y="920"/>
      <point x="305" y="966"/>
      <point x="240" y="966" type="curve" smooth="yes"/>
      <point x="184" y="966"/>
      <point x="130" y="935"/>
      <point x="130" y="840" type="curve"/>
      <point x="225" y="840" type="line"/>
      <point x="225" y="863"/>
      <point x="240" y="870"/>
      <point x="258" y="870" type="curve" smooth="yes"/>
      <point x="295" y="870"/>
      <point x="345" y="824"/>
      <point x="410" y="824" type="curve" smooth="yes"/>
      <point x="466" y="824"/>
      <point x="520" y="855"/>
      <point x="520" y="950" type="curve"/>
    </contour>
    <contour>
      <point x="325" y="560" type="line"/>
      <point x="373" y="322" type="line"/>
      <point x="277" y="322" type="line"/>
    </contour>
  </outline>
</glyph>
<glyph name="Adieresis" format="1">
  <advance width="650"/>
  <unicode hex="00C4"/>
  <outline>
    <contour>
      <point x="195" y="780" type="line"/>
      <point x="9" y="0" type="line"/>
      <point x="213" y="0" type="line"/>
      <point x="244" y="158" type="line"/>
      <point x="406" y="158" type="line"/>
      <point x="438" y="0" type="line"/>
      <point x="641" y="0" type="line"/>
      <point x="455" y="780" type="line"/>
    </contour>
    <contour>
      <point x="310" y="950" type="line"/>
      <point x="160" y="950" type="line"/>
      <point x="160" y="840" type="line"/>
      <point x="310" y="840" type="line"/>
    </contour>
    <contour>
      <point x="490" y="950" type="line"/>
      <point x="340" y="950" type="line"/>
      <point x="340" y="840" type="line"/>
      <point x="490" y="840" type="line"/>
    </contour>
    <contour>
      <point x="325" y="560" type="line"/>
      <point x="373" y="322" type="line"/>
      <point x="277" y="322" type="line"/>
    </contour>
  </outline>
</glyph>
<glyph name="Aring" format="1">
  <advance width="650"/>
  <unicode hex="00C5"/>
  <outline>
    <contour>
      <point x="216" y="855" type="curve" smooth="yes"/>
      <point x="216" y="826"/>
      <point x="227" y="799"/>
      <point x="246" y="780" type="curve"/>
      <point x="195" y="780" type="line"/>
      <point x="9" y="0" type="line"/>
      <point x="213" y="0" type="line"/>
      <point x="244" y="158" type="line"/>
      <point x="406" y="158" type="line"/>
      <point x="438" y="0" type="line"/>
      <point x="641" y="0" type="line"/>
      <point x="455" y="780" type="line"/>
      <point x="404" y="780" type="line"/>
      <point x="422" y="799"/>
      <point x="434" y="826"/>
      <point x="434" y="855" type="curve" smooth="yes"/>
      <point x="434" y="915"/>
      <point x="385" y="964"/>
      <point x="325" y="964" type="curve" smooth="yes"/>
      <point x="265" y="964"/>
      <point x="216" y="915"/>
    </contour>
    <contour>
      <point x="325" y="560" type="line"/>
      <point x="373" y="322" type="line"/>
      <point x="277" y="322" type="line"/>
    </contour>
    <contour>
      <point x="276" y="855" type="curve" smooth="yes"/>
      <point x="276" y="882"/>
      <point x="298" y="904"/>
      <point x="325" y="904" type="curve" smooth="yes"/>
      <point x="352" y="904"/>
      <point x="374" y="882"/>
      <point x="374" y="855" type="curve" smooth="yes"/>
      <point x="374" y="828"/>
      <point x="352" y="806"/>
      <point x="325" y="806" type="curve" smooth="yes"/>
      <point x="298" y="806"/>
      <point x="276" y="828"/>
    </contour>
  </outline>
</glyph>
<glyph name="AE" format="1">
  <advance width="900"/>
  <unicode hex="00C6"/>
  <outline>
    <contour>
      <point x="271" y="780" type="line"/>
      <point x="4" y="0" type="line"/>
      <point x="208" y="0" type="line"/>
      <point x="256" y="158" type="line"/>
      <point x="417" y="158" type="line"/>
      <point x="433" y="0" type="line"/>
      <point x="860" y="0" type="line"/>
      <point x="860" y="164" type="line"/>
      <point x="614" y="164" type="line"/>
      <point x="593" y="316" type="line"/>
      <point x="810" y="316" type="line"/>
      <point x="810" y="480" type="line"/>
      <point x="571" y="480" type="line"/>
      <point x="553" y="616" type="line"/>
      <point x="860" y="616" type="line"/>
      <point x="860" y="780" type="line"/>
    </contour>
    <contour>
      <point x="378" y="560" type="line"/>
      <point x="401" y="322" type="line"/>
      <point x="306" y="322" type="line"/>
    </contour>
  </outline>
</glyph>
<glyph name="Ccedilla" format="1">
  <advance width="660"/>
  <unicode hex="00C7"/>
  <outline>
    <contour>
      <point x="236" y="-190" type="line"/>
      <point x="254" y="-202"/>
      <point x="295" y="-216"/>
      <point x="347" y="-216" type="curve" smooth="yes"/>
      <point x="432" y="-216"/>
      <point x="472" y="-183"/>
      <point x="472" y="-125" type="curve" smooth="yes"/>
      <point x="472" y="-69"/>
      <point x="429" y="-42"/>
      <point x="372" y="-37" type="curve"/>
      <point x="382" y="-12" type="line"/>
      <point x="542" y="0"/>
      <point x="625" y="77"/>
      <point x="625" y="261" type="curve" smooth="yes"/>
      <point x="625" y="270" type="line"/>
      <point x="435" y="270" type="line"/>
      <point x="435" y="200"/>
      <point x="412" y="150"/>
      <point x="345" y="150" type="curve" smooth="yes"/>
      <point x="335" y="150" type="line" smooth="yes"/>
      <point x="240" y="150"/>
      <point x="226" y="235"/>
      <point x="226" y="370" type="curve" smooth="yes"/>
      <point x="226" y="410" type="line" smooth="yes"/>
      <point x="226" y="545"/>
      <point x="240" y="630"/>
      <point x="335" y="630" type="curve" smooth="yes"/>
      <point x="345" y="630" type="line" smooth="yes"/>
      <point x="420" y="630"/>
      <point x="435" y="570"/>
      <point x="435" y="480" type="curve"/>
      <point x="625" y="480" type="line"/>
      <point x="625" y="519" type="line" smooth="yes"/>
      <point x="625" y="720"/>
      <point x="526" y="794"/>
      <point x="335" y="794" type="curve" smooth="yes"/>
      <point x="125" y="794"/>
      <point x="33" y="680"/>
      <point x="33" y="410" type="curve" smooth="yes"/>
      <point x="33" y="370" type="line" smooth="yes"/>
      <point x="33" y="114"/>
      <point x="115" y="-1"/>
      <point x="302" y="-13" type="curve"/>
      <point x="279" y="-70" type="line"/>
      <point x="293" y="-99" type="line"/>
      <point x="293" y="-99"/>
      <point x="314" y="-94"/>
      <point x="333" y="-94" type="curve" smooth="yes"/>
      <point x="367" y="-94"/>
      <point x="377" y="-102"/>
      <point x="377" y="-116" type="curve" smooth="yes"/>
      <point x="377" y="-129"/>
      <point x="367" y="-138"/>
      <point x="333" y="-138" type="curve" smooth="yes"/>
      <point x="307" y="-138"/>
      <point x="279" y="-131"/>
      <point x="263" y="-121" type="curve"/>
    </contour>
  </outline>
</glyph>
<glyph name="Egrave" format="1">
  <advance width="580"/>
  <unicode hex="00C8"/>
  <outline>
    <contour>
      <point x="50" y="780" type="line"/>
      <point x="50" y="0" type="line"/>
      <point x="540" y="0" type="line"/>
      <point x="540" y="164" type="line"/>
      <point x="240" y="164" type="line"/>
      <point x="240" y="316" type="line"/>
      <point x="490" y="316" type="line"/>
      <point x="490" y="480" type="line"/>
      <point x="240" y="480" type="line"/>
      <point x="240" y="616" type="line"/>
      <point x="540" y="616" type="line"/>
      <point x="540" y="780" type="line"/>
    </contour>
    <contour>
      <point x="140" y="950" type="line"/>
      <point x="204" y="840" type="line"/>
      <point x="386" y="840" type="line"/>
      <point x="333" y="950" type="line"/>
    </contour>
  </outline>
</glyph>
<glyph name="Ecircumflex" format="1">
  <advance width="580"/>
  <unicode hex="00CA"/>
  <outline>
    <contour>
      <point x="50" y="780" type="line"/>
      <point x="50" y="0" type="line"/>
      <point x="540" y="0" type="line"/>
      <point x="540" y="164" type="line"/>
      <point x="240" y="164" type="line"/>
      <point x="240" y="316" type="line"/>
      <point x="490" y="316" type="line"/>
      <point x="490" y="480" type="line"/>
      <point x="240" y="480" type="line"/>
      <point x="240" y="616" type="line"/>
      <point x="540" y="616" type="line"/>
      <point x="540" y="780" type="line"/>
    </contour>
    <contour>
      <point x="235" y="840" type="line"/>
      <point x="295" y="879" type="line"/>
      <point x="355" y="840" type="line"/>
      <point x="520" y="840" type="line"/>
      <point x="390" y="950" type="line"/>
      <point x="200" y="950" type="line"/>
      <point x="70" y="840" type="line"/>
    </contour>
  </outline>
</glyph>
<glyph name="Edieresis" format="1">
  <advance width="580"/>
  <unicode hex="00CB"/>
  <outline>
    <contour>
      <point x="50" y="780" type="line"/>
      <point x="50" y="0" type="line"/>
      <point x="540" y="0" type="line"/>
      <point x="540" y="164" type="line"/>
      <point x="240" y="164" type="line"/>
      <point x="240" y="316" type="line"/>
      <point x="490" y="316" type="line"/>
      <point x="490" y="480" type="line"/>
      <point x="240" y="480" type="line"/>
      <point x="240" y="616" type="line"/>
      <point x="540" y="616" type="line"/>
      <point x="540" y="780" type="line"/>
    </contour>
    <contour>
      <point x="460" y="950" type="line"/>
      <point x="310" y="950" type="line"/>
      <point x="310" y="840" type="line"/>
      <point x="460" y="840" type="line"/>
    </contour>
    <contour>
      <point x="280" y="950" type="line"/>
      <point x="130" y="950" type="line"/>
      <point x="130" y="840" type="line"/>
      <point x="280" y="840" type="line"/>
    </contour>
  </outline>
</glyph>
<glyph name="Igrave" format="1">
  <advance width="300"/>
  <unicode hex="00CC"/>
  <outline>
    <contour>
      <point x="245" y="780" type="line"/>
      <point x="55" y="780" type="line"/>
      <point x="55" y="0" type="line"/>
      <point x="245" y="0" type="line"/>
    </contour>
    <contour>
      <point x="-5" y="950" type="line"/>
      <point x="59" y="840" type="line"/>
      <point x="241" y="840" type="line"/>
      <point x="188" y="950" type="line"/>
    </contour>
  </outline>
</glyph>
<glyph name="Icircumflex" format="1">
  <advance width="300"/>
  <unicode hex="00CE"/>
  <outline>
    <contour>
      <point x="245" y="780" type="line"/>
      <point x="55" y="780" type="line"/>
      <point x="55" y="0" type="line"/>
      <point x="245" y="0" type="line"/>
    </contour>
    <contour>
      <point x="90" y="840" type="line"/>
      <point x="150" y="879" type="line"/>
      <point x="210" y="840" type="line"/>
      <point x="375" y="840" type="line"/>
      <point x="245" y="950" type="line"/>
      <point x="55" y="950" type="line"/>
      <point x="-75" y="840" type="line"/>
    </contour>
  </outline>
</glyph>
<glyph name="Idieresis" format="1">
  <advance width="300"/>
  <unicode hex="00CF"/>
  <outline>
    <contour>
      <point x="245" y="780" type="line"/>
      <point x="55" y="780" type="line"/>
      <point x="55" y="0" type="line"/>
      <point x="245" y="0" type="line"/>
    </contour>
    <contour>
      <point x="315" y="950" type="line"/>
      <point x="165" y="950" type="line"/>
      <point x="165" y="840" type="line"/>
      <point x="315" y="840" type="line"/>
    </contour>
    <contour>
      <point x="135" y="950" type="line"/>
      <point x="-15" y="950" type="line"/>
      <point x="-15" y="840" type="line"/>
      <point x="135" y="840" type="line"/>
    </contour>
  </outline>
</glyph>
<glyph name="Ntilde" format="1">
  <advance width="690"/>
  <unicode hex="00D1"/>
  <outline>
    <contour>
      <point x="640" y="780" type="line"/>
      <point x="460" y="780" type="line"/>
      <point x="460" y="500" type="line"/>
      <point x="465" y="350" type="line"/>
      <point x="250" y="780" type="line"/>
      <point x="50" y="780" type="line"/>
      <point x="50" y="0" type="line"/>
      <point x="230" y="0" type="line"/>
      <point x="230" y="280" type="line"/>
      <point x="225" y="430" type="line"/>
      <point x="440" y="0" type="line"/>
      <point x="640" y="0" type="line"/>
    </contour>
    <contour>
      <point x="445" y="950" type="line"/>
      <point x="445" y="927"/>
      <point x="430" y="920"/>
      <point x="412" y="920" type="curve" smooth="yes"/>
      <point x="375" y="920"/>
      <point x="325" y="966"/>
      <point x="260" y="966" type="curve" smooth="yes"/>
      <point x="204" y="966"/>
      <point x="150" y="935"/>
      <point x="150" y="840" type="curve"/>
      <point x="245" y="840" type="line"/>
      <point x="245" y="863"/>
      <point x="260" y="870"/>
      <point x="278" y="870" type="curve" smooth="yes"/>
      <point x="315" y="870"/>
      <point x="365" y="824"/>
      <point x="430" y="824" type="curve" smooth="yes"/>
      <point x="486" y="824"/>
      <point x="540" y="855"/>
      <point x="540" y="950" type="curve"/>
    </contour>
  </outline>
</glyph>
<glyph name="Otilde" format="1">
  <advance width="680"/>
  <unicode hex="00D5"/>
  <outline>
    <contour>
      <point x="340" y="-14" type="curve" smooth="yes"/>
      <point x="550" y="-14"/>
      <point x="647" y="100"/>
      <point x="647" y="370" type="curve" smooth="yes"/>
      <point x="647" y="410" type="line" smooth="yes"/>
      <point x="647" y="680"/>
      <point x="550" y="794"/>
      <point x="340" y="794" type="curve" smooth="yes"/>
      <point x="130" y="794"/>
      <point x="33" y="680"/>
      <point x="33" y="410" type="curve" smooth="yes"/>
      <point x="33" y="370" type="line" smooth="yes"/>
      <point x="33" y="100"/>
      <point x="130" y="-14"/>
    </contour>
    <contour>
      <point x="335" y="150" type="line" smooth="yes"/>
      <point x="245" y="150"/>
      <point x="226" y="235"/>
      <point x="226" y="370" type="curve" smooth="yes"/>
      <point x="226" y="410" type="line" smooth="yes"/>
      <point x="226" y="545"/>
      <point x="245" y="630"/>
      <point x="335" y="630" type="curve" smooth="yes"/>
      <point x="345" y="630" type="line" smooth="yes"/>
      <point x="435" y="630"/>
      <point x="454" y="545"/>
      <point x="454" y="410" type="curve" smooth="yes"/>
      <point x="454" y="370" type="line" smooth="yes"/>
      <point x="454" y="235"/>
      <point x="435" y="150"/>
      <point x="345" y="150" type="curve" smooth="yes"/>
    </contour>
    <contour>
      <point x="440" y="950" type="line"/>
      <point x="440" y="927"/>
      <point x="425" y="920"/>
      <point x="407" y="920" type="curve" smooth="yes"/>
      <point x="370" y="920"/>
      <point x="320" y="966"/>
      <point x="255" y="966" type="curve" smooth="yes"/>
      <point x="199" y="966"/>
      <point x="145" y="935"/>
      <point x="145" y="840" type="curve"/>
      <point x="240" y="840" type="line"/>
      <point x="240" y="863"/>
      <point x="255" y="870"/>
      <point x="273" y="870" type="curve" smooth="yes"/>
      <point x="310" y="870"/>
      <point x="360" y="824"/>
      <point x="425" y="824" type="curve" smooth="yes"/>
      <point x="481" y="824"/>
      <point x="535" y="855"/>
      <point x="535" y="950" type="curve"/>
    </contour>
  </outline>
</glyph>
<glyph name="multiply" format="1">
  <advance width="600"/>
  <unicode hex="00D7"/>
  <outline>
    <contour>
      <point x="143" y="117" type="line"/>
      <point x="300" y="274" type="line"/>
      <point x="457" y="117" type="line"/>
      <point x="573" y="233" type="line"/>
      <point x="416" y="390" type="line"/>
      <point x="573" y="547" type="line"/>
      <point x="457" y="663" type="line"/>
      <point x="300" y="506" type="line"/>
      <point x="143" y="663" type="line"/>
      <point x="27" y="547" type="line"/>
      <point x="184" y="390" type="line"/>
      <point x="27" y="233" type="line"/>
    </contour>
  </outline>
</glyph>
<glyph name="Oslash" format="1">
  <advance width="680"/>
  <unicode hex="00D8"/>
  <outline>
    <contour>
      <point x="33" y="410" type="curve" smooth="yes"/>
      <point x="33" y="370" type="line" smooth="yes"/>
      <point x="33" y="247"/>
      <point x="53" y="157"/>
      <point x="94" y="95" type="curve"/>
      <point x="33" y="0" type="line"/>
      <point x="143" y="0" type="line"/>
      <point x="161" y="29" type="line"/>
      <point x="208" y="0"/>
      <point x="267" y="-14"/>
      <point x="340" y="-14" type="curve" smooth="yes"/>
      <point x="550" y="-14"/>
      <point x="647" y="100"/>
      <point x="647" y="370" type="curve" smooth="yes"/>
      <point x="647" y="410" type="line" smooth="yes"/>
      <point x="647" y="532"/>
      <point x="627" y="623"/>
      <point x="585" y="685" type="curve"/>
      <point x="647" y="780" type="line"/>
      <point x="537" y="780" type="line"/>
      <point x="518" y="751" type="line"/>
      <point x="472" y="780"/>
      <point x="413" y="794"/>
      <point x="340" y="794" type="curve" smooth="yes"/>
      <point x="130" y="794"/>
      <point x="33" y="680"/>
    </contour>
    <contour>
      <point x="454" y="410" type="curve" smooth="yes"/>
      <point x="454" y="370" type="line" smooth="yes"/>
      <point x="454" y="235"/>
      <point x="435" y="150"/>
      <point x="345" y="150" type="curve" smooth="yes"/>
      <point x="335" y="150" type="line" smooth="yes"/>
      <point x="301" y="150"/>
      <point x="278" y="162"/>
      <point x="261" y="183" type="curve"/>
      <point x="452" y="478" type="line"/>
      <point x="453" y="457"/>
      <point x="454" y="434"/>
    </contour>
    <contour>
      <point x="226" y="370" type="curve" smooth="yes"/>
      <point x="226" y="410" type="line" smooth="yes"/>
      <point x="226" y="545"/>
      <point x="245" y="630"/>
      <point x="335" y="630" type="curve" smooth="yes"/>
      <point x="345" y="630" type="line" smooth="yes"/>
      <point x="378" y="630"/>
      <point x="402" y="618"/>
      <point x="418" y="596" type="curve"/>
      <point x="228" y="302" type="line"/>
      <point x="226" y="323"/>
      <point x="226" y="345"/>
    </contour>
  </outline>
</glyph>
<glyph name="Ucircumflex" format="1">
  <advance width="670"/>
  <unicode hex="00DB"/>
  <outline>
    <contour>
      <point x="335" y="-14" type="curve" smooth="yes"/>
      <point x="561" y="-14"/>
      <point x="625" y="84"/>
      <point x="625" y="248" type="curve" smooth="yes"/>
      <point x="625" y="780" type="line"/>
      <point x="435" y="780" type="line"/>
      <point x="435" y="253" type="line" smooth="yes"/>
      <point x="435" y="191"/>
      <point x="418" y="150"/>
      <point x="335" y="150" type="curve" smooth="yes"/>
      <point x="252" y="150"/>
      <point x="235" y="191"/>
      <point x="235" y="253" type="curve" smooth="yes"/>
      <point x="235" y="780" type="line"/>
      <point x="45" y="780" type="line"/>
      <point x="45" y="248" type="line" smooth="yes"/>
      <point x="45" y="84"/>
      <point x="109" y="-14"/>
    </contour>
    <contour>
      <point x="275" y="840" type="line"/>
      <point x="335" y="879" type="line"/>
      <point x="395" y="840" type="line"/>
      <point x="560" y="840" type="line"/>
      <point x="430" y="950" type="line"/>
      <point x="240" y="950" type="line"/>
      <point x="110" y="840" type="line"/>
    </contour>
  </outline>
</glyph>
<glyph name="Udieresis" format="1">
  <advance width="670"/>
  <unicode hex="00DC"/>
  <outline>
    <contour>
      <point x="335" y="-14" type="curve" smooth="yes"/>
      <point x="561" y="-14"/>
      <point x="625" y="84"/>
      <point x="625" y="248" type="curve" smooth="yes"/>
      <point x="625" y="780" type="line"/>
      <point x="435" y="780" type="line"/>
      <point x="435" y="253" type="line" smooth="yes"/>
      <point x="435" y="191"/>
      <point x="418" y="150"/>
      <point x="335" y="150" type="curve" smooth="yes"/>
      <point x="252" y="150"/>
      <point x="235" y="191"/>
      <point x="235" y="253" type="curve" smooth="yes"/>
      <point x="235" y="780" type="line"/>
      <point x="45" y="780" type="line"/>
      <point x="45" y="248" type="line" smooth="yes"/>
      <point x="45" y="84"/>
      <point x="109" y="-14"/>
    </contour>
    <contour>
      <point x="500" y="950" type="line"/>
      <point x="350" y="950" type="line"/>
      <point x="350" y="840" type="line"/>
      <point x="500" y="840" type="line"/>
    </contour>
    <contour>
      <point x="320" y="950" type="line"/>
      <point x="170" y="950" type="line"/>
      <point x="170" y="840" type="line"/>
      <point x="320" y="840" type="line"/>
    </contour>
  </outline>
</glyph>
<glyph name="Yacute" format="1">
  <advance width="640"/>
  <unicode hex="00DD"/>
  <outline>
    <contour>
      <point x="415" y="240" type="line"/>
      <point x="636" y="780" type="line"/>
      <point x="428" y="780" type="line"/>
      <point x="320" y="474" type="line"/>
      <point x="212" y="780" type="line"/>
      <point x="4" y="780" type="line"/>
      <point x="225" y="240" type="line"/>
      <point x="225" y="0" type="line"/>
      <point x="415" y="0" type="line"/>
    </contour>
    <contour>
      <point x="282" y="950" type="line"/>
      <point x="229" y="840" type="line"/>
      <point x="411" y="840" type="line"/>
      <point x="475" y="950" type="line"/>
    </contour>
  </outline>
</glyph>
<glyph name="Thorn" format="1">
  <advance width="620"/>
  <unicode hex="00DE"/>
  <outline>
    <contour>
      <point x="240" y="780" type="line"/>
      <point x="50" y="780" type="line"/>
      <point x="50" y="0" type="line"/>
      <point x="240" y="0" type="line"/>
      <point x="240" y="134" type="line"/>
      <point x="319" y="134" type="line" smooth="yes"/>
      <point x="451" y="134"/>
      <point x="600" y="164"/>
      <point x="600" y="380" type="curve" smooth="yes"/>
      <point x="600" y="400" type="line" smooth="yes"/>
      <point x="600" y="616"/>
      <point x="451" y="646"/>
      <point x="319" y="646" type="curve" smooth="yes"/>
      <point x="240" y="646" type="line"/>
    </contour>
    <contour>
      <point x="240" y="298" type="line"/>
      <point x="240" y="482" type="line"/>
      <point x="327" y="482" type="line" smooth="yes"/>
      <point x="364" y="482"/>
      <point x="408" y="468"/>
      <point x="408" y="394" type="curve" smooth="yes"/>
      <point x="408" y="386" type="line" smooth="yes"/>
      <point x="408" y="312"/>
      <point x="364" y="298"/>
      <point x="327" y="298" type="curve" smooth="yes"/>
    </contour>
  </outline>
</glyph>
<glyph name="germandbls" format="1">
  <advance width="650"/>
  <unicode hex="00DF"/>
  <outline>
    <contour>
      <point x="291" y="324" type="line"/>
      <point x="389" y="256" type="line" smooth="yes"/>
      <point x="436" y="224"/>
      <point x="448" y="185"/>
      <point x="448" y="163" type="curve" smooth="yes"/>
      <point x="448" y="142"/>
      <point x="445" y="124"/>
      <point x="425" y="124" type="curve" smooth="yes"/>
      <point x="407" y="124"/>
      <point x="401" y="141"/>
      <point x="401" y="170" type="curve"/>
      <point x="258" y="170" type="line"/>
      <point x="258" y="161" type="line" smooth="yes"/>
      <point x="258" y="65"/>
      <point x="291" y="-14"/>
      <point x="440" y="-14" type="curve" smooth="yes"/>
      <point x="589" y="-14"/>
      <point x="632" y="70"/>
      <point x="632" y="166" type="curve" smooth="yes"/>
      <point x="632" y="176" type="line" smooth="yes"/>
      <point x="632" y="257"/>
      <point x="583" y="327"/>
      <point x="494" y="387" type="curve" smooth="yes"/>
      <point x="478" y="398" type="line"/>
      <point x="534" y="441"/>
      <point x="569" y="494"/>
      <point x="569" y="579" type="curve" smooth="yes"/>
      <point x="569" y="590" type="line" smooth="yes"/>
      <point x="569" y="705"/>
      <point x="488" y="814"/>
      <point x="307" y="814" type="curve" smooth="yes"/>
      <point x="113" y="814"/>
      <point x="44" y="713"/>
      <point x="44" y="589" type="curve" smooth="yes"/>
      <point x="44" y="0" type="line"/>
      <point x="228" y="0" type="line"/>
      <point x="228" y="580" type="line" smooth="yes"/>
      <point x="228" y="615"/>
      <point x="250" y="656"/>
      <point x="307" y="656" type="curve" smooth="yes"/>
      <point x="363" y="656"/>
      <point x="385" y="621"/>
      <point x="385" y="570" type="curve" smooth="yes"/>
      <point x="385" y="514"/>
      <point x="343" y="467"/>
      <point x="291" y="439" type="curve"/>
    </contour>
  </outline>
</glyph>
<glyph name="atilde" format="1">
  <advance width="560"/>
  <unicode hex="00E3"/>
  <outline>
    <contour>
      <point x="360" y="0" type="line"/>
      <point x="526" y="0" type="line"/>
      <point x="516" y="150" type="line"/>
      <point x="516" y="340" type="line" smooth="yes"/>
      <point x="516" y="471"/>
      <point x="461" y="544"/>
      <point x="280" y="544" type="curve" smooth="yes"/>
      <point x="100" y="544"/>
      <point x="45" y="460"/>
      <point x="45" y="364" type="curve" smooth="yes"/>
      <point x="45" y="355" type="line"/>
      <point x="218" y="355" type="line"/>
      <point x="218" y="380"/>
      <point x="230" y="406"/>
      <point x="275" y="406" type="curve" smooth="yes"/>
      <point x="315" y="406"/>
      <point x="330" y="388"/>
      <point x="332" y="350" type="curve"/>
      <point x="220" y="332" type="line" smooth="yes"/>
      <point x="102" y="314"/>
      <point x="25" y="275"/>
      <point x="25" y="160" type="curve" smooth="yes"/>
      <point x="25" y="150" type="line" smooth="yes"/>
      <point x="25" y="65"/>
      <point x="65" y="-14"/>
      <point x="190" y="-14" type="curve" smooth="yes"/>
      <point x="260" y="-14"/>
      <point x="313" y="11"/>
      <point x="350" y="50" type="curve"/>
    </contour>
    <contour>
      <point x="375" y="780" type="line"/>
      <point x="375" y="755"/>
      <point x="363" y="745"/>
      <point x="345" y="745" type="curve" smooth="yes"/>
      <point x="305" y="745"/>
      <point x="250" y="796"/>
      <point x="185" y="796" type="curve" smooth="yes"/>
      <point x="119" y="796"/>
      <point x="65" y="745"/>
      <point x="65" y="620" type="curve"/>
      <point x="185" y="620" type="line"/>
      <point x="185" y="645"/>
      <point x="197" y="655"/>
      <point x="215" y="655" type="curve" smooth="yes"/>
      <point x="255" y="655"/>
      <point x="310" y="604"/>
      <point x="375" y="604" type="curve" smooth="yes"/>
      <point x="441" y="604"/>
      <point x="495" y="655"/>
      <point x="495" y="780" type="curve"/>
    </contour>
    <contour>
      <point x="260" y="134" type="curve" smooth="yes"/>
      <point x="222" y="134"/>
      <point x="208" y="156"/>
      <point x="208" y="177" type="curve" smooth="yes"/>
      <point x="208" y="183" type="line" smooth="yes"/>
      <point x="208" y="207"/>
      <point x="217" y="226"/>
      <point x="260" y="233" type="curve" smooth="yes"/>
      <point x="332" y="244" type="line"/>
      <point x="332" y="163" type="line"/>
      <point x="317" y="149"/>
      <point x="291" y="134"/>
    </contour>
  </outline>
</glyph>
<glyph name="adieresis" format="1">
  <advance width="560"/>
  <unicode hex="00E4"/>
  <outline>
    <contour>
      <point x="360" y="0" type="line"/>
      <point x="526" y="0" type="line"/>
      <point x="516" y="150" type="line"/>
      <point x="516" y="340" type="line" smooth="yes"/>
      <point x="516" y="471"/>
      <point x="461" y="544"/>
      <point x="280" y="544" type="curve" smooth="yes"/>
      <point x="100" y="544"/>
      <point x="45" y="460"/>
      <point x="45" y="364" type="curve" smooth="yes"/>
      <point x="45" y="355" type="line"/>
      <point x="218" y="355" type="line"/>
      <point x="218" y="380"/>
      <point x="230" y="406"/>
      <point x="275" y="406" type="curve" smooth="yes"/>
      <point x="315" y="406"/>
      <point x="330" y="388"/>
      <point x="332" y="350" type="curve"/>
      <point x="220" y="332" type="line" smooth="yes"/>
      <point x="102" y="314"/>
      <point x="25" y="275"/>
      <point x="25" y="160" type="curve" smooth="yes"/>
      <point x="25" y="150" type="line" smooth="yes"/>
      <point x="25" y="65"/>
      <point x="65" y="-14"/>
      <point x="190" y="-14" type="curve" smooth="yes"/>
      <point x="260" y="-14"/>
      <point x="313" y="11"/>
      <point x="350" y="50" type="curve"/>
    </contour>
    <contour>
      <point x="260" y="780" type="line"/>
      <point x="70" y="780" type="line"/>
      <point x="70" y="590" type="line"/>
      <point x="260" y="590" type="line"/>
    </contour>
    <contour>
      <point x="490" y="780" type="line"/>
      <point x="300" y="780" type="line"/>
      <point x="300" y="590" type="line"/>
      <point x="490" y="590" type="line"/>
    </contour>
    <contour>
      <point x="260" y="134" type="curve" smooth="yes"/>
      <point x="222" y="134"/>
      <point x="208" y="156"/>
      <point x="208" y="177" type="curve" smooth="yes"/>
      <point x="208" y="183" type="line" smooth="yes"/>
      <point x="208" y="207"/>
      <point x="217" y="226"/>
      <point x="260" y="233" type="curve" smooth="yes"/>
      <point x="332" y="244" type="line"/>
      <point x="332" y="163" type="line"/>
      <point x="317" y="149"/>
      <point x="291" y="134"/>
    </contour>
  </outline>
</glyph>
<glyph name="aring" format="1">
  <advance width="560"/>
  <unicode hex="00E5"/>
  <outline>
    <contour>
      <point x="360" y="0" type="line"/>
      <point x="526" y="0" type="line"/>
      <point x="516" y="150" type="line"/>
      <point x="516" y="340" type="line" smooth="yes"/>
      <point x="516" y="471"/>
      <point x="461" y="544"/>
      <point x="280" y="544" type="curve" smooth="yes"/>
      <point x="100" y="544"/>
      <point x="45" y="460"/>
      <point x="45" y="364" type="curve" smooth="yes"/>
      <point x="45" y="355" type="line"/>
      <point x="218" y="355" type="line"/>
      <point x="218" y="380"/>
      <point x="230" y="406"/>
      <point x="275" y="406" type="curve" smooth="yes"/>
      <point x="315" y="406"/>
      <point x="330" y="388"/>
      <point x="332" y="350" type="curve"/>
      <point x="220" y="332" type="line" smooth="yes"/>
      <point x="102" y="314"/>
      <point x="25" y="275"/>
      <point x="25" y="160" type="curve" smooth="yes"/>
      <point x="25" y="150" type="line" smooth="yes"/>
      <point x="25" y="65"/>
      <point x="65" y="-14"/>
      <point x="190" y="-14" type="curve" smooth="yes"/>
      <point x="260" y="-14"/>
      <point x="313" y="11"/>
      <point x="350" y="50" type="curve"/>
    </contour>
    <contour>
      <point x="171" y="685" type="curve" smooth="yes"/>
      <point x="171" y="625"/>
      <point x="220" y="576"/>
      <point x="280" y="576" type="curve" smooth="yes"/>
      <point x="340" y="576"/>
      <point x="389" y="625"/>
      <point x="389" y="685" type="curve" smooth="yes"/>
      <point x="389" y="745"/>
      <point x="340" y="794"/>
      <point x="280" y="794" type="curve" smooth="yes"/>
      <point x="220" y="794"/>
      <point x="171" y="745"/>
    </contour>
    <contour>
      <point x="260" y="134" type="curve" smooth="yes"/>
      <point x="222" y="134"/>
      <point x="208" y="156"/>
      <point x="208" y="177" type="curve" smooth="yes"/>
      <point x="208" y="183" type="line" smooth="yes"/>
      <point x="208" y="207"/>
      <point x="217" y="226"/>
      <point x="260" y="233" type="curve" smooth="yes"/>
      <point x="332" y="244" type="line"/>
      <point x="332" y="163" type="line"/>
      <point x="317" y="149"/>
      <point x="291" y="134"/>
    </contour>
    <contour>
      <point x="231" y="685" type="curve" smooth="yes"/>
      <point x="231" y="712"/>
      <point x="253" y="734"/>
      <point x="280" y="734" type="curve" smooth="yes"/>
      <point x="307" y="734"/>
      <point x="329" y="712"/>
      <point x="329" y="685" type="curve" smooth="yes"/>
      <point x="329" y="658"/>
      <point x="307" y="636"/>
      <point x="280" y="636" type="curve" smooth="yes"/>
      <point x="253" y="636"/>
      <point x="231" y="658"/>
    </contour>
  </outline>
</glyph>
<glyph name="ae" format="1">
  <advance width="856"/>
  <unicode hex="00E6"/>
  <outline>
    <contour>
      <point x="842" y="200" type="line"/>
      <point x="842" y="280" type="line" smooth="yes"/>
      <point x="842" y="435"/>
      <point x="762" y="544"/>
      <point x="591" y="544" type="curve" smooth="yes"/>
      <point x="525" y="544"/>
      <point x="476" y="525"/>
      <point x="441" y="493" type="curve"/>
      <point x="410" y="525"/>
      <point x="361" y="544"/>
      <point x="280" y="544" type="curve" smooth="yes"/>
      <point x="100" y="544"/>
      <point x="45" y="460"/>
      <point x="45" y="364" type="curve" smooth="yes"/>
      <point x="45" y="355" type="line"/>
      <point x="218" y="355" type="line"/>
      <point x="218" y="380"/>
      <point x="230" y="406"/>
      <point x="275" y="406" type="curve" smooth="yes"/>
      <point x="315" y="406"/>
      <point x="330" y="388"/>
      <point x="332" y="349" type="curve"/>
      <point x="222" y="332" type="line" smooth="yes"/>
      <point x="104" y="314"/>
      <point x="25" y="275"/>
      <point x="25" y="160" type="curve" smooth="yes"/>
      <point x="25" y="150" type="line" smooth="yes"/>
      <point x="25" y="65"/>
      <point x="70" y="-14"/>
      <point x="205" y="-14" type="curve" smooth="yes"/>
      <point x="279" y="-14"/>
      <point x="349" y="14"/>
      <point x="401" y="55" type="curve"/>
      <point x="445" y="11"/>
      <point x="509" y="-14"/>
      <point x="597" y="-14" type="curve" smooth="yes"/>
      <point x="751" y="-14"/>
      <point x="842" y="60"/>
      <point x="842" y="166" type="curve" smooth="yes"/>
      <point x="842" y="170" type="line"/>
      <point x="669" y="170" type="line"/>
      <point x="669" y="145"/>
      <point x="638" y="124"/>
      <point x="598" y="124" type="curve" smooth="yes"/>
      <point x="552" y="124"/>
      <point x="522" y="140"/>
      <point x="516" y="200" type="curve"/>
    </contour>
    <contour>
      <point x="341" y="168" type="curve"/>
      <point x="330" y="153"/>
      <point x="298" y="129"/>
      <point x="260" y="129" type="curve" smooth="yes"/>
      <point x="222" y="129"/>
      <point x="208" y="151"/>
      <point x="208" y="172" type="curve" smooth="yes"/>
      <point x="208" y="178" type="line" smooth="yes"/>
      <point x="208" y="202"/>
      <point x="218" y="221"/>
      <point x="261" y="228" type="curve" smooth="yes"/>
      <point x="332" y="239" type="line"/>
      <point x="332" y="214"/>
      <point x="335" y="190"/>
    </contour>
    <contour>
      <point x="587" y="406" type="curve" smooth="yes"/>
      <point x="630" y="406"/>
      <point x="653" y="386"/>
      <point x="658" y="330" type="curve"/>
      <point x="516" y="330" type="line"/>
      <point x="521" y="386"/>
      <point x="544" y="406"/>
    </contour>
  </outline>
</glyph>
<glyph name="ccedilla" format="1">
  <advance width="528"/>
  <unicode hex="00E7"/>
  <outline>
    <contour>
      <point x="161" y="-190" type="line"/>
      <point x="179" y="-202"/>
      <point x="220" y="-216"/>
      <point x="272" y="-216" type="curve" smooth="yes"/>
      <point x="357" y="-216"/>
      <point x="397" y="-183"/>
      <point x="397" y="-125" type="curve" smooth="yes"/>
      <point x="397" y="-69"/>
      <point x="354" y="-42"/>
      <point x="297" y="-37" type="curve"/>
      <point x="307" y="-12" type="line"/>
      <point x="437" y="-1"/>
      <point x="505" y="69"/>
      <point x="505" y="176" type="curve" smooth="yes"/>
      <point x="505" y="200" type="line"/>
      <point x="332" y="200" type="line"/>
      <point x="332" y="165"/>
      <point x="310" y="144"/>
      <point x="274" y="144" type="curve" smooth="yes"/>
      <point x="225" y="144"/>
      <point x="208" y="180"/>
      <point x="208" y="245" type="curve" smooth="yes"/>
      <point x="208" y="285" type="line" smooth="yes"/>
      <point x="208" y="350"/>
      <point x="225" y="386"/>
      <point x="274" y="386" type="curve" smooth="yes"/>
      <point x="310" y="386"/>
      <point x="332" y="366"/>
      <point x="332" y="320" type="curve"/>
      <point x="505" y="320" type="line"/>
      <point x="505" y="344" type="line" smooth="yes"/>
      <point x="505" y="470"/>
      <point x="424" y="544"/>
      <point x="270" y="544" type="curve" smooth="yes"/>
      <point x="99" y="544"/>
      <point x="25" y="440"/>
      <point x="25" y="285" type="curve" smooth="yes"/>
      <point x="25" y="245" type="line" smooth="yes"/>
      <point x="25" y="103"/>
      <point x="86" y="4"/>
      <point x="227" y="-12" type="curve"/>
      <point x="204" y="-70" type="line"/>
      <point x="218" y="-99" type="line"/>
      <point x="218" y="-99"/>
      <point x="239" y="-94"/>
      <point x="258" y="-94" type="curve" smooth="yes"/>
      <point x="292" y="-94"/>
      <point x="302" y="-102"/>
      <point x="302" y="-116" type="curve" smooth="yes"/>
      <point x="302" y="-129"/>
      <point x="292" y="-138"/>
      <point x="258" y="-138" type="curve" smooth="yes"/>
      <point x="232" y="-138"/>
      <point x="204" y="-131"/>
      <point x="188" y="-121" type="curve"/>
    </contour>
  </outline>
</glyph>
<glyph name="eacute" format="1">
  <advance width="560"/>
  <unicode hex="00E9"/>
  <outline>
    <contour>
      <point x="535" y="200" type="line"/>
      <point x="535" y="280" type="line" smooth="yes"/>
      <point x="535" y="435"/>
      <point x="455" y="544"/>
      <point x="284" y="544" type="curve" smooth="yes"/>
      <point x="113" y="544"/>
      <point x="25" y="435"/>
      <point x="25" y="280" type="curve" smooth="yes"/>
      <point x="25" y="250" type="line" smooth="yes"/>
      <point x="25" y="95"/>
      <point x="109" y="-14"/>
      <point x="290" y="-14" type="curve" smooth="yes"/>
      <point x="444" y="-14"/>
      <point x="535" y="60"/>
      <point x="535" y="166" type="curve" smooth="yes"/>
      <point x="535" y="170" type="line"/>
      <point x="362" y="170" type="line"/>
      <point x="362" y="145"/>
      <point x="331" y="124"/>
      <point x="291" y="124" type="curve" smooth="yes"/>
      <point x="245" y="124"/>
      <point x="215" y="140"/>
      <point x="209" y="200" type="curve"/>
    </contour>
    <contour>
      <point x="284" y="780" type="line"/>
      <point x="193" y="590" type="line"/>
      <point x="375" y="590" type="line"/>
      <point x="486" y="780" type="line"/>
    </contour>
    <contour>
      <point x="280" y="406" type="curve" smooth="yes"/>
      <point x="323" y="406"/>
      <point x="346" y="386"/>
      <point x="351" y="330" type="curve"/>
      <point x="209" y="330" type="line"/>
      <point x="214" y="386"/>
      <point x="237" y="406"/>
    </contour>
  </outline>
</glyph>
<glyph name="iacute" format="1">
  <advance width="280"/>
  <unicode hex="00ED"/>
  <outline>
    <contour>
      <point x="48" y="0" type="line"/>
      <point x="232" y="0" type="line"/>
      <point x="232" y="530" type="line"/>
      <point x="48" y="530" type="line"/>
    </contour>
    <contour>
      <point x="140" y="780" type="line"/>
      <point x="49" y="590" type="line"/>
      <point x="231" y="590" type="line"/>
      <point x="342" y="780" type="line"/>
    </contour>
  </outline>
</glyph>
<glyph name="icircumflex" format="1">
  <advance width="280"/>
  <unicode hex="00EE"/>
  <outline>
    <contour>
      <point x="48" y="0" type="line"/>
      <point x="232" y="0" type="line"/>
      <point x="232" y="530" type="line"/>
      <point x="48" y="530" type="line"/>
    </contour>
    <contour>
      <point x="75" y="590" type="line"/>
      <point x="140" y="663" type="line"/>
      <point x="205" y="590" type="line"/>
      <point x="365" y="590" type="line"/>
      <point x="230" y="780" type="line"/>
      <point x="50" y="780" type="line"/>
      <point x="-85" y="590" type="line"/>
    </contour>
  </outline>
</glyph>
<glyph name="idieresis" format="1">
  <advance width="280"/>
  <unicode hex="00EF"/>
  <outline>
    <contour>
      <point x="48" y="0" type="line"/>
      <point x="232" y="0" type="line"/>
      <point x="232" y="530" type="line"/>
      <point x="48" y="530" type="line"/>
    </contour>
    <contour>
      <point x="350" y="780" type="line"/>
      <point x="160" y="780" type="line"/>
      <point x="160" y="590" type="line"/>
      <point x="350" y="590" type="line"/>
    </contour>
    <contour>
      <point x="120" y="780" type="line"/>
      <point x="-70" y="780" type="line"/>
      <point x="-70" y="590" type="line"/>
      <point x="120" y="590" type="line"/>
    </contour>
  </outline>
</glyph>
<glyph name="eth" format="1">
  <advance width="560"/>
  <unicode hex="00F0"/>
  <outline>
    <contour>
      <point x="25" y="650" type="line"/>
      <point x="57" y="647"/>
      <point x="88" y="642"/>
      <point x="116" y="636" type="curve"/>
      <point x="50" y="600" type="line"/>
      <point x="50" y="500" type="line"/>
      <point x="228" y="598" type="line"/>
      <point x="252" y="584"/>
      <point x="273" y="568"/>
      <point x="289" y="550" type="curve"/>
      <point x="297" y="539" type="line"/>
      <point x="282" y="542"/>
      <point x="266" y="544"/>
      <point x="250" y="544" type="curve" smooth="yes"/>
      <point x="105" y="544"/>
      <point x="25" y="440"/>
      <point x="25" y="285" type="curve" smooth="yes"/>
      <point x="25" y="245" type="line" smooth="yes"/>
      <point x="25" y="90"/>
      <point x="105" y="-14"/>
      <point x="280" y="-14" type="curve" smooth="yes"/>
      <point x="455" y="-14"/>
      <point x="535" y="90"/>
      <point x="535" y="245" type="curve" smooth="yes"/>
      <point x="535" y="285" type="line" smooth="yes"/>
      <point x="535" y="409"/>
      <point x="515" y="542"/>
      <point x="432" y="653" type="curve" smooth="yes"/>
      <point x="421" y="667"/>
      <point x="410" y="679"/>
      <point x="398" y="691" type="curve"/>
      <point x="440" y="714" type="line"/>
      <point x="440" y="814" type="line"/>
      <point x="318" y="747" type="line"/>
      <point x="236" y="790"/>
      <point x="133" y="807"/>
      <point x="25" y="814" type="curve"/>
    </contour>
    <contour>
      <point x="280" y="144" type="curve" smooth="yes"/>
      <point x="230" y="144"/>
      <point x="208" y="180"/>
      <point x="208" y="245" type="curve" smooth="yes"/>
      <point x="208" y="285" type="line" smooth="yes"/>
      <point x="208" y="350"/>
      <point x="230" y="386"/>
      <point x="280" y="386" type="curve" smooth="yes"/>
      <point x="330" y="386"/>
      <point x="352" y="350"/>
      <point x="352" y="285" type="curve" smooth="yes"/>
      <point x="352" y="245" type="line" smooth="yes"/>
      <point x="352" y="180"/>
      <point x="330" y="144"/>
    </contour>
  </outline>
</glyph>
<glyph name="ntilde" format="1">
  <advance width="595"/>
  <unicode hex="00F1"/>
  <outline>
    <contour>
      <point x="551" y="0" type="line"/>
      <point x="551" y="355" type="line" smooth="yes"/>
      <point x="551" y="450"/>
      <point x="511" y="544"/>
      <point x="386" y="544" type="curve" smooth="yes"/>
      <point x="307" y="544"/>
      <point x="253" y="511"/>
      <point x="218" y="464" type="curve"/>
      <point x="206" y="530" type="line"/>
      <point x="40" y="530" type="line"/>
      <point x="50" y="380" type="line"/>
      <point x="50" y="0" type="line"/>
      <point x="234" y="0" type="line"/>
      <point x="234" y="345" type="line"/>
      <point x="244" y="360"/>
      <point x="271" y="386"/>
      <point x="311" y="386" type="curve" smooth="yes"/>
      <point x="361" y="386"/>
      <point x="367" y="350"/>
      <point x="367" y="325" type="curve" smooth="yes"/>
      <point x="367" y="0" type="line"/>
    </contour>
    <contour>
      <point x="396" y="780" type="line"/>
      <point x="396" y="755"/>
      <point x="384" y="745"/>
      <point x="366" y="745" type="curve" smooth="yes"/>
      <point x="326" y="745"/>
      <point x="271" y="796"/>
      <point x="206" y="796" type="curve" smooth="yes"/>
      <point x="140" y="796"/>
      <point x="86" y="745"/>
      <point x="86" y="620" type="curve"/>
      <point x="206" y="620" type="line"/>
      <point x="206" y="645"/>
      <point x="218" y="655"/>
      <point x="236" y="655" type="curve" smooth="yes"/>
      <point x="276" y="655"/>
      <point x="331" y="604"/>
      <point x="396" y="604" type="curve" smooth="yes"/>
      <point x="462" y="604"/>
      <point x="516" y="655"/>
      <point x="516" y="780" type="curve"/>
    </contour>
  </outline>
</glyph>
<glyph name="otilde" format="1">
  <advance width="560"/>
  <unicode hex="00F5"/>
  <outline>
    <contour>
      <point x="280" y="-14" type="curve" smooth="yes"/>
      <point x="455" y="-14"/>
      <point x="535" y="90"/>
      <point x="535" y="245" type="curve" smooth="yes"/>
      <point x="535" y="285" type="line" smooth="yes"/>
      <point x="535" y="440"/>
      <point x="455" y="544"/>
      <point x="280" y="544" type="curve" smooth="yes"/>
      <point x="105" y="544"/>
      <point x="25" y="440"/>
      <point x="25" y="285" type="curve" smooth="yes"/>
      <point x="25" y="245" type="line" smooth="yes"/>
      <point x="25" y="90"/>
      <point x="105" y="-14"/>
    </contour>
    <contour>
      <point x="375" y="780" type="line"/>
      <point x="375" y="755"/>
      <point x="363" y="745"/>
      <point x="345" y="745" type="curve" smooth="yes"/>
      <point x="305" y="745"/>
      <point x="250" y="796"/>
      <point x="185" y="796" type="curve" smooth="yes"/>
      <point x="119" y="796"/>
      <point x="65" y="745"/>
      <point x="65" y="620" type="curve"/>
      <point x="185" y="620" type="line"/>
      <point x="185" y="645"/>
      <point x="197" y="655"/>
      <point x="215" y="655" type="curve" smooth="yes"/>
      <point x="255" y="655"/>
      <point x="310" y="604"/>
      <point x="375" y="604" type="curve" smooth="yes"/>
      <point x="441" y="604"/>
      <point x="495" y="655"/>
      <point x="495" y="780" type="curve"/>
    </contour>
    <contour>
      <point x="280" y="144" type="curve" smooth="yes"/>
      <point x="230" y="144"/>
      <point x="208" y="180"/>
      <point x="208" y="245" type="curve" smooth="yes"/>
      <point x="208" y="285" type="line" smooth="yes"/>
      <point x="208" y="350"/>
      <point x="230" y="386"/>
      <point x="280" y="386" type="curve" smooth="yes"/>
      <point x="330" y="386"/>
      <point x="352" y="350"/>
      <point x="352" y="285" type="curve" smooth="yes"/>
      <point x="352" y="245" type="line" smooth="yes"/>
      <point x="352" y="180"/>
      <point x="330" y="144"/>
    </contour>
  </outline>
</glyph>
<glyph name="divide" format="1">
  <advance width="600"/>
  <unicode hex="00F7"/>
  <outline>
    <contour>
      <point x="40" y="308" type="line"/>
      <point x="560" y="308" type="line"/>
      <point x="560" y="472" type="line"/>
      <point x="40" y="472" type="line"/>
    </contour>
    <contour>
      <point x="395" y="280" type="line"/>
      <point x="205" y="280" type="line"/>
      <point x="205" y="90" type="line"/>
      <point x="395" y="90" type="line"/>
    </contour>
    <contour>
      <point x="395" y="690" type="line"/>
      <point x="205" y="690" type="line"/>
      <point x="205" y="500" type="line"/>
      <point x="395" y="500" type="line"/>
    </contour>
  </outline>
</glyph>
<glyph name="oslash" format="1">
  <advance width="560"/>
  <unicode hex="00F8"/>
  <outline>
    <contour>
      <point x="535" y="530" type="line"/>
      <point x="445" y="530" type="line"/>
      <point x="428" y="509" type="line"/>
      <point x="389" y="531"/>
      <point x="340" y="544"/>
      <point x="280" y="544" type="curve" smooth="yes"/>
      <point x="105" y="544"/>
      <point x="25" y="440"/>
      <point x="25" y="285" type="curve" smooth="yes"/>
      <point x="25" y="245" type="line" smooth="yes"/>
      <point x="25" y="173"/>
      <point x="42" y="112"/>
      <point x="78" y="68" type="curve"/>
      <point x="24" y="0" type="line"/>
      <point x="114" y="0" type="line"/>
      <point x="131" y="21" type="line"/>
      <point x="169" y="-1"/>
      <point x="219" y="-14"/>
      <point x="280" y="-14" type="curve" smooth="yes"/>
      <point x="455" y="-14"/>
      <point x="535" y="90"/>
      <point x="535" y="245" type="curve" smooth="yes"/>
      <point x="535" y="285" type="line" smooth="yes"/>
      <point x="535" y="357"/>
      <point x="517" y="418"/>
      <point x="481" y="462" type="curve"/>
    </contour>
    <contour>
      <point x="352" y="285" type="curve" smooth="yes"/>
      <point x="352" y="245" type="line" smooth="yes"/>
      <point x="352" y="180"/>
      <point x="330" y="144"/>
      <point x="280" y="144" type="curve" smooth="yes"/>
      <point x="263" y="144"/>
      <point x="249" y="148"/>
      <point x="238" y="156" type="curve"/>
      <point x="351" y="299" type="line"/>
      <point x="352" y="295"/>
      <point x="352" y="290"/>
    </contour>
    <contour>
      <point x="208" y="232" type="line"/>
      <point x="208" y="285" type="line" smooth="yes"/>
      <point x="208" y="350"/>
      <point x="230" y="386"/>
      <point x="280" y="386" type="curve" smooth="yes"/>
      <point x="297" y="386"/>
      <point x="310" y="382"/>
      <point x="321" y="374" type="curve"/>
    </contour>
  </outline>
</glyph>
<glyph name="ugrave" format="1">
  <advance width="595"/>
  <unicode hex="00F9"/>
  <outline>
    <contour>
      <point x="44" y="530" type="line"/>
      <point x="44" y="175" type="line" smooth="yes"/>
      <point x="44" y="80"/>
      <point x="84" y="-14"/>
      <point x="209" y="-14" type="curve" smooth="yes"/>
      <point x="288" y="-14"/>
      <point x="342" y="18"/>
      <point x="376" y="65" type="curve"/>
      <point x="389" y="0" type="line"/>
      <point x="555" y="0" type="line"/>
      <point x="545" y="150" type="line"/>
      <point x="545" y="530" type="line"/>
      <point x="361" y="530" type="line"/>
      <point x="361" y="185" type="line"/>
      <point x="351" y="170"/>
      <point x="324" y="144"/>
      <point x="284" y="144" type="curve" smooth="yes"/>
      <point x="234" y="144"/>
      <point x="228" y="180"/>
      <point x="228" y="205" type="curve" smooth="yes"/>
      <point x="228" y="530" type="line"/>
    </contour>
    <contour>
      <point x="92" y="780" type="line"/>
      <point x="203" y="590" type="line"/>
      <point x="385" y="590" type="line"/>
      <point x="294" y="780" type="line"/>
    </contour>
  </outline>
</glyph>
<glyph name="thorn" format="1">
  <advance width="585"/>
  <unicode hex="00FE"/>
  <outline>
    <contour>
      <point x="48" y="800" type="line"/>
      <point x="48" y="-200" type="line"/>
      <point x="232" y="-200" type="line"/>
      <point x="232" y="41" type="line"/>
      <point x="262" y="7"/>
      <point x="305" y="-14"/>
      <point x="365" y="-14" type="curve" smooth="yes"/>
      <point x="510" y="-14"/>
      <point x="560" y="90"/>
      <point x="560" y="245" type="curve" smooth="yes"/>
      <point x="560" y="285" type="line" smooth="yes"/>
      <point x="560" y="440"/>
      <point x="510" y="544"/>
      <point x="365" y="544" type="curve" smooth="yes"/>
      <point x="305" y="544"/>
      <point x="262" y="522"/>
      <point x="232" y="489" type="curve"/>
      <point x="232" y="800" type="line"/>
    </contour>
    <contour>
      <point x="233" y="185" type="curve"/>
      <point x="233" y="345" type="line"/>
      <point x="243" y="360"/>
      <point x="270" y="386"/>
      <point x="310" y="386" type="curve" smooth="yes"/>
      <point x="360" y="386"/>
      <point x="377" y="350"/>
      <point x="377" y="285" type="curve" smooth="yes"/>
      <point x="377" y="245" type="line" smooth="yes"/>
      <point x="377" y="180"/>
      <point x="360" y="144"/>
      <point x="310" y="144" type="curve" smooth="yes"/>
      <point x="270" y="144"/>
      <point x="243" y="170"/>
    </contour>
  </outline>
</glyph>
<glyph name="ydieresis" format="1">
  <advance width="570"/>
  <unicode hex="00FF"/>
  <outline>
    <contour>
      <point x="285" y="220" type="line"/>
      <point x="200" y="530" type="line"/>
      <point x="0" y="530" type="line"/>
      <point x="185" y="30" type="line"/>
      <point x="99" y="-200" type="line"/>
      <point x="319" y="-200" type="line"/>
      <point x="385" y="30" type="line"/>
      <point x="570" y="530" type="line"/>
      <point x="370" y="530" type="line"/>
    </contour>
    <contour>
      <point x="495" y="780" type="line"/>
      <point x="305" y="780" type="line"/>
      <point x="305" y="590" type="line"/>
      <point x="495" y="590" type="line"/>
    </contour>
    <contour>
      <point x="265" y="780" type="line"/>
      <point x="75" y="780" type="line"/>
      <point x="75" y="590" type="line"/>
      <point x="265" y="590" type="line"/>
    </contour>
  </outline>
</glyph>
<glyph name="Amacron" format="1">
  <advance width="650"/>
  <unicode hex="0100"/>
  <outline>
    <contour>
      <point x="195" y="780" type="line"/>
      <point x="9" y="0" type="line"/>
      <point x="213" y="0" type="line"/>
      <point x="244" y="158" type="line"/>
      <point x="406" y="158" type="line"/>
      <point x="438" y="0" type="line"/>
      <point x="641" y="0" type="line"/>
      <point x="455" y="780" type="line"/>
    </contour>
    <contour>
      <point x="165" y="840" type="line"/>
      <point x="485" y="840" type="line"/>
      <point x="485" y="950" type="line"/>
      <point x="165" y="950" type="line"/>
    </contour>
    <contour>
      <point x="325" y="560" type="line"/>
      <point x="373" y="322" type="line"/>
      <point x="277" y="322" type="line"/>
    </contour>
  </outline>
</glyph>
<glyph name="Abreve" format="1">
  <advance width="650"/>
  <unicode hex="0102"/>
  <outline>
    <contour>
      <point x="195" y="780" type="line"/>
      <point x="9" y="0" type="line"/>
      <point x="213" y="0" type="line"/>
      <point x="244" y="158" type="line"/>
      <point x="406" y="158" type="line"/>
      <point x="438" y="0" type="line"/>
      <point x="641" y="0" type="line"/>
      <point x="455" y="780" type="line"/>
    </contour>
    <contour>
      <point x="325" y="824" type="curve" smooth="yes"/>
      <point x="485" y="824"/>
      <point x="520" y="883"/>
      <point x="520" y="950" type="curve"/>
      <point x="395" y="950" type="line"/>
      <point x="395" y="930"/>
      <point x="375" y="920"/>
      <point x="325" y="920" type="curve" smooth="yes"/>
      <point x="275" y="920"/>
      <point x="255" y="930"/>
      <point x="255" y="950" type="curve"/>
      <point x="130" y="950" type="line"/>
      <point x="130" y="883"/>
      <point x="165" y="824"/>
    </contour>
    <contour>
      <point x="325" y="560" type="line"/>
      <point x="373" y="322" type="line"/>
      <point x="277" y="322" type="line"/>
    </contour>
  </outline>
</glyph>
<glyph name="Aogonek" format="1">
  <advance width="650"/>
  <unicode hex="0104"/>
  <outline>
    <contour>
      <point x="586" y="-58" type="curve" smooth="yes"/>
      <point x="586" y="-35"/>
      <point x="603" y="-17"/>
      <point x="641" y="0" type="curve"/>
      <point x="455" y="780" type="line"/>
      <point x="195" y="780" type="line"/>
      <point x="9" y="0" type="line"/>
      <point x="213" y="0" type="line"/>
      <point x="244" y="158" type="line"/>
      <point x="406" y="158" type="line"/>
      <point x="438" y="0" type="line"/>
      <point x="492" y="0" type="line"/>
      <point x="467" y="-28"/>
      <point x="451" y="-64"/>
      <point x="451" y="-105" type="curve" smooth="yes"/>
      <point x="451" y="-180"/>
      <point x="508" y="-216"/>
      <point x="593" y="-216" type="curve" smooth="yes"/>
      <point x="638" y="-216"/>
      <point x="680" y="-203"/>
      <point x="701" y="-190" type="curve"/>
      <point x="660" y="-80" type="line"/>
      <point x="654" y="-84"/>
      <point x="642" y="-90"/>
      <point x="624" y="-90" type="curve" smooth="yes"/>
      <point x="601" y="-90"/>
      <point x="586" y="-77"/>
    </contour>
    <contour>
      <point x="325" y="560" type="line"/>
      <point x="373" y="322" type="line"/>
      <point x="277" y="322" type="line"/>
    </contour>
  </outline>
</glyph>
<glyph name="ccircumflex" format="1">
  <advance width="528"/>
  <unicode hex="0109"/>
  <outline>
    <contour>
      <point x="208" y="245" type="curve" smooth="yes"/>
      <point x="208" y="285" type="line" smooth="yes"/>
      <point x="208" y="350"/>
      <point x="225" y="386"/>
      <point x="274" y="386" type="curve" smooth="yes"/>
      <point x="310" y="386"/>
      <point x="332" y="366"/>
      <point x="332" y="320" type="curve"/>
      <point x="505" y="320" type="line"/>
      <point x="505" y="344" type="line" smooth="yes"/>
      <point x="505" y="470"/>
      <point x="424" y="544"/>
      <point x="270" y="544" type="curve" smooth="yes"/>
      <point x="99" y="544"/>
      <point x="25" y="440"/>
      <point x="25" y="285" type="curve" smooth="yes"/>
      <point x="25" y="245" type="line" smooth="yes"/>
      <point x="25" y="90"/>
      <point x="99" y="-14"/>
      <point x="270" y="-14" type="curve" smooth="yes"/>
      <point x="424" y="-14"/>
      <point x="505" y="60"/>
      <point x="505" y="176" type="curve" smooth="yes"/>
      <point x="505" y="200" type="line"/>
      <point x="332" y="200" type="line"/>
      <point x="332" y="165"/>
      <point x="310" y="144"/>
      <point x="274" y="144" type="curve" smooth="yes"/>
      <point x="225" y="144"/>
      <point x="208" y="180"/>
    </contour>
    <contour>
      <point x="205" y="590" type="line"/>
      <point x="270" y="663" type="line"/>
      <point x="335" y="590" type="line"/>
      <point x="495" y="590" type="line"/>
      <point x="360" y="780" type="line"/>
      <point x="180" y="780" type="line"/>
      <point x="45" y="590" type="line"/>
    </contour>
  </outline>
</glyph>
<glyph name="Ccaron" format="1">
  <advance width="660"/>
  <unicode hex="010C"/>
  <outline>
    <contour>
      <point x="226" y="370" type="curve" smooth="yes"/>
      <point x="226" y="410" type="line" smooth="yes"/>
      <point x="226" y="545"/>
      <point x="240" y="630"/>
      <point x="335" y="630" type="curve" smooth="yes"/>
      <point x="345" y="630" type="line" smooth="yes"/>
      <point x="420" y="630"/>
      <point x="435" y="570"/>
      <point x="435" y="480" type="curve"/>
      <point x="625" y="480" type="line"/>
      <point x="625" y="519" type="line" smooth="yes"/>
      <point x="625" y="720"/>
      <point x="526" y="794"/>
      <point x="335" y="794" type="curve" smooth="yes"/>
      <point x="125" y="794"/>
      <point x="33" y="680"/>
      <point x="33" y="410" type="curve" smooth="yes"/>
      <point x="33" y="370" type="line" smooth="yes"/>
      <point x="33" y="100"/>
      <point x="125" y="-14"/>
      <point x="335" y="-14" type="curve" smooth="yes"/>
      <point x="526" y="-14"/>
      <point x="625" y="60"/>
      <point x="625" y="261" type="curve" smooth="yes"/>
      <point x="625" y="270" type="line"/>
      <point x="435" y="270" type="line"/>
      <point x="435" y="200"/>
      <point x="412" y="150"/>
      <point x="345" y="150" type="curve" smooth="yes"/>
      <point x="335" y="150" type="line" smooth="yes"/>
      <point x="240" y="150"/>
      <point x="226" y="235"/>
    </contour>
    <contour>
      <point x="110" y="950" type="line"/>
      <point x="240" y="840" type="line"/>
      <point x="430" y="840" type="line"/>
      <point x="560" y="950" type="line"/>
      <point x="395" y="950" type="line"/>
      <point x="335" y="910" type="line"/>
      <point x="275" y="950" type="line"/>
    </contour>
  </outline>
</glyph>
<glyph name="Dcroat" format="1">
  <advance width="730"/>
  <unicode hex="0110"/>
  <outline>
    <contour>
      <point x="10" y="330" type="line"/>
      <point x="110" y="330" type="line"/>
      <point x="110" y="0" type="line"/>
      <point x="360" y="0" type="line" smooth="yes"/>
      <point x="605" y="0"/>
      <point x="697" y="100"/>
      <point x="697" y="370" type="curve" smooth="yes"/>
      <point x="697" y="410" type="line" smooth="yes"/>
      <point x="697" y="680"/>
      <point x="605" y="780"/>
      <point x="360" y="780" type="curve" smooth="yes"/>
      <point x="110" y="780" type="line"/>
      <point x="110" y="470" type="line"/>
      <point x="10" y="470" type="line"/>
    </contour>
    <contour>
      <point x="300" y="616" type="line"/>
      <point x="350" y="616" type="line" smooth="yes"/>
      <point x="480" y="616"/>
      <point x="504" y="545"/>
      <point x="504" y="410" type="curve" smooth="yes"/>
      <point x="504" y="370" type="line" smooth="yes"/>
      <point x="504" y="235"/>
      <point x="480" y="164"/>
      <point x="350" y="164" type="curve" smooth="yes"/>
      <point x="300" y="164" type="line"/>
      <point x="300" y="330" type="line"/>
      <point x="450" y="330" type="line"/>
      <point x="450" y="470" type="line"/>
      <point x="300" y="470" type="line"/>
    </contour>
  </outline>
</glyph>
<glyph name="Emacron" format="1">
  <advance width="580"/>
  <unicode hex="0112"/>
  <outline>
    <contour>
      <point x="50" y="780" type="line"/>
      <point x="50" y="0" type="line"/>
      <point x="540" y="0" type="line"/>
      <point x="540" y="164" type="line"/>
      <point x="240" y="164" type="line"/>
      <point x="240" y="316" type="line"/>
      <point x="490" y="316" type="line"/>
      <point x="490" y="480" type="line"/>
      <point x="240" y="480" type="line"/>
      <point x="240" y="616" type="line"/>
      <point x="540" y="616" type="line"/>
      <point x="540" y="780" type="line"/>
    </contour>
    <contour>
      <point x="135" y="840" type="line"/>
      <point x="455" y="840" type="line"/>
      <point x="455" y="950" type="line"/>
      <point x="135" y="950" type="line"/>
    </contour>
  </outline>
</glyph>
<glyph name="Ebreve" format="1">
  <advance width="580"/>
  <unicode hex="0114"/>
  <outline>
    <contour>
      <point x="50" y="780" type="line"/>
      <point x="50" y="0" type="line"/>
      <point x="540" y="0" type="line"/>
      <point x="540" y="164" type="line"/>
      <point x="240" y="164" type="line"/>
      <point x="240" y="316" type="line"/>
      <point x="490" y="316" type="line"/>
      <point x="490" y="480" type="line"/>
      <point x="240" y="480" type="line"/>
      <point x="240" y="616" type="line"/>
      <point x="540" y="616" type="line"/>
      <point x="540" y="780" type="line"/>
    </contour>
    <contour>
      <point x="295" y="824" type="curve" smooth="yes"/>
      <point x="455" y="824"/>
      <point x="490" y="883"/>
      <point x="490" y="950" type="curve"/>
      <point x="365" y="950" type="line"/>
      <point x="365" y="930"/>
      <point x="345" y="920"/>
      <point x="295" y="920" type="curve" smooth="yes"/>
      <point x="245" y="920"/>
      <point x="225" y="930"/>
      <point x="225" y="950" type="curve"/>
      <point x="100" y="950" type="line"/>
      <point x="100" y="883"/>
      <point x="135" y="824"/>
    </contour>
  </outline>
</glyph>
<glyph name="Eogonek" format="1">
  <advance width="580"/>
  <unicode hex="0118"/>
  <outline>
    <contour>
      <point x="485" y="-58" type="curve" smooth="yes"/>
      <point x="485" y="-35"/>
      <point x="502" y="-17"/>
      <point x="540" y="0" type="curve"/>
      <point x="540" y="164" type="line"/>
      <point x="240" y="164" type="line"/>
      <point x="240" y="316" type="line"/>
      <point x="490" y="316" type="line"/>
      <point x="490" y="480" type="line"/>
      <point x="240" y="480" type="line"/>
      <point x="240" y="616" type="line"/>
      <point x="540" y="616" type="line"/>
      <point x="540" y="780" type="line"/>
      <point x="50" y="780" type="line"/>
      <point x="50" y="0" type="line"/>
      <point x="391" y="0" type="line"/>
      <point x="366" y="-28"/>
      <point x="350" y="-64"/>
      <point x="350" y="-105" type="curve" smooth="yes"/>
      <point x="350" y="-180"/>
      <point x="407" y="-216"/>
      <point x="492" y="-216" type="curve" smooth="yes"/>
      <point x="537" y="-216"/>
      <point x="579" y="-203"/>
      <point x="600" y="-190" type="curve"/>
      <point x="559" y="-80" type="line"/>
      <point x="553" y="-84"/>
      <point x="541" y="-90"/>
      <point x="523" y="-90" type="curve" smooth="yes"/>
      <point x="500" y="-90"/>
      <point x="485" y="-77"/>
    </contour>
  </outline>
</glyph>
<glyph name="eogonek" format="1">
  <advance width="560"/>
  <unicode hex="0119"/>
  <outline>
    <contour>
      <point x="341" y="-58" type="curve" smooth="yes"/>
      <point x="341" y="-35"/>
      <point x="357" y="-12"/>
      <point x="396" y="0" type="curve" smooth="yes"/>
      <point x="486" y="28"/>
      <point x="535" y="87"/>
      <point x="535" y="166" type="curve" smooth="yes"/>
      <point x="535" y="170" type="line"/>
      <point x="362" y="170" type="line"/>
      <point x="362" y="145"/>
      <point x="331" y="124"/>
      <point x="291" y="124" type="curve" smooth="yes"/>
      <point x="245" y="124"/>
      <point x="215" y="140"/>
      <point x="209" y="200" type="curve"/>
      <point x="535" y="200" type="line"/>
      <point x="535" y="280" type="line" smooth="yes"/>
      <point x="535" y="435"/>
      <point x="455" y="544"/>
      <point x="284" y="544" type="curve" smooth="yes"/>
      <point x="113" y="544"/>
      <point x="25" y="435"/>
      <point x="25" y="280" type="curve" smooth="yes"/>
      <point x="25" y="250" type="line" smooth="yes"/>
      <point x="25" y="110"/>
      <point x="93" y="8"/>
      <point x="238" y="-11" type="curve"/>
      <point x="218" y="-37"/>
      <point x="206" y="-69"/>
      <point x="206" y="-105" type="curve" smooth="yes"/>
      <point x="206" y="-180"/>
      <point x="263" y="-216"/>
      <point x="348" y="-216" type="curve" smooth="yes"/>
      <point x="393" y="-216"/>
      <point x="435" y="-203"/>
      <point x="456" y="-190" type="curve"/>
      <point x="415" y="-80" type="line"/>
      <point x="409" y="-84"/>
      <point x="397" y="-90"/>
      <point x="379" y="-90" type="curve" smooth="yes"/>
      <point x="356" y="-90"/>
      <point x="341" y="-77"/>
    </contour>
    <contour>
      <point x="280" y="406" type="curve" smooth="yes"/>
      <point x="323" y="406"/>
      <point x="346" y="386"/>
      <point x="351" y="330" type="curve"/>
      <point x="209" y="330" type="line"/>
      <point x="214" y="386"/>
      <point x="237" y="406"/>
    </contour>
  </outline>
</glyph>
<glyph name="Ecaron" format="1">
  <advance width="580"/>
  <unicode hex="011A"/>
  <outline>
    <contour>
      <point x="50" y="780" type="line"/>
      <point x="50" y="0" type="line"/>
      <point x="540" y="0" type="line"/>
      <point x="540" y="164" type="line"/>
      <point x="240" y="164" type="line"/>
      <point x="240" y="316" type="line"/>
      <point x="490" y="316" type="line"/>
      <point x="490" y="480" type="line"/>
      <point x="240" y="480" type="line"/>
      <point x="240" y="616" type="line"/>
      <point x="540" y="616" type="line"/>
      <point x="540" y="780" type="line"/>
    </contour>
    <contour>
      <point x="70" y="950" type="line"/>
      <point x="200" y="840" type="line"/>
      <point x="390" y="840" type="line"/>
      <point x="520" y="950" type="line"/>
      <point x="355" y="950" type="line"/>
      <point x="295" y="910" type="line"/>
      <point x="235" y="950" type="line"/>
    </contour>
  </outline>
</glyph>
<glyph name="gcircumflex" format="1">
  <advance width="585"/>
  <unicode hex="011D"/>
  <outline>
    <contour>
      <point x="352" y="15" type="line" smooth="yes"/>
      <point x="352" y="-50"/>
      <point x="325" y="-66"/>
      <point x="276" y="-66" type="curve" smooth="yes"/>
      <point x="220" y="-66"/>
      <point x="208" y="-35"/>
      <point x="208" y="0" type="curve"/>
      <point x="35" y="0" type="line"/>
      <point x="35" y="-24" type="line" smooth="yes"/>
      <point x="35" y="-130"/>
      <point x="96" y="-214"/>
      <point x="280" y="-214" type="curve" smooth="yes"/>
      <point x="451" y="-214"/>
      <point x="536" y="-140"/>
      <point x="536" y="15" type="curve" smooth="yes"/>
      <point x="536" y="380" type="line"/>
      <point x="546" y="530" type="line"/>
      <point x="380" y="530" type="line"/>
      <point x="369" y="472" type="line"/>
      <point x="339" y="514"/>
      <point x="292" y="544"/>
      <point x="220" y="544" type="curve" smooth="yes"/>
      <point x="80" y="544"/>
      <point x="25" y="440"/>
      <point x="25" y="295" type="curve" smooth="yes"/>
      <point x="25" y="265" type="line" smooth="yes"/>
      <point x="25" y="110"/>
      <point x="80" y="16"/>
      <point x="220" y="16" type="curve" smooth="yes"/>
      <point x="279" y="16"/>
      <point x="322" y="35"/>
      <point x="352" y="66" type="curve"/>
    </contour>
    <contour>
      <point x="220" y="590" type="line"/>
      <point x="285" y="663" type="line"/>
      <point x="350" y="590" type="line"/>
      <point x="510" y="590" type="line"/>
      <point x="375" y="780" type="line"/>
      <point x="195" y="780" type="line"/>
      <point x="60" y="590" type="line"/>
    </contour>
    <contour>
      <point x="352" y="215" type="line"/>
      <point x="342" y="200"/>
      <point x="315" y="174"/>
      <point x="275" y="174" type="curve" smooth="yes"/>
      <point x="230" y="174"/>
      <point x="208" y="200"/>
      <point x="208" y="265" type="curve" smooth="yes"/>
      <point x="208" y="295" type="line" smooth="yes"/>
      <point x="208" y="350"/>
      <point x="230" y="386"/>
      <point x="275" y="386" type="curve" smooth="yes"/>
      <point x="315" y="386"/>
      <point x="342" y="360"/>
      <point x="352" y="345" type="curve"/>
    </contour>
  </outline>
</glyph>
<glyph name="Gbreve" format="1">
  <advance width="680"/>
  <unicode hex="011E"/>
  <outline>
    <contour>
      <point x="350" y="-14" type="curve" smooth="yes"/>
      <point x="490" y="-14"/>
      <point x="571" y="28"/>
      <point x="634" y="78" type="curve"/>
      <point x="634" y="434" type="line"/>
      <point x="350" y="434" type="line"/>
      <point x="350" y="270" type="line"/>
      <point x="444" y="270" type="line"/>
      <point x="444" y="170" type="line"/>
      <point x="421" y="157"/>
      <point x="390" y="150"/>
      <point x="355" y="150" type="curve" smooth="yes"/>
      <point x="345" y="150" type="line" smooth="yes"/>
      <point x="240" y="150"/>
      <point x="226" y="235"/>
      <point x="226" y="370" type="curve" smooth="yes"/>
      <point x="226" y="410" type="line" smooth="yes"/>
      <point x="226" y="545"/>
      <point x="240" y="630"/>
      <point x="340" y="630" type="curve" smooth="yes"/>
      <point x="350" y="630" type="line" smooth="yes"/>
      <point x="430" y="630"/>
      <point x="445" y="570"/>
      <point x="445" y="480" type="curve"/>
      <point x="635" y="480" type="line"/>
      <point x="635" y="519" type="line" smooth="yes"/>
      <point x="635" y="720"/>
      <point x="531" y="794"/>
      <point x="340" y="794" type="curve" smooth="yes"/>
      <point x="130" y="794"/>
      <point x="33" y="680"/>
      <point x="33" y="410" type="curve" smooth="yes"/>
      <point x="33" y="370" type="line" smooth="yes"/>
      <point x="33" y="100"/>
      <point x="130" y="-14"/>
    </contour>
    <contour>
      <point x="340" y="824" type="curve" smooth="yes"/>
      <point x="500" y="824"/>
      <point x="535" y="883"/>
      <point x="535" y="950" type="curve"/>
      <point x="410" y="950" type="line"/>
      <point x="410" y="930"/>
      <point x="390" y="920"/>
      <point x="340" y="920" type="curve" smooth="yes"/>
      <point x="290" y="920"/>
      <point x="270" y="930"/>
      <point x="270" y="950" type="curve"/>
      <point x="145" y="950" type="line"/>
      <point x="145" y="883"/>
      <point x="180" y="824"/>
    </contour>
  </outline>
</glyph>
<glyph name="gbreve" format="1">
  <advance width="585"/>
  <unicode hex="011F"/>
  <outline>
    <contour>
      <point x="352" y="15" type="line" smooth="yes"/>
      <point x="352" y="-50"/>
      <point x="325" y="-66"/>
      <point x="276" y="-66" type="curve" smooth="yes"/>
      <point x="220" y="-66"/>
      <point x="208" y="-35"/>
      <point x="208" y="0" type="curve"/>
      <point x="35" y="0" type="line"/>
      <point x="35" y="-24" type="line" smooth="yes"/>
      <point x="35" y="-130"/>
      <point x="96" y="-214"/>
      <point x="280" y="-214" type="curve" smooth="yes"/>
      <point x="451" y="-214"/>
      <point x="536" y="-140"/>
      <point x="536" y="15" type="curve" smooth="yes"/>
      <point x="536" y="380" type="line"/>
      <point x="546" y="530" type="line"/>
      <point x="380" y="530" type="line"/>
      <point x="369" y="472" type="line"/>
      <point x="339" y="514"/>
      <point x="292" y="544"/>
      <point x="220" y="544" type="curve" smooth="yes"/>
      <point x="80" y="544"/>
      <point x="25" y="440"/>
      <point x="25" y="295" type="curve" smooth="yes"/>
      <point x="25" y="265" type="line" smooth="yes"/>
      <point x="25" y="110"/>
      <point x="80" y="16"/>
      <point x="220" y="16" type="curve" smooth="yes"/>
      <point x="279" y="16"/>
      <point x="322" y="35"/>
      <point x="352" y="66" type="curve"/>
    </contour>
    <contour>
      <point x="285" y="576" type="curve" smooth="yes"/>
      <point x="433" y="576"/>
      <point x="483" y="663"/>
      <point x="480" y="780" type="curve"/>
      <point x="350" y="780" type="line"/>
      <point x="350" y="725"/>
      <point x="318" y="714"/>
      <point x="285" y="714" type="curve" smooth="yes"/>
      <point x="252" y="714"/>
      <point x="220" y="725"/>
      <point x="220" y="780" type="curve"/>
      <point x="90" y="780" type="line"/>
      <point x="87" y="663"/>
      <point x="137" y="576"/>
    </contour>
    <contour>
      <point x="352" y="345" type="curve"/>
      <point x="352" y="215" type="line"/>
      <point x="342" y="200"/>
      <point x="315" y="174"/>
      <point x="275" y="174" type="curve" smooth="yes"/>
      <point x="230" y="174"/>
      <point x="208" y="200"/>
      <point x="208" y="265" type="curve" smooth="yes"/>
      <point x="208" y="295" type="line" smooth="yes"/>
      <point x="208" y="350"/>
      <point x="230" y="386"/>
      <point x="275" y="386" type="curve" smooth="yes"/>
      <point x="315" y="386"/>
      <point x="342" y="360"/>
    </contour>
  </outline>
</glyph>
<glyph name="gcommaaccent" format="1">
  <advance width="585"/>
  <unicode hex="0123"/>
  <outline>
    <contour>
      <point x="352" y="15" type="line" smooth="yes"/>
      <point x="352" y="-50"/>
      <point x="325" y="-66"/>
      <point x="276" y="-66" type="curve" smooth="yes"/>
      <point x="220" y="-66"/>
      <point x="208" y="-35"/>
      <point x="208" y="0" type="curve"/>
      <point x="35" y="0" type="line"/>
      <point x="35" y="-24" type="line" smooth="yes"/>
      <point x="35" y="-130"/>
      <point x="96" y="-214"/>
      <point x="280" y="-214" type="curve" smooth="yes"/>
      <point x="451" y="-214"/>
      <point x="536" y="-140"/>
      <point x="536" y="15" type="curve" smooth="yes"/>
      <point x="536" y="380" type="line"/>
      <point x="546" y="530" type="line"/>
      <point x="380" y="530" type="line"/>
      <point x="369" y="472" type="line"/>
      <point x="339" y="514"/>
      <point x="292" y="544"/>
      <point x="220" y="544" type="curve" smooth="yes"/>
      <point x="80" y="544"/>
      <point x="25" y="440"/>
      <point x="25" y="295" type="curve" smooth="yes"/>
      <point x="25" y="265" type="line" smooth="yes"/>
      <point x="25" y="110"/>
      <point x="80" y="16"/>
      <point x="220" y="16" type="curve" smooth="yes"/>
      <point x="279" y="16"/>
      <point x="322" y="35"/>
      <point x="352" y="66" type="curve"/>
    </contour>
    <contour>
      <point x="200" y="590" type="line"/>
      <point x="360" y="590" type="line"/>
      <point x="360" y="700" type="line"/>
      <point x="271" y="700" type="line"/>
      <point x="286" y="725"/>
      <point x="316" y="734"/>
      <point x="360" y="734" type="curve"/>
      <point x="360" y="794" type="line"/>
      <point x="250" y="794"/>
      <point x="200" y="755"/>
      <point x="200" y="660" type="curve" smooth="yes"/>
    </contour>
    <contour>
      <point x="352" y="345" type="curve"/>
      <point x="352" y="215" type="line"/>
      <point x="342" y="200"/>
      <point x="315" y="174"/>
      <point x="275" y="174" type="curve" smooth="yes"/>
      <point x="230" y="174"/>
      <point x="208" y="200"/>
      <point x="208" y="265" type="curve" smooth="yes"/>
      <point x="208" y="295" type="line" smooth="yes"/>
      <point x="208" y="350"/>
      <point x="230" y="386"/>
      <point x="275" y="386" type="curve" smooth="yes"/>
      <point x="315" y="386"/>
      <point x="342" y="360"/>
    </contour>
  </outline>
</glyph>
<glyph name="Hcircumflex" format="1">
  <advance width="670"/>
  <unicode hex="0124"/>
  <outline>
    <contour>
      <point x="430" y="780" type="line"/>
      <point x="430" y="480" type="line"/>
      <point x="240" y="480" type="line"/>
      <point x="240" y="780" type="line"/>
      <point x="50" y="780" type="line"/>
      <point x="50" y="0" type="line"/>
      <point x="240" y="0" type="line"/>
      <point x="240" y="316" type="line"/>
      <point x="430" y="316" type="line"/>
      <point x="430" y="0" type="line"/>
      <point x="620" y="0" type="line"/>
      <point x="620" y="780" type="line"/>
    </contour>
    <contour>
      <point x="275" y="840" type="line"/>
      <point x="335" y="879" type="line"/>
      <point x="395" y="840" type="line"/>
      <point x="560" y="840" type="line"/>
      <point x="430" y="950" type="line"/>
      <point x="240" y="950" type="line"/>
      <point x="110" y="840" type="line"/>
    </contour>
  </outline>
</glyph>
<glyph name="hcircumflex" format="1">
  <advance width="595"/>
  <unicode hex="0125"/>
  <outline>
    <contour>
      <point x="234" y="800" type="line"/>
      <point x="50" y="800" type="line"/>
      <point x="50" y="0" type="line"/>
      <point x="234" y="0" type="line"/>
      <point x="234" y="345" type="line"/>
      <point x="244" y="360"/>
      <point x="271" y="386"/>
      <point x="311" y="386" type="curve" smooth="yes"/>
      <point x="361" y="386"/>
      <point x="367" y="350"/>
      <point x="367" y="325" type="curve" smooth="yes"/>
      <point x="367" y="0" type="line"/>
      <point x="551" y="0" type="line"/>
      <point x="551" y="355" type="line" smooth="yes"/>
      <point x="551" y="450"/>
      <point x="511" y="544"/>
      <point x="386" y="544" type="curve" smooth="yes"/>
      <point x="318" y="544"/>
      <point x="268" y="520"/>
      <point x="234" y="483" type="curve"/>
    </contour>
    <contour>
      <point x="82" y="840" type="line"/>
      <point x="142" y="879" type="line"/>
      <point x="202" y="840" type="line"/>
      <point x="367" y="840" type="line"/>
      <point x="237" y="950" type="line"/>
      <point x="47" y="950" type="line"/>
      <point x="-83" y="840" type="line"/>
    </contour>
  </outline>
</glyph>
<glyph name="hbar" format="1">
  <advance width="595"/>
  <unicode hex="0127"/>
  <outline>
    <contour>
      <point x="234" y="800" type="line"/>
      <point x="50" y="800" type="line"/>
      <point x="50" y="730" type="line"/>
      <point x="-10" y="730" type="line"/>
      <point x="-10" y="600" type="line"/>
      <point x="50" y="600" type="line"/>
      <point x="50" y="0" type="line"/>
      <point x="234" y="0" type="line"/>
      <point x="234" y="345" type="line"/>
      <point x="244" y="360"/>
      <point x="271" y="386"/>
      <point x="311" y="386" type="curve" smooth="yes"/>
      <point x="361" y="386"/>
      <point x="368" y="350"/>
      <point x="368" y="325" type="curve" smooth="yes"/>
      <point x="368" y="0" type="line"/>
      <point x="551" y="0" type="line"/>
      <point x="551" y="355" type="line" smooth="yes"/>
      <point x="551" y="450"/>
      <point x="511" y="544"/>
      <point x="386" y="544" type="curve" smooth="yes"/>
      <point x="318" y="544"/>
      <point x="268" y="520"/>
      <point x="234" y="483" type="curve"/>
      <point x="234" y="600" type="line"/>
      <point x="341" y="600" type="line"/>
      <point x="341" y="730" type="line"/>
      <point x="234" y="730" type="line"/>
    </contour>
  </outline>
</glyph>
<glyph name="Itilde" format="1">
  <advance width="300"/>
  <unicode hex="0128"/>
  <outline>
    <contour>
      <point x="245" y="780" type="line"/>
      <point x="55" y="780" type="line"/>
      <point x="55" y="0" type="line"/>
      <point x="245" y="0" type="line"/>
    </contour>
    <contour>
      <point x="250" y="950" type="line"/>
      <point x="250" y="927"/>
      <point x="235" y="920"/>
      <point x="217" y="920" type="curve" smooth="yes"/>
      <point x="180" y="920"/>
      <point x="130" y="966"/>
      <point x="65" y="966" type="curve" smooth="yes"/>
      <point x="9" y="966"/>
      <point x="-45" y="935"/>
      <point x="-45" y="840" type="curve"/>
      <point x="50" y="840" type="line"/>
      <point x="50" y="863"/>
      <point x="65" y="870"/>
      <point x="83" y="870" type="curve" smooth="yes"/>
      <point x="120" y="870"/>
      <point x="170" y="824"/>
      <point x="235" y="824" type="curve" smooth="yes"/>
      <point x="291" y="824"/>
      <point x="345" y="855"/>
      <point x="345" y="950" type="curve"/>
    </contour>
  </outline>
</glyph>
<glyph name="itilde" format="1">
  <advance width="280"/>
  <unicode hex="0129"/>
  <outline>
    <contour>
      <point x="48" y="0" type="line"/>
      <point x="232" y="0" type="line"/>
      <point x="232" y="530" type="line"/>
      <point x="48" y="530" type="line"/>
    </contour>
    <contour>
      <point x="235" y="780" type="line"/>
      <point x="235" y="755"/>
      <point x="223" y="745"/>
      <point x="205" y="745" type="curve" smooth="yes"/>
      <point x="165" y="745"/>
      <point x="110" y="796"/>
      <point x="45" y="796" type="curve" smooth="yes"/>
      <point x="-21" y="796"/>
      <point x="-75" y="745"/>
      <point x="-75" y="620" type="curve"/>
      <point x="45" y="620" type="line"/>
      <point x="45" y="645"/>
      <point x="57" y="655"/>
      <point x="75" y="655" type="curve" smooth="yes"/>
      <point x="115" y="655"/>
      <point x="170" y="604"/>
      <point x="235" y="604" type="curve" smooth="yes"/>
      <point x="301" y="604"/>
      <point x="355" y="655"/>
      <point x="355" y="780" type="curve"/>
    </contour>
  </outline>
</glyph>
<glyph name="Imacron" format="1">
  <advance width="300"/>
  <unicode hex="012A"/>
  <outline>
    <contour>
      <point x="245" y="780" type="line"/>
      <point x="55" y="780" type="line"/>
      <point x="55" y="0" type="line"/>
      <point x="245" y="0" type="line"/>
    </contour>
    <contour>
      <point x="-10" y="840" type="line"/>
      <point x="310" y="840" type="line"/>
      <point x="310" y="950" type="line"/>
      <point x="-10" y="950" type="line"/>
    </contour>
  </outline>
</glyph>
<glyph name="imacron" format="1">
  <advance width="280"/>
  <unicode hex="012B"/>
  <outline>
    <contour>
      <point x="48" y="0" type="line"/>
      <point x="232" y="0" type="line"/>
      <point x="232" y="530" type="line"/>
      <point x="48" y="530" type="line"/>
    </contour>
    <contour>
      <point x="-20" y="605" type="line"/>
      <point x="300" y="605" type="line"/>
      <point x="300" y="765" type="line"/>
      <point x="-20" y="765" type="line"/>
    </contour>
  </outline>
</glyph>
<glyph name="Ibreve" format="1">
  <advance width="300"/>
  <unicode hex="012C"/>
  <outline>
    <contour>
      <point x="245" y="780" type="line"/>
      <point x="55" y="780" type="line"/>
      <point x="55" y="0" type="line"/>
      <point x="245" y="0" type="line"/>
    </contour>
    <contour>
      <point x="150" y="824" type="curve" smooth="yes"/>
      <point x="310" y="824"/>
      <point x="345" y="883"/>
      <point x="345" y="950" type="curve"/>
      <point x="220" y="950" type="line"/>
      <point x="220" y="930"/>
      <point x="200" y="920"/>
      <point x="150" y="920" type="curve" smooth="yes"/>
      <point x="100" y="920"/>
      <point x="80" y="930"/>
      <point x="80" y="950" type="curve"/>
      <point x="-45" y="950" type="line"/>
      <point x="-45" y="883"/>
      <point x="-10" y="824"/>
    </contour>
  </outline>
</glyph>
<glyph name="ibreve" format="1">
  <advance width="280"/>
  <unicode hex="012D"/>
  <outline>
    <contour>
      <point x="48" y="0" type="line"/>
      <point x="232" y="0" type="line"/>
      <point x="232" y="530" type="line"/>
      <point x="48" y="530" type="line"/>
    </contour>
    <contour>
      <point x="140" y="576" type="curve" smooth="yes"/>
      <point x="288" y="576"/>
      <point x="338" y="663"/>
      <point x="335" y="780" type="curve"/>
      <point x="205" y="780" type="line"/>
      <point x="205" y="725"/>
      <point x="173" y="714"/>
      <point x="140" y="714" type="curve" smooth="yes"/>
      <point x="107" y="714"/>
      <point x="75" y="725"/>
      <point x="75" y="780" type="curve"/>
      <point x="-55" y="780" type="line"/>
      <point x="-58" y="663"/>
      <point x="-8" y="576"/>
    </contour>
  </outline>
</glyph>
<glyph name="Iogonek" format="1">
  <advance width="300"/>
  <unicode hex="012E"/>
  <outline>
    <contour>
      <point x="190" y="-58" type="curve" smooth="yes"/>
      <point x="190" y="-35"/>
      <point x="207" y="-17"/>
      <point x="245" y="0" type="curve"/>
      <point x="245" y="780" type="line"/>
      <point x="55" y="780" type="line"/>
      <point x="55" y="0" type="line"/>
      <point x="96" y="0" type="line"/>
      <point x="71" y="-28"/>
      <point x="55" y="-64"/>
      <point x="55" y="-105" type="curve" smooth="yes"/>
      <point x="55" y="-180"/>
      <point x="112" y="-216"/>
      <point x="197" y="-216" type="curve" smooth="yes"/>
      <point x="242" y="-216"/>
      <point x="284" y="-203"/>
      <point x="305" y="-190" type="curve"/>
      <point x="264" y="-80" type="line"/>
      <point x="258" y="-84"/>
      <point x="246" y="-90"/>
      <point x="228" y="-90" type="curve" smooth="yes"/>
      <point x="205" y="-90"/>
      <point x="190" y="-77"/>
    </contour>
  </outline>
</glyph>
<glyph name="iogonek" format="1">
  <advance width="280"/>
  <unicode hex="012F"/>
  <outline>
    <contour>
      <point x="48" y="0" type="line"/>
      <point x="83" y="0" type="line"/>
      <point x="58" y="-28"/>
      <point x="42" y="-64"/>
      <point x="42" y="-105" type="curve" smooth="yes"/>
      <point x="42" y="-180"/>
      <point x="99" y="-216"/>
      <point x="184" y="-216" type="curve" smooth="yes"/>
      <point x="229" y="-216"/>
      <point x="271" y="-203"/>
      <point x="292" y="-190" type="curve"/>
      <point x="251" y="-80" type="line"/>
      <point x="245" y="-84"/>
      <point x="233" y="-90"/>
      <point x="215" y="-90" type="curve" smooth="yes"/>
      <point x="192" y="-90"/>
      <point x="177" y="-77"/>
      <point x="177" y="-58" type="curve" smooth="yes"/>
      <point x="177" y="-35"/>
      <point x="194" y="-17"/>
      <point x="232" y="0" type="curve"/>
      <point x="232" y="530" type="line"/>
      <point x="48" y="530" type="line"/>
    </contour>
    <contour>
      <point x="235" y="780" type="line"/>
      <point x="45" y="780" type="line"/>
      <point x="45" y="590" type="line"/>
      <point x="235" y="590" type="line"/>
    </contour>
  </outline>
</glyph>
<glyph name="Idotaccent" format="1">
  <advance width="300"/>
  <unicode hex="0130"/>
  <outline>
    <contour>
      <point x="245" y="780" type="line"/>
      <point x="55" y="780" type="line"/>
      <point x="55" y="0" type="line"/>
      <point x="245" y="0" type="line"/>
    </contour>
    <contour>
      <point x="225" y="950" type="line"/>
      <point x="75" y="950" type="line"/>
      <point x="75" y="840" type="line"/>
      <point x="225" y="840" type="line"/>
    </contour>
  </outline>
</glyph>
<glyph name="IJ" format="1">
  <advance width="641"/>
  <unicode hex="0132"/>
  <outline>
    <contour>
      <point x="406" y="223" type="line" smooth="yes"/>
      <point x="406" y="161"/>
      <point x="378" y="150"/>
      <point x="335" y="150" type="curve" smooth="yes"/>
      <point x="318" y="150"/>
      <point x="292" y="155"/>
      <point x="285" y="158" type="curve"/>
      <point x="285" y="3" type="line"/>
      <point x="296" y="-4"/>
      <point x="330" y="-14"/>
      <point x="385" y="-14" type="curve" smooth="yes"/>
      <point x="508" y="-14"/>
      <point x="596" y="42"/>
      <point x="596" y="202" type="curve" smooth="yes"/>
      <point x="596" y="780" type="line"/>
      <point x="406" y="780" type="line"/>
    </contour>
    <contour>
      <point x="245" y="780" type="line"/>
      <point x="55" y="780" type="line"/>
      <point x="55" y="0" type="line"/>
      <point x="245" y="0" type="line"/>
    </contour>
  </outline>
</glyph>
<glyph name="ij" format="1">
  <advance width="510"/>
  <unicode hex="0133"/>
  <outline>
    <contour>
      <point x="278" y="15" type="line" smooth="yes"/>
      <point x="278" y="-45"/>
      <point x="249" y="-56"/>
      <point x="207" y="-56" type="curve" smooth="yes"/>
      <point x="191" y="-56"/>
      <point x="166" y="-52"/>
      <point x="161" y="-50" type="curve"/>
      <point x="161" y="-200" type="line"/>
      <point x="170" y="-205"/>
      <point x="200" y="-214"/>
      <point x="250" y="-214" type="curve" smooth="yes"/>
      <point x="377" y="-214"/>
      <point x="462" y="-160"/>
      <point x="462" y="-5" type="curve" smooth="yes"/>
      <point x="462" y="530" type="line"/>
      <point x="278" y="530" type="line"/>
    </contour>
    <contour>
      <point x="48" y="0" type="line"/>
      <point x="232" y="0" type="line"/>
      <point x="232" y="530" type="line"/>
      <point x="48" y="530" type="line"/>
    </contour>
    <contour>
      <point x="235" y="780" type="line"/>
      <point x="45" y="780" type="line"/>
      <point x="45" y="590" type="line"/>
      <point x="235" y="590" type="line"/>
    </contour>
    <contour>
      <point x="465" y="780" type="line"/>
      <point x="275" y="780" type="line"/>
      <point x="275" y="590" type="line"/>
      <point x="465" y="590" type="line"/>
    </contour>
  </outline>
</glyph>
<glyph name="jcircumflex" format="1">
  <advance width="280"/>
  <unicode hex="0135"/>
  <outline>
    <contour>
      <point x="48" y="15" type="line" smooth="yes"/>
      <point x="48" y="-45"/>
      <point x="19" y="-56"/>
      <point x="-23" y="-56" type="curve" smooth="yes"/>
      <point x="-39" y="-56"/>
      <point x="-64" y="-52"/>
      <point x="-69" y="-50" type="curve"/>
      <point x="-69" y="-200" type="line"/>
      <point x="-60" y="-205"/>
      <point x="-30" y="-214"/>
      <point x="20" y="-214" type="curve" smooth="yes"/>
      <point x="147" y="-214"/>
      <point x="232" y="-160"/>
      <point x="232" y="-5" type="curve" smooth="yes"/>
      <point x="232" y="530" type="line"/>
      <point x="48" y="530" type="line"/>
    </contour>
    <contour>
      <point x="75" y="590" type="line"/>
      <point x="140" y="663" type="line"/>
      <point x="205" y="590" type="line"/>
      <point x="365" y="590" type="line"/>
      <point x="230" y="780" type="line"/>
      <point x="50" y="780" type="line"/>
      <point x="-85" y="590" type="line"/>
    </contour>
  </outline>
</glyph>
<glyph name="Kcommaaccent" format="1">
  <advance width="645"/>
  <unicode hex="0136"/>
  <outline>
    <contour>
      <point x="240" y="780" type="line"/>
      <point x="50" y="780" type="line"/>
      <point x="50" y="0" type="line"/>
      <point x="240" y="0" type="line"/>
      <point x="240" y="220" type="line"/>
      <point x="293" y="297" type="line"/>
      <point x="420" y="0" type="line"/>
      <point x="630" y="0" type="line"/>
      <point x="416" y="473" type="line"/>
      <point x="630" y="780" type="line"/>
      <point x="400" y="780" type="line"/>
      <point x="240" y="512" type="line"/>
    </contour>
    <contour>
      <point x="405" y="-40" type="line"/>
      <point x="245" y="-40" type="line"/>
      <point x="245" y="-140" type="line"/>
      <point x="333" y="-140" type="line"/>
      <point x="318" y="-163"/>
      <point x="288" y="-170"/>
      <point x="245" y="-170" type="curve"/>
      <point x="245" y="-230" type="line"/>
      <point x="355" y="-230"/>
      <point x="405" y="-195"/>
      <point x="405" y="-100" type="curve" smooth="yes"/>
    </contour>
  </outline>
</glyph>
